<?xml version="1.0" encoding="utf-8"?>
<!-- Generator: Adobe Illustrator 21.1.0, SVG Export Plug-In . SVG Version: 6.00 Build 0)  -->
<svg version="1.1" id="Layer_1" xmlns="http://www.w3.org/2000/svg" xmlns:xlink="http://www.w3.org/1999/xlink" x="0px" y="0px"
	 viewBox="0 0 512 512" style="enable-background:new 0 0 512 512;" xml:space="preserve">
<style type="text/css">
	.st0{fill:#FFDC46;}
	.st1{fill:#F44078;}
	.st2{fill:#040403;}
	.st3{fill:#FEDF66;}
	.st4{fill:#231F20;}
	.st5{fill:#030201;}
	.st6{fill:#FDDE66;}
</style>
<path class="st0" d="M280.6,29.8l-239,242.7c0,0-12.5,21.7,12,57L199,459.7c0,0,25.7,35.9,72.7-32.1l190-189l10-12v-33V49.3l-3-10.3
	l-89.6,0.3L280.6,29.8z"/>
<path class="st1" d="M136.2,258.9c0,0,38.6-33,82.8,12c0,0,67.2-69,105.2,24c0,0,24,20-94,131l-26.2-4L124.2,339
	C124.2,339,93.2,301.9,136.2,258.9z"/>
<g id="cPHb2l.tif">
	<g>
		<path class="st2" d="M460.7,27.7c4.1,1.8,8.6,3.1,12.2,5.6c8.6,5.8,12.8,14.4,12.8,24.7c0.1,53.8,0.1,107.6,0,161.4
			c0,14.3-6.2,26-16.3,36c-43.9,43.8-87.7,87.6-131.5,131.5c-27.9,27.9-55.8,55.9-83.8,83.7c-16.8,16.8-40.8,19.9-60,7.9
			c-3.9-2.4-7.3-5.6-10.7-8.8c-8.4-8-16.6-16.3-24.8-24.4c-3-3-6.1-6.1-9.1-9.1c-10.4-10.4-20.8-20.8-31.2-31.2
			c-3-3-6.1-6.1-9.1-9.1c-10.4-10.4-20.8-20.8-31.2-31.2c-3-3-6.1-6-9.1-9.1c-10.2-10.4-20.4-20.7-30.6-31.1
			c-2.2-3.7-4.6-7.2-6.4-11c-1.7-3.6-2.9-7.5-4.2-11.3c0-5.7,0-11.3,0-17c0.5-0.8,1.2-1.6,1.4-2.5c2.2-9.1,6.9-16.7,13.4-23.3
			C114.8,187.4,187,115.2,259.1,43c6.1-6.1,13.2-10.6,21.5-13.2c2.2-0.7,4.4-1.4,6.6-2.1C345,27.7,402.8,27.7,460.7,27.7z M460.4,47
			c-1.4-0.4-2.8-0.8-4.2-1.1c-20.6,0-41.1,0-61.7,0c-5.7,0-11.3,0-17,0c-0.9,0-1.8,0-2.7,0c-19.4,0-38.8,0-58.1,0
			c-0.6,0-1.2,0-1.8,0c-0.3,0-0.6,0-0.9,0c-5.7,0-11.3,0-17,0c-10.7-0.6-19.2,3.9-26.6,11.3c-69,69.1-138,138.1-207.1,207.1
			c-2.8,2.8-5.8,5.6-8.5,8.6c-6.4,6.8-10,14.7-8.8,24.3c1.6,4.5,3.1,8.9,4.7,13.4c0.6,0.8,1.2,1.5,1.8,2.3c9.8,10,19.7,20,29.5,29.9
			c3,3,6.1,6.1,9.1,9.1c10.4,10.4,20.8,20.8,31.2,31.2c3,3,6.1,6.1,9.1,9.1c10.4,10.4,20.8,20.8,31.2,31.2c3,3,6.1,6.1,9.1,9.1
			c9.1,9.1,18.2,18.3,27.3,27.4c1.7,1.6,3.8,2.7,5.8,4c4.5,1.3,9,2.6,13.5,3.8c9.2,0.4,16.7-3.3,23.1-9.7
			c7.6-7.6,15.2-15.2,22.8-22.7c64-64,128.1-128.1,192.2-192.1c6.9-6.9,11.5-14.8,11.3-24.8c0-5.7,0-11.3,0-17c0-21.2,0-42.3,0-63.5
			c0-5.7,0-11.3,0-17c0-21.2,0-42.3,0-63.5C467.5,52.3,465.1,48.8,460.4,47z"/>
		<path class="st3" d="M314.9,45.8c-0.3,0.2-0.6,0.4-0.8,0.7c0-0.2,0-0.4,0-0.7C314.3,45.8,314.6,45.8,314.9,45.8z"/>
		<path class="st4" d="M189.9,414.1c-3-3.1-6-6.1-9.1-9.2c-10.2-10.3-20.5-20.6-30.7-31c-3.2-3.3-6.5-6.5-9.7-9.8
			c-4.3-4.5-8.9-8.7-12.9-13.4c-5.3-6.2-10.2-12.7-15.2-19c-1.7-4.1-3.4-8.2-5.1-12.3c-4.8-18.8-3.1-36.8,7.1-53.7
			c15.2-25.1,44.8-37.2,73.2-30.1c1,0.3,2,0.4,3,0.5c3.8,1.6,7.7,3.2,11.5,4.8c0.6,0.3,1.2,0.6,1.8,0.9c5.3,4,10.7,8,16.2,12.1
			c3.4-2.8,7.1-6,11.1-8.8c12.8-8.9,27.3-12.1,42.7-11.6c4.8,0.9,9.5,1.8,14.3,2.7c14.4,5.1,26.3,13.7,35.4,26
			c2.2,3.9,4.4,7.8,6.5,11.7c3.2,9.2,5.4,18.5,5,28.4c-0.7,18.7-8.2,34.2-21.4,47.1c-29.1,28.4-58.2,56.9-87.3,85.3
			c-5.6,5.5-10.1,5.4-15.8-0.2C203.6,427.7,196.7,420.9,189.9,414.1z M171.7,251.6c-27-1.1-50.5,22.8-49.1,49.9
			c0.9,4.8,1.7,9.5,2.6,14.3c1.8,3.9,2.9,8.4,5.6,11.5c7.3,8.4,15.2,16.2,22.9,24.3c3,3,6,6,8.9,9c10.4,10.4,20.7,20.9,31.1,31.3
			c3,3.1,6,6.1,9.1,9.2c5.5,5,11,10,16.6,15.2c8-7.8,16.7-16.3,25.4-24.9c19.8-19.4,39.8-38.5,59.1-58.3
			c11.9-12.2,15.5-27.4,11.5-44.1c-1.7-4.2-3.3-8.4-5-12.6c-9-15.7-22.5-23.8-40.5-24.7c-8.2-0.5-16,1-23.3,5.1
			c-7.9,3.3-13.7,9.1-18.7,15.9c-5.3,7.2-11.5,7.2-16.9,0c-0.6-0.8-1.2-1.7-1.8-2.5c-5.7-7-12.5-12.6-21.3-15.4
			C182.7,253.7,177.2,252.6,171.7,251.6z"/>
		<path class="st5" d="M430.8,73.5c3.1,3.3,6.1,6.5,9.2,9.8c5.5,10.7,6.5,21.5,0.8,32.5c-8.5,16.1-27.7,22.1-44.1,13.7
			c-0.7-0.3-1.4-0.6-2-0.8c-3-2.7-5.9-5.4-8.9-8c-11-16.4-6.6-31.2,0-39.8c10.4-13.4,27.2-16.8,42.2-8.7
			C428.9,72.7,429.9,73.1,430.8,73.5z M426.5,98.4c-0.8-4.9-3.1-8.7-7.9-10.7c-5.8-3-11.8-2.4-16.5,1.7c-4.7,4.1-6.2,10-4,16.2
			c1.8,5.7,5.9,8.6,11.6,9.6C420.4,116.1,427.3,109.2,426.5,98.4z"/>
		<path class="st6" d="M203.8,241.8c-0.6-0.3-1.2-0.6-1.8-0.9c0.9-1,1.9-2,2.8-2.9C204.5,239.2,204.2,240.5,203.8,241.8z"/>
	</g>
</g>
</svg>
