<?xml version="1.0" encoding="iso-8859-1"?>
<!-- Generator: Adobe Illustrator 19.0.0, SVG Export Plug-In . SVG Version: 6.00 Build 0)  -->
<svg version="1.1" id="Capa_1" xmlns="http://www.w3.org/2000/svg" xmlns:xlink="http://www.w3.org/1999/xlink" x="0px" y="0px"
	 viewBox="0 0 480 480" style="enable-background:new 0 0 480 480;" xml:space="preserve">
<g>
	<polygon style="fill:#E9ECCF;" points="184.009,8 200.009,40 240.009,40 240.009,8 	"/>
	<polygon style="fill:#E9ECCF;" points="239.309,56 240.009,56 240.009,40 	"/>
</g>
<g>
	<polygon style="fill:#DADDA4;" points="296.009,8 240.009,8 240.009,40 240.009,56 272.009,56 	"/>
	<path style="fill:#DADDA4;" d="M322.609,208.6l-42.6-48.6h-40v208h66.6c3-2.2,6-4.8,8.8-7.4C358.209,320,361.409,253,322.609,208.6
		z"/>
</g>
<path style="fill:#E9ECCF;" d="M200.009,160l-42.6,48.6c-18.2,20.8-27.2,46.6-27.2,72.2c0,29.1,11.6,58.2,34.3,79.7
	c11.3,10.6,24.2,18.5,37.9,23.4h37.6v-16V160H200.009z"/>
<polygon style="fill:#D89868;" points="320.009,416 224.009,432 128.009,368 128.009,384 224.009,456 296.009,440 312.009,456 
	334.209,430.2 "/>
<polygon style="fill:#DFB28B;" points="320.009,416 334.209,430.2 360.009,400 328.009,368 240.009,368 240.009,384 200.009,384 
	160.009,368 128.009,368 224.009,432 "/>
<polygon style="fill:#FBF7ED;" points="350.609,446.6 376.909,416.9 360.009,400 334.209,430.2 "/>
<polygon style="fill:#E5E2D8;" points="334.209,430.2 312.009,456 328.009,472 350.609,446.6 "/>
<polygon style="fill:#A8C8CC;" points="328.009,472 376.009,472 350.609,446.6 "/>
<polygon style="fill:#BADDE2;" points="376.909,416.9 350.609,446.6 376.009,472 432.009,472 "/>
<g>
	<path style="fill:#76B82B;" d="M240.009,208c13.2,0,24,10.8,24,24h16c0-19.3-13.8-35.5-32-39.2V176h-16v16.8
		c-18.2,3.7-32,19.9-32,39.2c0,22.1,17.9,40,40,40c13.2,0,24,10.8,24,24s-10.8,24-24,24s-24-10.8-24-24h-16
		c0,19.3,13.8,35.5,32,39.2V352h16v-16.8c18.2-3.7,32-19.9,32-39.2c0-22.1-17.9-40-40-40c-13.2,0-24-10.8-24-24
		S226.809,208,240.009,208z"/>
	<rect x="168.009" y="256" style="fill:#76B82B;" width="16" height="16"/>
	<rect x="296.009" y="256" style="fill:#76B82B;" width="16" height="16"/>
</g>
<path style="fill:#D89868;" d="M280.009,408h-24c-13.2,0-24-10.8-24-24h16c0,4.4,3.6,8,8,8h24V408z"/>
<polygon style="fill:#DFB28B;" points="280.009,120 280.009,56 239.309,56 240.009,40 200.009,40 168.009,72 144.009,72 
	144.009,120 "/>
<polygon style="fill:#D89868;" points="280.009,56 280.009,120 144.009,120 144.009,160 304.009,160 304.009,56 "/>
<rect x="96.009" y="72" style="fill:#FBF7ED;" width="48" height="48"/>
<rect x="96.009" y="120" style="fill:#E5E2D8;" width="48" height="40"/>
<rect x="48.009" y="72" style="fill:#BADDE2;" width="48" height="48"/>
<rect x="48.009" y="120" style="fill:#A8C8CC;" width="48" height="40"/>
<path d="M437.709,466.3l-104-104c-1.5-1.5-3.5-2.3-5.7-2.3h-1c40.1-44,41.4-111.1,1.6-156.6l-31-35.4h6.4c4.4,0,8-3.6,8-8V56
	c0-4.4-3.6-8-8-8h-19.1l18.2-36.4c1.2-2.5,1.1-5.4-0.4-7.8s-4-3.8-6.8-3.8h-111.9c-2.8,0-5.3,1.4-6.8,3.8s-1.6,5.3-0.4,7.8
	l13.4,26.8l-25.5,25.6h-20.7h-96c-4.4,0-8,3.6-8,8v88c0,4.4,3.6,8,8,8h96h38.4l-31,35.4c-18.8,21.5-29.2,49.1-29.2,77.5
	c0,29.2,11.2,57.5,30.8,79.1h-25c-4.4,0-8,3.6-8,8v16c0,2.5,1.2,4.9,3.2,6.4l96,72c1.9,1.4,4.3,1.9,6.5,1.4l67.7-15l28.9,28.9
	c1.5,1.5,3.5,2.3,5.7,2.3h104c3.2,0,6.2-1.9,7.4-4.9C440.609,472.1,439.909,468.6,437.709,466.3z M283.109,16l-16,32h-19.4l0.3-7.6
	c0.1-2.2-0.7-4.3-2.2-5.9s-3.6-2.5-5.8-2.5h-35.1l-8-16H283.109z M56.009,80h80v72h-80V80z M152.009,80h16c2.1,0,4.2-0.8,5.7-2.3
	l29.6-29.7h28.3l-0.3,7.6c-0.1,2.2,0.7,4.3,2.2,5.9s3.6,2.5,5.8,2.5h32.7h24v88h-16h-80h-48V80z M163.509,213.9l40.2-45.9h72.7
	l40.2,45.9c36.1,41.3,33.2,103.1-6.6,140.8c-2.1,2-4.1,3.7-6,5.3h-64c-4.4,0-8,3.6-8,8v8h-28.1c-12.5-4.7-23.9-11.8-33.8-21.2
	c-20.2-19.2-31.8-46.1-31.8-73.9C138.209,256.3,147.209,232.5,163.509,213.9z M294.309,432.2l-68.4,15.2l-89.9-67.4v-4h22.5
	l38.6,15.4c0.9,0.4,2,0.6,3,0.6h2.5h31c3.3,9.3,12.1,16,22.5,16h24v-16h-24c-4.4,0-8-3.6-8-8v-8h58.6h18l24.4,24.4l-37.6,43.8
	l-9.9-9.9C299.709,432.4,296.909,431.6,294.309,432.2z M331.309,464l-8.4-8.4l37.6-43.8l52.2,52.2L331.309,464L331.309,464z"/>
<path d="M240.009,320c-13.2,0-24-10.8-24-24h-16c0,19.3,13.8,35.5,32,39.2V352h16v-16.8c18.2-3.7,32-19.9,32-39.2
	c0-22.1-17.9-40-40-40c-13.2,0-24-10.8-24-24s10.8-24,24-24c13.2,0,24,10.8,24,24h16c0-19.3-13.8-35.5-32-39.2V176h-16v16.8
	c-18.2,3.7-32,19.9-32,39.2c0,22.1,17.9,40,40,40c13.2,0,24,10.8,24,24S253.209,320,240.009,320z"/>
<rect x="168.009" y="256" width="16" height="16"/>
<rect x="296.009" y="256" width="16" height="16"/>
<g>
</g>
<g>
</g>
<g>
</g>
<g>
</g>
<g>
</g>
<g>
</g>
<g>
</g>
<g>
</g>
<g>
</g>
<g>
</g>
<g>
</g>
<g>
</g>
<g>
</g>
<g>
</g>
<g>
</g>
</svg>
