<?xml version="1.0" encoding="utf-8"?>
<!-- Generator: Adobe Illustrator 21.1.0, SVG Export Plug-In . SVG Version: 6.00 Build 0)  -->
<svg version="1.1" id="Layer_1" xmlns="http://www.w3.org/2000/svg" xmlns:xlink="http://www.w3.org/1999/xlink" x="0px" y="0px"
	 viewBox="0 0 512 512" style="enable-background:new 0 0 512 512;" xml:space="preserve">
<style type="text/css">
	.st0{fill:#62CBC5;}
	.st1{fill:#F7B95B;}
	.st2{fill:#F9B859;}
	.st3{fill:#FAB859;}
	.st4{fill:#D9716C;}
	.st5{fill:#DA716C;}
	.st6{fill:#DB706B;}
	.st7{fill:#B1DCD8;}
	.st8{fill:#D9726D;}
	.st9{fill:#616161;}
	.st10{fill:#D9716D;}
	.st11{fill:#D9726E;}
	.st12{fill:#636365;}
	.st13{fill:#595959;}
	.st14{fill:#F4FCFB;}
	.st15{fill:#AFDCD9;}
	.st16{fill:#B1DCD7;}
	.st17{fill:#68C8C0;}
	.st18{fill:#DA7551;}
</style>
<g id="vQpcbe.tif">
	<g>
		<path class="st0" d="M314.1,113.8c12.2-26,33.2-41.8,60.6-47.6c55.2-11.8,106.4,27.1,109.2,83.4c2.8,57.1-47,101.8-103.6,93.2
			c-15.3-2.3-28.6-8.8-41.3-17c-0.2-12.6-0.4-25.2-0.7-37.7c1.9-0.4,3.7-0.9,5.6-1.2c10.8-1.3,15.3-6.3,15.2-17.2
			c0-5.1-0.3-10.2-0.4-15.3c6.6,3.3,13.2,6.5,20.1,9.9c-4.9,11.1-9.2,21-13.6,30.9c0.6,0.7,1.2,1.4,1.8,2.1
			c11.6-3.2,17.2-15.8,27.8-20.9c9.7,8.4,19.2,16.7,28.7,25c0.5-0.4,1-0.7,1.5-1.1c-0.7-2.2-1.2-4.4-2.1-6.5
			c-3.5-7.7-6.8-15.5-10.8-23c-2.7-5.1-1.7-7.6,3.3-10.2c10.3-5.5,20.3-11.6,30.5-17.5c-0.2-0.5-0.4-1.1-0.6-1.6
			c-13.8,1.6-27.6,3.2-41.5,4.8c-3.3-12.7-6.4-24.4-9.4-36.2c-0.9,0.1-1.7,0.1-2.6,0.2c-2.4,11.9-4.9,23.8-7.4,36.3
			c-12.5-1.2-24.5-2.4-36.5-3.6c-4.6-5.5-9-11.3-13.9-16.5C328.5,120.5,324.6,111.8,314.1,113.8z"/>
		<path class="st1" d="M338.4,188c0.2,12.6,0.4,25.2,0.7,37.7c0,14.7,0,29.5,0,45.7c-6.5,0-12.9,0-19.3,0c0-21.8-0.1-43.7,0-65.5
			c0-5.2-0.9-7.4-7-6.4c-6.4,1-13.1,0.6-19.6,0.2c-5.5-0.4-7.1,1.6-7.1,7c0.3,21.6,0.2,43.2,0.3,64.8c-1.9,0.3-3.7,1-5.6,1
			c-33.5,0.2-67,0.1-100.6,0.5c-6,0.1-7.9-1.6-7.9-7.7c0.1-25.5-0.2-50.9-0.4-76.4c8.3-0.9,16-2.7,20.7-10.6
			c9.4,12.8,27.9,13.6,41.4,1.3c15.4,12.2,31.1,11.6,42.1-1.6c9.1,11.2,26.9,12.8,38.1,3.5c0.9-0.8,1.9-1.3,2.9-2
			C324.2,182.3,331.3,185.1,338.4,188z M223.7,233.1c3.3,0,6.7,0,10,0c9.2,0.1,18.4,0.4,27.5,0c1.6-0.1,4.4-2.9,4.5-4.5
			c0.5-8,0.4-16,0-23.9c-0.1-1.7-2.9-4.5-4.5-4.5c-9.2-0.3-18.3,0.1-27.5,0.3c-3.3,0.1-6.7,0.2-10,0.2c-9-0.2-17.9-0.8-26.9-0.5
			c-1.8,0.1-4.9,3.1-5.1,5c-0.6,7.7-0.6,15.5,0,23.3c0.1,1.8,3.2,4.7,5.1,4.8C205.7,233.6,214.7,233.2,223.7,233.1z"/>
		<path class="st2" d="M448.2,392.3c8.7,6.7,15.9,6.7,24.6-0.1c4.5,1.7,9,3.3,13.5,5c-0.1,14.6-0.5,29.1-0.3,43.7
			c0.1,5.5-1.4,7-6.9,7c-29.1-0.1-58.3,0.1-87.4,0.6c-5.4,0.1-5.5-3.1-5.6-6.4c-0.3-7.8-0.1-15.5-0.2-23.3
			c-0.1-6.8-0.2-13.6-0.3-20.4c4.3-1.5,8.7-3,13-4.4c8.2,5.2,16.5,4.7,24.7,0C431.8,397.1,440.2,397.7,448.2,392.3z"/>
		<path class="st3" d="M216.3,395.2c8.2,4.4,16.4,4.9,24.5-0.1c8.5,5.6,16.9,4.2,25.4-0.1c8.4,4.5,16.5,4.9,24.4-1.2
			c4.5,1.6,9,3.2,13.6,4.8c-0.1,14.3-0.6,28.5-0.3,42.8c0.1,6-1.6,7.8-7.7,7.8c-28.1-0.2-56.2-0.2-84.3,0.3
			c-6.7,0.1-8.3-2.5-8.3-8.4c0.1-13.8-0.1-27.6-0.2-41.4C207.6,398.2,212,396.7,216.3,395.2z"/>
		<path class="st2" d="M126,400c0,16.4,0,32.9,0,49.9c-2.5,0.3-4.4,0.7-6.2,0.7c-28.8,0.2-57.7,0.1-86.5,0.5c-5.7,0.1-6.9-2-6.9-7.1
			c0-14.3-0.5-28.6-0.7-42.8c4.2-1.9,8.5-3.9,12.7-5.8c7.8,7.6,16.2,5,24.7,1.4c1,0.1,1.9,0.1,2.9,0.2c7.6,6,14.8,5.5,20.6-1.4
			c0.5-0.1,1.1-0.2,1.6-0.3c9.2,6.5,15.7,6.5,24.5,0C117.1,396.8,121.5,398.4,126,400z"/>
		<path class="st4" d="M338.4,188c-7.1-2.9-14.2-5.7-21.3-8.6c3.9-20.3-6.7-36.4-15.2-53.1c-1.7-3.4-3.4-6.8-5.6-11
			c6.6-0.6,12.2-1.1,17.8-1.5c10.5-2,14.4,6.7,19.9,12.6c4.9,5.3,9.3,11,13.9,16.5c3.7,3.8,7.3,7.7,11,11.5
			c0.1,5.1,0.3,10.2,0.4,15.3c0.1,10.9-4.4,15.8-15.2,17.2C342.1,187.1,340.2,187.6,338.4,188z"/>
		<path class="st5" d="M192.6,178.2c-4.6,7.9-12.4,9.7-20.7,10.6c-3.6-0.6-7.3-0.8-10.7-2c-6.8-2.3-10.3-6.7-10.7-14.5
			c-0.5-9.8,2.1-17.5,8.9-24.8c7.8-8.2,14.6-17.4,21.5-26.5c3.2-4.2,6.8-6.2,12.3-5.7c6.2,0.5,12.5,0.1,19.9,0.1
			c-4.9,10.1-8.6,19.8-14,28.5C192.6,154.8,192.1,166.3,192.6,178.2z"/>
		<path class="st6" d="M276.1,178c-11,13.2-26.6,13.8-42.1,1.6c2-19.9,3.9-39.9,6.2-59.8c0.2-1.7,3.3-3,5.1-4.4c0.1-0.1,0.5,0,0.7,0
			c7.2,0.2,16.4-2.3,21.1,1.2c4.2,3.1,3.9,12.8,4.8,19.6C273.6,150.1,274.7,164,276.1,178z"/>
		<path class="st7" d="M286.4,271.5c-0.1-21.6,0-43.2-0.3-64.8c-0.1-5.4,1.6-7.4,7.1-7c6.5,0.4,13.2,0.9,19.6-0.2
			c6.1-1,7.1,1.1,7,6.4c-0.2,21.8,0,43.7,0,65.5C308.6,271.4,297.5,271.4,286.4,271.5z"/>
		<path class="st8" d="M216.3,395.2c-4.3,1.5-8.7,3-13,4.5c-13.1-2.4-16.7-12.6-8.1-23.1c2.9-3.6,6.3-6.8,8.6-10.7
			c5.4-9.3,13.1-12.1,23.8-9.1C223.7,369.4,212.9,380.4,216.3,395.2z"/>
		<path class="st4" d="M126,400c-4.4-1.6-8.9-3.2-13.3-4.8c2.8-14.5-7.2-25-11.7-37.2c10.3-3.4,14.7-2.2,21.4,5.6
			c4.1,4.8,7.8,9.9,12.1,14.4c4.7,5,4.3,11.2,2.2,16.2C135.4,397.1,129.7,398.1,126,400z"/>
		<path class="st4" d="M304.1,398.7c-4.5-1.6-9-3.2-13.6-4.8c2.6-14.4-7.4-24.9-12-37.2c9.2-2.6,16.9-2.5,22.4,6.4
			c3,4.9,7.2,9,10.9,13.5C319.9,386.2,316.3,396.6,304.1,398.7z"/>
		<path class="st4" d="M266.2,395.1c-8.4,4.3-16.9,5.7-25.4,0.1c1-10.8,2.4-21.6,2.8-32.4c0.3-6.4,3.2-7.7,8.7-7.1
			c2.6,0.3,5.3,0.1,9.7,0.1C263.5,369,264.8,382,266.2,395.1z"/>
		<path class="st9" d="M424.8,339.4c-3.1,0-5.6,0-9,0c0-9.5-0.2-18.7,0.1-27.8c0.2-4.7-1.6-7.6-5.2-10.3
			c-14.4-10.6-28.6-21.6-43.4-32.7c1.7-2.4,3.2-4.5,5.2-7.3c10.4,7.8,20.4,15.3,30.3,22.9c7.1,5.4,16.8,9.7,20.5,16.9
			c3.7,7.2,1.3,17.5,1.5,26.4C424.9,331.4,424.8,335.2,424.8,339.4z"/>
		<path class="st10" d="M486.2,397.2c-4.5-1.7-9-3.3-13.5-5c3-14.4-8-24.7-11.7-37.1c10.4-2.6,18.3-0.3,23.9,8.8
			c2.6,4.3,7.4,7.4,9.4,11.9c2.1,4.7,3.3,10.7,2.2,15.5C496,393.9,489.9,395.2,486.2,397.2z"/>
		<path class="st11" d="M398.5,393.8c-4.3,1.5-8.7,3-13,4.4c-12.9-2.4-16.6-12.3-8.4-22.5c3-3.8,6.2-7.4,9.2-11.2
			c8.7-11,8.6-11,23.8-9.5C405.6,367.8,395.6,379,398.5,393.8z"/>
		<path class="st11" d="M38.4,395.3c-4.3,1.9-8.5,3.9-12.7,5.8c-3.9-2-9.9-3.2-11.2-6.3c-2.2-5.2-2.5-11.8,2.8-16.8
			c3.3-3.2,6.5-6.7,8.7-10.7c5.4-9.6,13.4-11.6,23.9-9.4C46,370.3,35.7,380.9,38.4,395.3z"/>
		<path class="st8" d="M448.2,392.3c-8,5.4-16.4,4.8-25,1.5c1-10.8,2.2-21.6,2.7-32.4c0.3-5.8,2.6-7.7,8-7.1
			c2.8,0.3,5.7,0.1,10.5,0.1C445.7,367.1,447,379.7,448.2,392.3z"/>
		<path class="st12" d="M92.2,309.2c-0.1-1.4-0.1-2.9-0.2-4.3c0.6-1,1.1-2,1.7-3c13.8-12.8,27.7-25.6,42-38.9
			c2.3,2.3,4.2,4.1,6.6,6.5c-12.3,11.1-23.8,21.8-35.6,32.1c-4.1,3.6-6.3,7.2-5.9,13c0.6,8.9,0.2,17.9,0.2,27.4
			c-2.9,0.1-5.5,0.2-8.7,0.4c0-10.9,0-21.2,0-31.6C92.2,310.2,92.2,309.7,92.2,309.2z"/>
		<path class="st5" d="M88.2,395.2c-0.5,0.1-1.1,0.2-1.6,0.3c-6.9,0.5-13.7,1-20.6,1.4c-1-0.1-1.9-0.1-2.9-0.2
			c0.9-10.8,2.1-21.6,2.7-32.4c0.3-5.5,2.4-7.9,8.1-7.2c2.8,0.4,5.7,0.1,10.5,0.1C85.7,370,86.9,382.6,88.2,395.2z"/>
		<path class="st9" d="M262.4,286.2c0,18.4,0,36.2,0,54.4c-2.4,0-4.9,0-8.1,0c0-17.8,0-35.6,0-53.9
			C256.8,286.6,259.3,286.4,262.4,286.2z"/>
		<path class="st13" d="M93.7,301.9c-0.6,1-1.1,2-1.7,3C92.6,303.9,93.1,302.9,93.7,301.9z"/>
		<path class="st13" d="M92.2,309.2c0,0.5,0,1,0,1.5C92.2,310.2,92.2,309.7,92.2,309.2z"/>
		<path class="st14" d="M358.8,154.4c-3.7-3.8-7.3-7.7-11-11.5c12,1.2,24,2.4,36.5,3.6c2.6-12.5,5-24.4,7.4-36.3
			c0.9-0.1,1.7-0.1,2.6-0.2c3.1,11.8,6.1,23.6,9.4,36.2c13.9-1.6,27.7-3.2,41.5-4.8c0.2,0.5,0.4,1.1,0.6,1.6
			c-10.1,5.9-20.1,12-30.5,17.5c-5,2.6-6,5.1-3.3,10.2c4,7.4,7.3,15.3,10.8,23c0.9,2.1,1.4,4.3,2.1,6.5c-0.5,0.4-1,0.7-1.5,1.1
			c-9.5-8.3-19-16.5-28.7-25c-10.6,5.1-16.2,17.7-27.8,20.9c-0.6-0.7-1.2-1.4-1.8-2.1c4.3-9.9,8.7-19.7,13.6-30.9
			C372,160.9,365.4,157.7,358.8,154.4z"/>
		<path class="st15" d="M233.7,200.5c9.2-0.2,18.3-0.6,27.5-0.3c1.6,0,4.4,2.9,4.5,4.5c0.5,8,0.5,16,0,23.9
			c-0.1,1.7-2.8,4.4-4.5,4.5c-9.2,0.4-18.4,0-27.5,0C233.7,222.2,233.7,211.3,233.7,200.5z"/>
		<path class="st16" d="M223.7,233.1c-9,0.1-18,0.5-26.9,0.2c-1.8-0.1-4.9-3-5.1-4.8c-0.6-7.7-0.6-15.5,0-23.3c0.1-1.9,3.3-5,5.1-5
			c8.9-0.3,17.9,0.3,26.9,0.5C223.6,211.5,223.7,222.3,223.7,233.1z"/>
		<path class="st17" d="M223.7,233.1c0-10.8,0-21.6,0-32.4c3.3-0.1,6.7-0.2,10-0.2c0,10.9,0,21.7,0,32.6
			C230.4,233.1,227,233.1,223.7,233.1z"/>
		<path class="st18" d="M66,396.9c6.9-0.5,13.7-1,20.6-1.4C80.8,402.4,73.5,402.9,66,396.9z"/>
	</g>
</g>
</svg>
