<?xml version="1.0" encoding="utf-8"?>
<!-- Generator: Adobe Illustrator 21.1.0, SVG Export Plug-In . SVG Version: 6.00 Build 0)  -->
<svg version="1.1" id="Layer_1" xmlns="http://www.w3.org/2000/svg" xmlns:xlink="http://www.w3.org/1999/xlink" x="0px" y="0px"
	 viewBox="0 0 512 512" style="enable-background:new 0 0 512 512;" xml:space="preserve">
<style type="text/css">
	.st0{fill:#788E9A;}
	.st1{fill:#8EA2AC;}
	.st2{fill:#4EC0F4;}
	.st3{fill:#0399E2;}
	.st4{fill:#E9ECEE;}
	.st5{fill:#F27E16;}
	.st6{fill:#F6A624;}
	.st7{fill:#CCD6DA;}
	.st8{fill:#EFA72C;}
	.st9{fill:#CDD6DA;}
	.st10{fill:#EC6C00;}
	.st11{fill:#D64214;}
	.st12{fill:#788F9B;}
	.st13{fill:#556E7A;}
	.st14{fill:#F4A558;}
	.st15{fill:#F4B674;}
	.st16{fill:#C5CFD3;}
	.st17{fill:#E3E5E7;}
</style>
<g>
	<path class="st0" d="M513,481c0,10.7,0,21.3,0,32c-85.3,0-170.7,0-256,0c0-10.6,0-21.2,0-31.8c5.1-0.1,10.3-0.1,15.4-0.2
		c42.9-0.1,85.7-0.1,128.6-0.2c16,0,32,0,48,0c10.7,0,21.3,0,32,0C491.7,480.9,502.3,480.9,513,481z"/>
	<path class="st1" d="M257,481.2c0,10.6,0,21.2,0,31.8c-85.3,0-170.7,0-256,0c0-10.7,0-21.3,0-32c10.7,0,21.3-0.1,32-0.1
		c10.7,0,21.3,0,32,0c16,0,32,0,48,0c0.4,0,0.7,0,1.1,0c14.5,0.1,29,0.1,43.5,0.2C190.7,481.1,223.8,481.1,257,481.2z"/>
	<path class="st2" d="M1,192c0.9-1.5,2-3,2.8-4.6c14.2-28.3,28.4-56.6,42.4-85c2.1-4.3,4.5-5.5,9.1-5.5c19.2,0.3,38.3,0.2,57.5,0.2
		c-10.6,32-21.2,64-31.8,95.9c-26.6,0-53.3,0-79.9,0C1,192.7,1,192.3,1,192z"/>
	<path class="st2" d="M401.2,97.1c20.2,0,40.3,0,60.5-0.2c3.3,0,4.2,1.9,5.3,4.2c14.4,28.8,28.7,57.5,43.1,86.3
		c0.8,1.6,1.9,3.1,2.8,4.6c0,0.3,0,0.7,0,1c-26.6,0-53.1,0.1-79.7,0.1C422.6,161.1,411.9,129.1,401.2,97.1z"/>
	<path class="st3" d="M1,193c26.6,0,53.3,0,79.9,0c0,0,0.2-0.1,0.2-0.1c-0.1,5-0.3,10.1-0.4,15.1c-2.4,5.6-4.8,11.1-7.2,16.7
		c-2.9,2.9-5.9,5.9-8.8,8.8c-9.7,6.2-20.2,8.8-31.6,6.9c-15.7-4-26.1-13.6-31-29.1C2,210.9,1.4,210.5,1,210C1,204.3,1,198.7,1,193z"
		/>
	<path class="st3" d="M433.3,193.1c26.6,0,53.1-0.1,79.7-0.1c0,5.3,0,10.7,0,16c-2.5,5.1-4.4,10.6-7.5,15.3
		c-5.8,8.7-14.5,13.7-24.6,16.2c-11.5,2-21.9-0.6-31.6-6.9c-2.9-2.9-5.9-5.9-8.8-8.8c-2.3-5.6-4.6-11.2-6.9-16.8
		c-0.1-5-0.3-10-0.4-15L433.3,193.1z"/>
	<path class="st2" d="M166.3,97.1c21.2,0,42.5-0.1,63.7-0.1c-0.3,6.6-0.5,13.3-0.9,19.9c-1.4,25.4-2.8,50.7-4.2,76.1
		c-26.6,0-53.1,0-79.7,0l-0.5,0c0.6-2.4,1.3-4.8,1.8-7.2C153.2,156.2,159.7,126.7,166.3,97.1z"/>
	<path class="st2" d="M284,97c21.2,0,42.5,0.1,63.7,0.1c7.2,32,14.3,63.9,21.5,95.9c0,0-0.5,0-0.5,0c-26.5,0-53.1,0.1-79.6,0.1
		c-0.9-15.6-1.8-31.2-2.7-46.8C285.7,129.9,284.9,113.5,284,97z"/>
	<path class="st4" d="M166.3,97.1c-6.5,29.5-13.1,59.1-19.7,88.6c-0.5,2.4-1.2,4.8-1.8,7.2c-21.2,0-42.4,0-63.6-0.1
		c0,0-0.2,0.1-0.2,0.1c10.6-32,21.2-64,31.8-95.9C130.6,97.1,148.4,97.1,166.3,97.1z"/>
	<path class="st4" d="M369.3,193c-7.2-32-14.3-63.9-21.5-95.9c17.8,0,35.6,0,53.5,0c10.7,32,21.4,64,32.1,96c0,0-0.3-0.1-0.3-0.1
		C411.8,193,390.5,193,369.3,193z"/>
	<path class="st4" d="M284,97c0.8,16.4,1.6,32.9,2.5,49.3c0.8,15.6,1.8,31.2,2.7,46.8c0,0-0.2-0.1-0.2-0.1c-21.3,0-42.6,0-63.9-0.1
		l-0.2,0.1c1.4-25.4,2.8-50.7,4.2-76.1c0.4-6.6,0.6-13.3,0.9-19.9C248,97,266,97,284,97z"/>
	<path class="st5" d="M400,369.2c0.3,1.6,1,3.3,1,4.9c0.1,35.6,0,71.2,0,106.8c-42.9,0-85.7,0.1-128.6,0.2c-5.1,0-10.3,0.1-15.4,0.2
		c-33.1-0.1-66.3-0.1-99.4-0.2c-14.5,0-29-0.1-43.5-0.2c18.5-7.3,37-14.6,55.5-21.8c33.8-13.2,67.7-26.4,101.6-39.5
		c22.9-8.9,45.8-17.6,68.7-26.6C359.9,385.1,379.9,377.1,400,369.2z"/>
	<path class="st6" d="M449,480.8c0-80.2,0-160.5,0-240.7c0-2.2,0.1-4.3,0.2-6.5c9.7,6.2,20.2,8.8,31.6,6.9c0.1,2.2,0.2,4.3,0.2,6.5
		c0,78,0,155.9,0,233.9C470.3,480.8,459.7,480.8,449,480.8z"/>
	<path class="st6" d="M400,369.2c-20,7.9-40.1,15.9-60.1,23.7c-22.9,8.9-45.8,17.7-68.7,26.6c-33.9,13.1-67.7,26.3-101.6,39.5
		c-18.5,7.2-37,14.6-55.5,21.8c-0.4,0-0.7,0-1.1,0c0-37,0-74.1,0-111.9c10.8,0,21.4,0,31.9,0c10.7,0,21.4,0,32.1-0.1
		c26.7,0,53.3,0,80,0c10.7,0,21.3-0.1,32-0.1c13.3,0,26.7,0,40,0c13.3,0,26.7,0,40,0C379.3,368.9,389.7,369,400,369.2z"/>
	<path class="st6" d="M64.8,233.6c0.1,2,0.2,4,0.2,6c0,80.4,0,160.8,0,241.3c-10.7,0-21.3,0-32,0c0-78.3,0-156.6,0-234.9
		c0-1.8,0.1-3.7,0.2-5.5C44.6,242.4,55.1,239.9,64.8,233.6z"/>
	<path class="st7" d="M141,224.9c-11.4,19.8-37.7,20.8-50.9,6.7c-1.9-2-3.4-4.4-5.2-6.6c-1.4-5.6-2.8-11.2-4.2-16.8
		c0.1-5,0.3-10.1,0.4-15.1c21.2,0,42.4,0,63.6,0.1c0,0,0.5,0,0.5,0c0,5,0,10,0,15.1C143.8,213.7,142.4,219.3,141,224.9z"/>
	<path class="st8" d="M80.8,208.1c1.4,5.6,2.8,11.2,4.2,16.8c-3.8,0-7.6-0.1-11.4-0.1C76,219.2,78.4,213.6,80.8,208.1z"/>
	<path class="st9" d="M429.8,225c-5,6-10.2,11.7-18,14.3c-14,4.6-28.4,0.1-37-12c-0.6-0.8-1.2-1.6-1.8-2.3
		c-1.4-5.6-2.8-11.3-4.2-16.9c0-5,0-10,0.1-15c0,0,0.5,0,0.5,0c21.2,0,42.5,0,63.7,0c0.1,5,0.3,10,0.4,15
		C432.2,213.6,431,219.3,429.8,225z"/>
	<path class="st8" d="M429.8,225c1.2-5.7,2.5-11.3,3.7-17c2.3,5.6,4.6,11.2,6.9,16.8C436.9,224.9,433.3,224.9,429.8,225z"/>
	<path class="st3" d="M145.2,208.1c0-5,0-10,0-15.1c26.6,0,53.1,0,79.7,0c0,0,0.2-0.1,0.2-0.1c-0.1,5-0.3,10.1-0.4,15.1
		c-2.4,5.6-4.8,11.1-7.2,16.7c-6.1,7.2-13.3,13-22.8,15.1c-15.9,3.6-29.4-0.7-40.3-13c-0.7-0.7-1.4-1.4-2.1-2.1
		C150,219.2,147.6,213.6,145.2,208.1z"/>
	<path class="st3" d="M368.8,193c0,5,0,10-0.1,15c-2.4,5.6-4.8,11.2-7.2,16.7c-6.1,7.2-13.3,13-22.8,15.1
		c-15.9,3.6-29.4-0.7-40.3-13c-0.7-0.7-1.4-1.4-2.1-2.1c-2.3-5.6-4.7-11.2-7-16.8c-0.1-5-0.3-10-0.4-15c0,0,0.2,0.1,0.2,0.1
		C315.8,193.1,342.3,193,368.8,193z"/>
	<path class="st7" d="M289,193c0.1,5,0.3,10,0.4,15c-1.4,5.6-2.9,11.2-4.3,16.8c-9.1,13.8-22.1,19.2-37,15
		c-8.3-2.3-14.3-7.9-19.1-14.9c-1.4-5.6-2.8-11.2-4.2-16.9c0.1-5,0.3-10.1,0.4-15.1C246.4,193,267.7,193,289,193z"/>
	<path class="st10" d="M177,368.9c-10.7,0-21.4,0-32.1,0.1c0-21.1,0-42.2,0-63.6c26.7,0,53,0,80.2,0c0,10.5,0,21,0,31.6
		c-14.3,0-28.5,0.2-42.8,0c-3.9-0.1-5.6,0.8-5.4,5.1C177.2,351,177,360,177,368.9z"/>
	<path class="st11" d="M177,368.9c0-8.9,0.2-17.9-0.1-26.8c-0.2-4.4,1.5-5.2,5.4-5.1c14.2,0.2,28.5,0,42.8,0c10.4,0,20.9,0,31.9,0
		c0,10.9,0,21.4,0,32C230.4,368.9,203.7,368.9,177,368.9z"/>
	<path class="st12" d="M329,368.8c-13.3,0-26.7,0-40,0c0-5.8,0.2-11.7,0-17.5c-0.5-13.9,5.3-24,17.7-30.4c1.5-0.8,2.9-1.5,4.4-2.3
		c4.1,6.9,11.1,7.1,17.9,7.8c0,0.2,0,0.4,0.1,0.7C329,341,329,354.9,329,368.8z"/>
	<path class="st13" d="M329,368.8c0-13.9,0-27.8,0-41.7c6.5-1.7,14-1.4,18-8.5c12.5,5.7,21.7,13.9,22,28.9c0.1,7.1,0,14.2,0.1,21.3
		C355.7,368.8,342.3,368.8,329,368.8z"/>
	<path class="st14" d="M329,257.2c18.9-1,29.5,13.6,25.1,33.6c-1.1,5.2-4.1,10.2-7.2,14.6c-2.4,3.4-3.7,6.5-3,10.5
		c-3.7,5.3-9.5,5.7-15.2,6.3c-5.6-0.5-11.2-1.1-14.9-6.3c0.1-2,0.2-3.9,0.3-5.9c4.5,2.1,9.1,4.2,14.7,6.8
		C329,296,329,276.6,329,257.2z"/>
	<path class="st15" d="M329,257.2c0,19.4,0,38.9,0,59.7c-5.6-2.6-10.2-4.7-14.7-6.8c-3.5-6.5-8.4-12.7-10.2-19.6
		C299.8,274.7,307.2,256.5,329,257.2z"/>
	<path class="st16" d="M328.9,322.2c5.7-0.7,11.4-1.1,15.2-6.3c1,0.9,1.9,1.8,2.9,2.7c-4,7.1-11.4,6.8-18,8.5c0-0.2,0-0.4-0.1-0.7
		C328.9,325.1,328.9,323.6,328.9,322.2z"/>
	<path class="st8" d="M224.8,208.1c1.4,5.6,2.8,11.2,4.2,16.9c-3.8-0.1-7.6-0.1-11.4-0.2C220,219.2,222.4,213.6,224.8,208.1z"/>
	<path class="st8" d="M361.6,224.8c2.4-5.6,4.8-11.2,7.2-16.7c1.4,5.6,2.8,11.3,4.2,16.9C369.2,224.9,365.4,224.8,361.6,224.8z"/>
	<path class="st17" d="M328.9,322.2c0,1.4,0,2.8,0,4.2c-6.8-0.7-13.8-0.9-17.9-7.8c1-0.9,2-1.8,2.9-2.7
		C317.7,321.1,323.3,321.7,328.9,322.2z"/>
	<path class="st8" d="M145.2,208.1c2.4,5.6,4.8,11.1,7.2,16.7c-3.8,0-7.6,0-11.4,0.1C142.4,219.3,143.8,213.7,145.2,208.1z"/>
	<path class="st8" d="M285.1,224.8c1.4-5.6,2.9-11.2,4.3-16.8c2.3,5.6,4.7,11.2,7,16.8C292.6,224.8,288.9,224.8,285.1,224.8z"/>
</g>
</svg>
