<svg height="480pt" viewBox="0 0 480 480" width="480pt" xmlns="http://www.w3.org/2000/svg"><path d="m301.601562 464-21.601562-72h-80l-21.601562 72h-26.398438v16h176v-16zm0 0" fill="#d6d9db"/><path d="m448 72h-416c-13.253906 0-24 10.746094-24 24v248h464v-248c0-13.253906-10.746094-24-24-24zm0 0" fill="#126099"/><path d="m8 368c0 13.253906 10.746094 24 24 24h416c13.253906 0 24-10.746094 24-24v-24h-464zm0 0" fill="#d6d9db"/><path d="m400 8h-320c-13.253906 0-24 10.746094-24 24v312h368v-312c0-13.253906-10.746094-24-24-24zm0 0" fill="#4398d1"/><g fill="#3181bd"><path d="m80 32h16v16h-16zm0 0"/><path d="m112 32h16v16h-16zm0 0"/><path d="m144 32h16v16h-16zm0 0"/></g><path d="m312 272h64v32h-64zm0 0" fill="#ffc24f"/><path d="m296 208h64v32h-64zm0 0" fill="#ffc24f"/><path d="m296 144h64v32h-64zm0 0" fill="#ffc24f"/><path d="m312 240h64v32h-64zm0 0" fill="#ffa230"/><path d="m312 176h64v32h-64zm0 0" fill="#ffa230"/><path d="m304 112h64v32h-64zm0 0" fill="#ffa230"/><path d="m288 72h-16v-16h-16v16h-16v16h16v16h16v-16h16zm0 0" fill="#87ced9"/><path d="m289.601562 424-9.601562-32h-80l-9.601562 32zm0 0" fill="#c7cacc"/><path d="m274.34375 290.34375-10.34375-10.34375v-80c-.027344-38.652344-27.6875-71.757812-65.71875-78.65625l17.71875-41.34375h-64l17.71875 41.34375c-38.03125 6.898438-65.691406 40.003906-65.71875 78.65625v80l-10.34375 10.34375c-2.289062 2.289062-2.972656 5.730469-1.734375 8.71875s4.15625 4.9375 7.390625 4.9375h169.375c3.234375 0 6.152344-1.949219 7.390625-4.9375s.554687-6.429688-1.734375-8.71875zm0 0" fill="#ffc24f"/><path d="m264 280v-80c-.015625-3.667969-.28125-7.328125-.800781-10.960938-47.199219 74.960938-95.199219 98.960938-163.199219 114.960938h168.6875c3.234375 0 6.152344-1.949219 7.390625-4.9375s.554687-6.429688-1.734375-8.71875zm0 0" fill="#fdb62f"/><path d="m198.457031 206.296875-26.28125-4.375c-2.570312-.417969-4.386719-2.738281-4.179687-5.332031.210937-2.59375 2.378906-4.589844 4.980468-4.589844h35.023438v-16h-16v-16h-16v16h-3.007812c-10.933594-.015625-20.050782 8.363281-20.953126 19.261719-.898437 10.898437 6.714844 20.664062 17.503907 22.441406l26.28125 4.375c2.570312.417969 4.386719 2.738281 4.179687 5.332031-.210937 2.59375-2.378906 4.589844-4.980468 4.589844h-35.023438v16h16v16h16v-16h3.007812c10.933594.015625 20.050782-8.363281 20.953126-19.261719.898437-10.898437-6.714844-20.664062-17.503907-22.441406zm0 0" fill="#fd6d2f"/><path d="m56 328h368v16h-368zm0 0" fill="#3e8cc7"/><path d="m448 64h-16v-32c0-17.671875-14.328125-32-32-32h-320c-17.671875 0-32 14.328125-32 32v32h-16c-17.671875 0-32 14.328125-32 32v272c0 17.671875 14.328125 32 32 32h157.246094l-19.199219 64h-18.046875v16h176v-16h-18.046875l-19.199219-64h157.246094c17.671875 0 32-14.328125 32-32v-272c0-17.671875-14.328125-32-32-32zm-432 32c0-8.835938 7.164062-16 16-16h16v240h16v-288c0-8.835938 7.164062-16 16-16h320c8.835938 0 16 7.164062 16 16v288h16v-240h16c8.835938 0 16 7.164062 16 16v240h-448zm277.246094 368h-106.492188l19.199219-64h68.09375zm170.753906-96c0 8.835938-7.164062 16-16 16h-416c-8.835938 0-16-7.164062-16-16v-16h448zm0 0"/><path d="m80 32h16v16h-16zm0 0"/><path d="m112 32h16v16h-16zm0 0"/><path d="m144 32h16v16h-16zm0 0"/><path d="m272 276.6875v-76.6875c-.050781-38.480469-25.058594-72.484375-61.777344-84l13.210938-33.023438c.988281-2.464843.6875-5.261718-.804688-7.460937-1.488281-2.199219-3.972656-3.519531-6.628906-3.515625h-64c-2.65625 0-5.136719 1.316406-6.625 3.511719-1.488281 2.199219-1.792969 4.992187-.808594 7.457031l13.210938 33.03125c-36.71875 11.515625-61.726563 45.519531-61.777344 84v76.6875l-8 8c-4.574219 4.578125-5.941406 11.457031-3.46875 17.433594 2.476562 5.980468 8.308594 9.878906 14.78125 9.878906h169.375c6.472656 0 12.304688-3.898438 14.78125-9.878906 2.472656-5.976563 1.105469-12.855469-3.46875-17.433594zm-108.183594-188.6875h40.367188l-9.863282 24.65625c-6.851562-.875-13.789062-.875-20.640624 0zm104.871094 208h-169.375l10.34375-10.34375c1.5-1.5 2.34375-3.535156 2.34375-5.65625v-80c0-39.765625 32.234375-72 72-72s72 32.234375 72 72v80c0 2.121094.84375 4.15625 2.34375 5.65625l10.457031 10.34375zm0 0"/><path d="m376 168h-8v-16c4.417969 0 8-3.582031 8-8v-32c0-4.417969-3.582031-8-8-8h-64c-4.417969 0-8 3.582031-8 8v24c-4.417969 0-8 3.582031-8 8v32c0 4.417969 3.582031 8 8 8h8v16h-8c-4.417969 0-8 3.582031-8 8v32c0 4.417969 3.582031 8 8 8h8v56c0 4.417969 3.582031 8 8 8h64c4.417969 0 8-3.582031 8-8v-64c0-4.417969-3.582031-8-8-8h-8v-16h8c4.417969 0 8-3.582031 8-8v-32c0-4.417969-3.582031-8-8-8zm-24 0h-48v-16h48zm-40-48h48v16h-48zm56 128v16h-48v-16zm0 48h-48v-16h48zm-16-64h-48v-16h48zm16-32h-48v-16h48zm0 0"/><path d="m198.457031 206.296875-26.28125-4.375c-2.570312-.417969-4.386719-2.738281-4.179687-5.332031.210937-2.59375 2.378906-4.589844 4.980468-4.589844h35.023438v-16h-16v-16h-16v16h-3.007812c-10.933594-.015625-20.050782 8.363281-20.953126 19.261719-.898437 10.898437 6.714844 20.664062 17.503907 22.441406l26.28125 4.375c2.570312.417969 4.386719 2.738281 4.179687 5.332031-.210937 2.59375-2.378906 4.589844-4.980468 4.589844h-35.023438v16h16v16h16v-16h3.007812c10.933594.015625 20.050782-8.363281 20.953126-19.261719.898437-10.898437-6.714844-20.664062-17.503907-22.441406zm0 0"/><path d="m256 104h16v-16h16v-16h-16v-16h-16v16h-16v16h16zm0 0"/></svg>