<?xml version="1.0" encoding="utf-8"?>
<!-- Generator: Adobe Illustrator 21.1.0, SVG Export Plug-In . SVG Version: 6.00 Build 0)  -->
<svg version="1.1" id="Layer_1" xmlns="http://www.w3.org/2000/svg" xmlns:xlink="http://www.w3.org/1999/xlink" x="0px" y="0px"
	 viewBox="0 0 512 512" style="enable-background:new 0 0 512 512;" xml:space="preserve">
<style type="text/css">
	.st0{fill:#78DA96;}
	.st1{fill:#6ACE85;}
	.st2{fill:#FEE588;}
	.st3{fill:#FED84A;}
	.st4{fill:#5C5766;}
	.st5{fill:#514E5B;}
</style>
<path class="st0" d="M333.1,7.5H180.6c-15,0-27.2,12.2-27.2,27.2v47.8l103.5,19.1l103.5-19.1V34.7C360.3,19.7,348.1,7.5,333.1,7.5z"
	/>
<path class="st1" d="M183.3,82.5V34.7c0-15,12.2-27.2,27.2-27.2h-30c-15,0-27.2,12.2-27.2,27.2v47.8l103.5,19.1l15-2.8L183.3,82.5z"
	/>
<path class="st2" d="M441.1,226.9L441.1,226.9l-184.3-23.3L72.5,226.9v166l184.3,23.2l184.3-23.2v-0.1L441.1,226.9L441.1,226.9z"/>
<path class="st3" d="M102.5,392.9v-166l169.3-21.3l-15-1.9L72.5,226.9v166l184.3,23.2l15-1.9L102.5,392.9z"/>
<path class="st4" d="M400.8,149.2l-40.5-28.5l-103.5-19.1l-103.5,19.1l-40.5,28.5c-11.8,8.3-21.4,19.1-28.2,31.3l172.2,23.2
	L429,180.5C422.2,168.3,412.6,157.5,400.8,149.2z"/>
<path class="st5" d="M114.6,180.5c6.8-12.2,16.4-23,28.2-31.3l40.5-28.5l88.5-16.3l-15-2.8l-103.5,19.1l-40.5,28.5
	c-11.8,8.3-21.4,19.1-28.2,31.3l172.2,23.2l15-2L114.6,180.5z"/>
<path class="st4" d="M256.8,416.1L73.7,439.3c6.6,37.3,39.8,65.2,78.8,65.2h208.7c39,0,72.1-27.9,78.8-65.2L256.8,416.1z"/>
<path class="st5" d="M103.7,439.3L271.8,418l-15-1.9L73.7,439.3c6.6,37.3,39.8,65.2,78.8,65.2h30
	C143.5,504.5,110.4,476.6,103.7,439.3z"/>
<path class="st0" d="M441.1,226.9H72.5c0-16.5,4.3-32.4,12.1-46.4H429C436.9,194.5,441.1,210.4,441.1,226.9z"/>
<path class="st1" d="M84.6,180.5c-7.8,14-12.1,29.9-12.1,46.4h30c0-16.5,4.3-32.4,12.1-46.4H84.6z"/>
<path class="st0" d="M441.1,392.9v32.2c0,0.8,0,1.6,0,2.4c-0.1,4-0.5,7.9-1.2,11.8H73.7c-0.7-3.8-1.1-7.8-1.2-11.8
	c0-0.8,0-1.6,0-2.4v-32.2H441.1z"/>
<path class="st1" d="M102.5,425.1v-32.2h-30v32.2c0,0.8,0,1.6,0,2.4c0.1,4,0.5,7.9,1.2,11.8h30c-0.7-3.8-1.1-7.8-1.2-11.8
	C102.5,426.7,102.5,425.9,102.5,425.1z"/>
<path class="st2" d="M360.3,82.5h-207c-10.5,0-19.1,8.5-19.1,19.1s8.5,19.1,19.1,19.1h206.9c10.5,0,19.1-8.5,19.1-19.1
	C379.4,91.1,370.8,82.5,360.3,82.5z"/>
<path class="st3" d="M164.3,101.6c0-10.5,8.5-19.1,19.1-19.1h-30c-10.5,0-19.1,8.5-19.1,19.1s8.5,19.1,19.1,19.1h30
	C172.8,120.7,164.3,112.1,164.3,101.6z"/>
<path d="M66.3,440.6c3.5,19.8,14.1,37.9,29.8,51c15.8,13.1,35.8,20.4,56.3,20.4h208.7c20.5,0,40.5-7.2,56.3-20.4
	c15.7-13.1,26.3-31.2,29.8-51c0.9-5.1,1.3-10.3,1.3-15.5c0,0,0-198.6,0-198.8c-0.1-17.3-4.6-34.4-13.1-49.5
	c-7.5-13.3-18-25-30.4-33.8l-28.8-20.3c6.4-4.9,10.6-12.5,10.6-21.2c0-12.1-8.1-22.2-19.1-25.5V34.7C367.7,15.5,352.1,0,333,0H180.6
	c-19.2,0-34.7,15.6-34.7,34.7v41.4c-11,3.2-19.1,13.4-19.1,25.5c0,8.6,4.1,16.3,10.6,21.2l-28.8,20.3c-12.4,8.8-23,20.4-30.4,33.8
	c-8.5,15.3-13.1,32.6-13.1,50v198.2C65,430.3,65.4,435.5,66.3,440.6z M89.1,188h335.4c4.9,9.8,7.9,20.5,8.8,31.4h-353
	C81.3,208.5,84.3,197.8,89.1,188z M433.6,234.4v151H80v-151H433.6z M407.9,480.1C394.8,491,378.2,497,361.1,497H152.5
	c-17,0-33.6-6-46.7-16.9c-10.6-8.8-18.4-20.4-22.5-33.3h262.3c4.1,0,7.5-3.4,7.5-7.5c0-4-3.5-7.5-7.5-7.5H80.3
	c-0.9-10.4-0.3-21-0.3-31.4h353.6c0,10.4,0.6,21-0.3,31.4h-57.7c-3.8,0-7.1,3-7.5,6.7c-0.4,4.4,3.1,8.3,7.5,8.3h54.7
	C426.3,459.7,418.5,471.3,407.9,480.1z M153.3,90h52.3c4,0,7.5-3.4,7.5-7.5c0-4-3.4-7.5-7.5-7.5h-44.8V34.7
	c0-10.9,8.9-19.7,19.7-19.7H333c10.9,0,19.7,8.9,19.7,19.7V75H235.6c-4,0-7.5,3.4-7.5,7.5c0,4,3.5,7.5,7.5,7.5h124.7
	c6.4,0,11.6,5.2,11.6,11.6s-5.2,11.6-11.6,11.6h-207c-6.4,0-11.6-5.2-11.6-11.6S147,90,153.3,90z M117.1,155.3l38.6-27.2h202.2
	l38.6,27.2c7,4.9,13.2,10.9,18.5,17.7H98.6C103.9,166.2,110.1,160.3,117.1,155.3z"/>
<g>
	<path d="M221.6,251.4c-1.3,1.4-1.3,3.5,0,4.8c0.6,0.6,1.6,1,2.4,1c1,0,1.8-0.3,2.4-1c1.3-1.3,1.3-3.5,0-4.8
		C225.1,250.2,223.1,250.2,221.6,251.4z"/>
	<path d="M212.1,338.2c-1.3,1.3-1.3,3.5,0,4.8c0.6,0.6,1.6,1,2.4,1c1,0,1.8-0.3,2.4-1c1.3-1.3,1.3-3.5,0-4.8
		C215.4,336.9,213.3,336.9,212.1,338.2z"/>
	<path d="M212.1,261.2c-1.3,1.3-1.3,3.5,0,4.8c0.6,0.6,1.6,1,2.4,1c1,0,1.8-0.3,2.4-1c1.3-1.3,1.3-3.5,0-4.8
		C215.6,259.9,213.3,259.9,212.1,261.2z"/>
	<path d="M221.6,347.8c-1.3,1.3-1.3,3.5,0,4.8c0.6,0.6,1.6,1,2.4,1c1,0,1.8-0.3,2.4-1c1.3-1.3,1.3-3.5,0-4.8
		C225.1,346.5,222.9,346.5,221.6,347.8z"/>
	<path d="M240.8,357.6c-1.3,1.4-1.3,3.5,0,4.8c0.6,0.6,1.6,1,2.4,1c1,0,1.8-0.3,2.4-1.1c1.3-1.3,1.3-3.5,0-4.8
		C244.1,356.2,242.1,356.2,240.8,357.6z"/>
	<path d="M231.2,241.9c-1.3,1.4-1.3,3.5,0,4.8c0.6,0.6,1.4,1,2.4,1s1.8-0.3,2.4-1c1.3-1.3,1.3-3.5,0-4.8
		C234.7,240.6,232.6,240.6,231.2,241.9z"/>
	<path d="M231.2,357.3c-1.3,1.3-1.3,3.5,0,4.8c0.6,0.6,1.6,1,2.4,1c1,0,1.8-0.3,2.4-1c1.3-1.4,1.3-3.5,0-4.8
		C234.7,356.1,232.5,356.1,231.2,357.3z"/>
	<path d="M202.5,270.7c-1.3,1.3-1.3,3.5,0,4.8c0.6,0.6,1.4,1,2.4,1s1.8-0.3,2.4-1c1.3-1.3,1.3-3.5,0-4.8S203.9,269.5,202.5,270.7z"
		/>
	<path d="M183.2,309.3c-1.3,1.3-1.3,3.5,0,4.8c0.6,0.6,1.6,1,2.4,1c1,0,1.8-0.3,2.4-1c1.3-1.3,1.3-3.5,0-4.8
		C186.7,308.1,184.5,308.1,183.2,309.3z"/>
	<path d="M183.4,290c-1.3,1.4-1.3,3.5,0,4.8c0.6,0.6,1.6,1,2.4,1c0.8,0,1.8-0.3,2.4-1c1.3-1.3,1.3-3.5,0-4.8
		C186.9,288.8,184.6,288.8,183.4,290z"/>
	<path d="M173.8,299.8c-1.3,1.4-1.3,3.5,0,4.8c0.6,0.6,1.6,1,2.4,1c0.8,0,1.8-0.3,2.4-1c1.3-1.3,1.3-3.5,0-4.8
		C177.3,298.5,175.2,298.5,173.8,299.8z"/>
	<path d="M240.8,232.1c-1.3,1.4-1.3,3.5,0,4.8c0.6,0.6,1.6,1,2.4,1c1,0,1.8-0.3,2.4-1c1.3-1.3,1.3-3.5,0-4.8
		C244.3,230.9,242.2,230.9,240.8,232.1z"/>
	<path d="M192.8,319.1c-1.3,1.3-1.3,3.5,0,4.8c0.6,0.6,1.6,1,2.4,1c0.8,0,1.8-0.3,2.4-1c1.3-1.3,1.3-3.5,0-4.8
		C196.3,317.6,194.1,317.6,192.8,319.1z"/>
	<path d="M202.3,328.6c-1.3,1.3-1.3,3.5,0,4.8c0.6,0.6,1.6,1,2.4,1c0.8,0,1.8-0.3,2.4-1c1.3-1.3,1.3-3.5,0-4.8
		C205.9,327.3,203.8,327.3,202.3,328.6z"/>
	<path d="M192.9,280.5c-1.3,1.4-1.3,3.5,0,4.8c0.6,0.6,1.6,1,2.4,1c1,0,1.8-0.3,2.4-1c1.3-1.3,1.3-3.5,0-4.8
		C196.4,279.2,194.4,279.2,192.9,280.5z"/>
	<path d="M259.8,338.2c-1.3,1.3-1.3,3.5,0,4.8c0.6,0.6,1.4,1,2.4,1s1.8-0.3,2.4-1c1.3-1.3,1.3-3.5,0-4.8
		C263.1,336.8,261,336.8,259.8,338.2z"/>
	<path d="M307.1,289.4c-1.3,1.3-1.3,3.5,0,4.8c0.6,0.6,1.4,1,2.4,1s1.8-0.3,2.4-1c1.3-1.4,1.3-3.5,0-4.8
		C310.6,288.1,308.4,288.1,307.1,289.4z"/>
	<path d="M288.1,308.9c-1.3,1.4-1.3,3.5,0,4.8c0.6,0.6,1.4,1,2.4,1s1.8-0.3,2.4-1c1.3-1.4,1.3-3.5,0-4.8S289.4,307.6,288.1,308.9z"
		/>
	<path d="M297.5,299.3c-1.3,1.3-1.3,3.5,0,4.8c0.6,0.6,1.4,1,2.4,1s1.8-0.3,2.4-1c1.3-1.4,1.3-3.5,0-4.8
		C301.1,297.8,299,297.8,297.5,299.3z"/>
	<path d="M316.5,279.7c-1.3,1.4-1.3,3.5,0,4.8c0.6,0.6,1.4,1,2.4,1s1.8-0.3,2.4-1c1.3-1.4,1.3-3.5,0-4.8S317.8,278.4,316.5,279.7z"
		/>
	<circle cx="326.9" cy="244.6" r="3.3"/>
	<path d="M250.2,347.9c-1.3,1.4-1.3,3.5,0,4.8c0.6,0.6,1.4,1,2.4,1s1.8-0.3,2.4-1c1.3-1.4,1.3-3.5,0-4.8
		C253.7,346.5,251.5,346.5,250.2,347.9z"/>
	<circle cx="326.9" cy="271.7" r="3.3"/>
	<circle cx="326.9" cy="258.1" r="3.3"/>
	<path d="M269.2,328.5c-1.3,1.4-1.3,3.5,0,4.8c0.6,0.6,1.4,1,2.4,1s1.8-0.3,2.4-1c1.3-1.4,1.3-3.5,0-4.8
		C272.7,327,270.4,327,269.2,328.5z"/>
	<path d="M291,210.6c0-1.9-1.6-3.3-3.3-3.3c-1.9,0-3.3,1.6-3.3,3.3c0,1.9,1.4,3.3,3.3,3.3C289.4,214,291,212.4,291,210.6z"/>
	<path d="M250.3,222.6c-1.3,1.3-1.3,3.5,0,4.8c0.6,0.6,1.6,1,2.4,1c1,0,1.8-0.3,2.4-1c1.3-1.3,1.3-3.5,0-4.8
		C253.9,221.3,251.8,221.3,250.3,222.6z"/>
	<path d="M259.9,212.9c-1.3,1.4-1.3,3.5,0,4.8c0.6,0.6,1.6,1,2.4,1c1,0,1.8-0.3,2.4-1c1.3-1.3,1.3-3.5,0-4.8
		C263.4,211.6,261.3,211.6,259.9,212.9z"/>
	<path d="M273.9,207.1c-1.9,0-3.3,1.6-3.3,3.3c0,1.9,1.4,3.3,3.3,3.3s3.3-1.6,3.3-3.3C277.5,208.7,275.9,207.1,273.9,207.1z"/>
	<path d="M278.7,318.7c-1.3,1.3-1.3,3.5,0,4.8c0.6,0.6,1.4,1,2.4,1s1.8-0.3,2.4-1c1.3-1.3,1.3-3.5,0-4.8
		C282.1,317.3,280,317.3,278.7,318.7z"/>
	<path d="M356.6,181c-1.3-1.3-3.5-1.3-4.8,0l-12.6,12.6h-79.1l-99.5,100.3c-2.2,2.2-3.5,5.3-3.5,8.5s1.3,6.2,3.5,8.5l69.5,69.5
		c2.4,2.4,5.4,3.5,8.5,3.5c3,0,6.2-1.1,8.5-3.5l96.8-99.5v-82.4l12.6-12.6C357.8,184.5,357.8,182.4,356.6,181z M337.1,278.1
		l-94.9,97.4c-2.1,2.1-5.3,2.1-7.3,0L165.3,306c-1-1-1.6-2.2-1.6-3.7s0.5-2.7,1.6-3.7l97.4-98.2h69.5l-16.4,16.4
		c-2.7-1.8-5.9-2.9-9.4-2.9c-9.4,0-17.1,7.7-17.1,17.1c0,9.4,7.7,17.1,17.1,17.1c9.4,0,17.1-7.7,17.1-17.1c0-3.5-1.1-6.7-2.9-9.4
		l16.4-16.4L337.1,278.1L337.1,278.1z M316.7,231c0,5.6-4.6,10.2-10.2,10.2c-5.6,0-10.2-4.6-10.2-10.2c0-5.6,4.6-10.2,10.2-10.2
		c1.6,0,3,0.3,4.3,1l-6.7,6.7c-1.3,1.3-1.3,3.5,0,4.8c0.6,0.6,1.6,1,2.4,1s1.8-0.3,2.4-1l6.7-6.7C316.4,228,316.7,229.4,316.7,231z"
		/>
</g>
</svg>
