<?xml version="1.0" encoding="utf-8"?>
<!-- Generator: Adobe Illustrator 21.1.0, SVG Export Plug-In . SVG Version: 6.00 Build 0)  -->
<svg version="1.1" id="Layer_1" xmlns="http://www.w3.org/2000/svg" xmlns:xlink="http://www.w3.org/1999/xlink" x="0px" y="0px"
	 viewBox="0 0 480 480" style="enable-background:new 0 0 480 480;" xml:space="preserve">
<style type="text/css">
	.st0{fill:#1DB794;}
	.st1{fill:#FFA733;}
	.st2{fill:#FFB655;}
	.st3{fill:#FFC477;}
	.st4{fill:#FFEB99;}
	.st5{fill:#787680;}
	.st6{fill:#3E3D42;}
</style>
<path class="st0" d="M432,432V176c-22.1,0-40-17.9-40-40h-16c0,22.1-17.9,40-40,40s-40-17.9-40-40h-16c0,22.1-17.9,40-40,40
	s-40-17.9-40-40h-16c0,22.1-17.9,40-40,40s-40-17.9-40-40H88c0,22.1-17.9,40-40,40v256c0,4.4,3.6,8,8,8h368
	C428.4,440,432,436.4,432,432z M408,416H72V208h336V416z"/>
<path class="st1" d="M200,40h240V16c0-4.4-3.6-8-8-8H48c-4.4,0-8,3.6-8,8v24H200z"/>
<path class="st2" d="M384,136h88l-32-96h-80L384,136z"/>
<path class="st2" d="M96,136l24-96H40L8,136H96z"/>
<path class="st2" d="M200,40l-8,96h96l-8-96H200z"/>
<path class="st3" d="M120,40l-24,96h96l8-96H120z"/>
<path class="st3" d="M280,40l8,96h96l-24-96H280z"/>
<path class="st3" d="M240,176c22.1,0,40-17.9,40-40h-80C200,158.1,217.9,176,240,176z"/>
<path class="st2" d="M336,176c22.1,0,40-17.9,40-40h-80C296,158.1,313.9,176,336,176z"/>
<path class="st3" d="M432,176c22.1,0,40-17.9,40-40h-80C392,158.1,409.9,176,432,176z"/>
<path class="st2" d="M144,176c22.1,0,40-17.9,40-40h-80C104,158.1,121.9,176,144,176z"/>
<path class="st3" d="M88,136H8c0,22.1,17.9,40,40,40S88,158.1,88,136z"/>
<path class="st4" d="M72,416h336V208H72V416z M240,240c39.8,0,72,32.2,72,72s-32.2,72-72,72s-72-32.2-72-72S200.2,240,240,240z"/>
<path class="st5" d="M8,440v32h464v-32H8z"/>
<path class="st2" d="M312,312c0,39.8-32.2,72-72,72s-72-32.2-72-72s32.2-72,72-72S312,272.2,312,312z"/>
<g>
	<path class="st6" d="M408,200H72c-4.4,0-8,3.6-8,8v208c0,4.4,3.6,8,8,8h336c4.4,0,8-3.6,8-8V208C416,203.6,412.4,200,408,200z
		 M400,408H80V216h320V408z"/>
	<path class="st6" d="M472,432h-32V183.3c23.1-3.9,40-23.9,40-47.3c0-0.1,0-0.1,0-0.2c0-0.8-0.1-1.6-0.4-2.3L448,38.7V16
		c0-8.8-7.2-16-16-16H48c-8.8,0-16,7.2-16,16v22.7L0.4,133.5c-0.2,0.8-0.4,1.5-0.4,2.3v0.2c0,23.4,16.9,43.4,40,47.3V432H8
		c-4.4,0-8,3.6-8,8v32c0,4.4,3.6,8,8,8h464c4.4,0,8-3.6,8-8v-32C480,435.6,476.4,432,472,432z M432,168c-14.6,0-27.3-9.9-31-24h62
		C459.3,158.1,446.6,168,432,168z M295.4,128l-5-60l-1.7-20h65.1l20,80H295.4L295.4,128z M272.6,48l5,60l1.7,20h-78.6l1.7-20l5-60
		H272.6z M189.6,68l-5,60h-78.4l20-80h65.1L189.6,68z M175,144c-3.6,14.1-16.4,24-31,24s-27.4-9.9-31-24H175z M271,144
		c-3.6,14.1-16.4,24-31,24s-27.4-9.9-31-24H271z M367,144c-3.6,14.1-16.4,24-31,24s-27.4-9.9-31-24H367z M392,128h-1.8l-20-80h64
		l26.7,80H392z M48,16h384v16H48V16z M45.8,48h64l-20,80H19.1L45.8,48z M17,144h62c-3.6,14.1-16.4,24-31,24S20.6,158.1,17,144z
		 M56,183.3c20.1-3.4,35.8-19.2,39.3-39.3h1.4c3.9,23.1,23.9,40,47.3,40s43.4-16.9,47.3-40h1.4c3.9,23.1,23.9,40,47.3,40
		s43.4-16.9,47.3-40h1.4c3.9,23.1,23.9,40,47.3,40s43.4-16.9,47.3-40h1.4c3.4,20.1,19.2,35.8,39.3,39.3V432H56V183.3z M464,464H16
		v-16h448V464z"/>
	<path class="st6" d="M240,392c44.2,0,80-35.8,80-80s-35.8-80-80-80s-80,35.8-80,80C160,356.2,195.8,392,240,392z M240,248
		c35.3,0,64,28.7,64,64s-28.7,64-64,64s-64-28.7-64-64C176,276.7,204.7,248,240,248z"/>
	<path d="M254.5,307.3l-26.3-4.4c-2.6-0.4-4.4-2.7-4.2-5.3c0.2-2.6,2.4-4.6,5-4.6h35v-16h-16v-16h-16v16h-3
		c-10.9,0-20.1,8.4-21,19.3c-0.9,10.9,6.7,20.7,17.5,22.4l26.3,4.4c2.6,0.4,4.4,2.7,4.2,5.3c-0.2,2.6-2.4,4.6-5,4.6h-35v16h16v16h16
		v-16h3c10.9,0,20.1-8.4,21-19.3C272.9,318.8,265.2,309.1,254.5,307.3z"/>
</g>
</svg>
