<?xml version="1.0" encoding="utf-8"?>
<!-- Generator: Adobe Illustrator 21.1.0, SVG Export Plug-In . SVG Version: 6.00 Build 0)  -->
<svg version="1.1" id="Layer_1" xmlns="http://www.w3.org/2000/svg" xmlns:xlink="http://www.w3.org/1999/xlink" x="0px" y="0px"
	 viewBox="0 0 847.5 323.5" style="enable-background:new 0 0 847.5 323.5;" xml:space="preserve">
<g>
	<g>
		<path style="fill:#A51371;" d="M177.8,170.8c-6.6-2.4-13.1-4.9-19.7-7.4l-19.3-8.3l-38.6-16.6L61.6,122l-19.3-8.3
			c-6.3-3.1-12.6-6.1-18.9-9.2c6.6,2.4,13.1,4.9,19.7,7.4l19.3,8.3l38.6,16.6l38.6,16.6l19.3,8.3
			C165.2,164.6,171.5,167.6,177.8,170.8z"/>
	</g>
	<g>
		<path style="fill:#A51371;" d="M201.4,212.9c-6.6-2.4-13.1-4.9-19.7-7.4l-19.3-8.3l-38.6-16.6l-38.6-16.6l-19.3-8.3
			c-6.3-3.1-12.6-6.1-18.9-9.2c6.6,2.4,13.1,4.9,19.7,7.4l19.3,8.3l38.6,16.6l38.6,16.6l19.3,8.3
			C188.8,206.7,195.2,209.7,201.4,212.9z"/>
	</g>
	<g>
		<path style="fill:#A51371;" d="M235.7,260.3c-6.6-2.4-13.1-4.9-19.7-7.4l-19.3-8.3l-38.6-16.6l-38.6-16.6l-19.3-8.3
			c-6.3-3.1-12.6-6.1-18.9-9.2c6.6,2.4,13.1,4.9,19.7,7.4l19.3,8.3l38.6,16.6l38.6,16.6l19.3,8.3
			C223.1,254.1,229.4,257.1,235.7,260.3z"/>
	</g>
	<g>
	</g>
	<g>
		<path style="fill:#155277;" d="M126,122.8c0-7.5,0-14.5,0-22c1.8,2.3,3.1,4.3,4.7,6c5.6,5.9,12.6,9.7,20.1,12.5
			c23,8.6,46,17,69.1,25.4c22.8,8.2,45.7,16.2,68.4,24.6c9.7,3.6,15,11.1,16.3,21.3c0.4,3.2,0.4,6.5,0.4,9.7c0,29.4,0,58.9-0.1,88.3
			c0,4.7,0,9.4-0.2,14.1c-0.2,4.5-1.8,8.4-5.8,10.9c-2.2,1.4-4.6,1.6-7.2,0.8c-48.4-16.1-96.8-32.1-145.2-48.2
			c-5.5-1.8-10.3-5-14.7-8.7c-4.4-3.6-6.2-8.5-5.7-13.9c0.5-4.9-1.4-7.2-5.9-8.6c-4.9-1.5-8.5-4.8-10.3-9.8
			c-0.8-2.3-1.3-4.7,0.9-6.5c2.1-1.8,4.5-1.6,6.8-0.6c7.6,3.3,15.3,6.5,22.9,9.8c31.5,13.4,63.1,26.9,94.6,40.3
			c1.7,0.7,3.8,1.1,5.7,1.1c3.4-0.1,5.4-2.8,4.7-6.2c-1.2-6.2-5.4-9.8-10.8-12.1c-19.8-8.4-39.6-16.9-59.4-25.3
			c-24.5-10.4-48.9-20.8-73.4-31.2c-18.1-7.7-36.3-15.4-54.5-23c-4.7-2-8.3-5-10-9.9c-0.7-2.1-1-4.4,0.8-6.2c1.8-1.8,4.1-2,6.3-1.1
			c7,2.8,14,5.8,20.9,8.7c9.8,4.2,19.5,8.6,29.3,12.8c36,15.3,72,30.6,108,45.9c2.1,0.9,4.5,1.6,6.7,1.7c3.2,0.1,5.4-2.7,4.9-6
			c-1-5.9-4.8-9.7-10-12c-8-3.5-16-6.8-24-10.2c-36.6-15.5-73.1-31.1-109.7-46.6c-13.8-5.9-27.5-11.8-41.3-17.6
			c-3.1-1.3-5.9-3.1-7.9-5.9c-0.9-1.3-1.7-2.7-2.2-4.2c-0.8-2.1-1-4.3,0.8-6.1c1.8-1.7,4-1.8,6.2-1c3.7,1.3,7.3,2.8,10.9,4.4
			c14.9,6.4,29.7,12.8,44.5,19.1c31,13.2,62,26.4,93,39.5c1.1,0.5,2.3,0.8,3.4,1.2c2.3,0.7,4.6,0.5,6.3-1.4c1.7-1.9,1.6-4.2,0.8-6.4
			c-1.7-5-5.3-8.2-10-10.2c-13.8-5.9-27.5-11.7-41.3-17.6c-30.6-13-61.2-26-91.7-39c-6.9-3-13.9-5.8-20.8-8.9
			c-4.3-1.9-7.4-5.3-8.6-10c-1.2-4.6,2.1-8.1,6.6-6.6c5.9,2.1,11.7,4.6,17.4,7c28.9,12.3,57.8,24.6,86.7,36.9
			C124.1,122.2,124.8,122.4,126,122.8z M256.6,222.5c-6.2,0-9.4,4.5-7.4,9.6c1.8,4.4,7.1,7.5,11.7,6.8c5-0.7,7.5-5.1,5.4-9.7
			C264.4,224.9,260.8,222.9,256.6,222.5z"/>
		<path style="fill:#00BC20;" d="M187.9,124.6c5.1-1.6,9.5-3.1,13.9-4.5c36.7-11.7,73.4-23.5,110-35.2c0.9-0.3,1.9-0.7,2.5-1.4
			c0.5-0.6,0.5-1.7,0.7-2.6c-0.9-0.2-1.9-0.7-2.6-0.4c-10,3.1-19.9,6.3-29.8,9.4c-33.1,10.5-66.2,21.1-99.3,31.6
			c-1.2,0.4-2.9,0.4-4.1-0.1c-11.2-4.3-22.4-8.5-33.5-13.2c-3.6-1.5-6.7-4-9.9-6.3c-10.3-7.5-9.3-23.7-3.9-30.8
			c2.5-3.3,5.9-5.4,9.8-6.7c30.4-9.8,60.8-19.6,91.2-29.4c26.2-8.5,52.4-17,78.7-25.5c2.5-0.8,5.1-1.5,7.8-0.6c3.2,1,5,3.2,5.3,6.6
			c0.1,0.9,0,1.8,0,2.7c0,40.1-0.1,80.2,0.1,120.3c0.1,8.8-6.2,15-11.9,17c-6.3,2.2-12.7,4.4-19.1,6.4c-1.1,0.3-2.6-0.1-3.8-0.5
			c-12.7-4.5-25.5-9-38.2-13.6c-20.5-7.4-40.9-14.8-61.4-22.1C189.7,125.4,189.2,125.2,187.9,124.6z M313,47.8
			c-0.6,0.2-1.5,0.4-2.4,0.7c-33.1,10.6-66.2,21.1-99.3,31.7c-16.9,5.4-33.8,10.8-50.7,16.2c-2.6,0.8-4.1,2.4-3.4,3.7
			c1.2,2.3,3.1,0.8,4.6,0.4c27.6-8.8,55.2-17.6,82.9-26.5c22.1-7.1,44.2-14.1,66.2-21.2c1.4-0.5,2.9-1.3,3.9-2.4
			C316,49.2,315,47.8,313,47.8z"/>
	</g>
</g>
<g>
	<path style="fill:#00BC20;" d="M339.7,132.3H354v87.9h-14.3V132.3z M365,132.3c3.7,0,7.4,0.6,11.1,1.8c3.7,1.2,6.9,3,9.8,5.4
		c2.9,2.4,5.2,5.3,7,8.6c1.8,3.4,2.7,7.2,2.7,11.4c0,4.5-0.8,8.5-2.3,12.1c-1.5,3.6-3.6,6.7-6.3,9.1c-2.7,2.5-6,4.4-9.8,5.7
		c-3.8,1.4-8,2-12.6,2h-5.7V178h8.2c1.7,0,3.5-0.3,5.2-0.9c1.7-0.6,3.3-1.6,4.7-2.9c1.4-1.4,2.6-3.2,3.5-5.7c0.9-2.4,1.3-5.4,1.3-9
		c0-1.4-0.2-3.1-0.6-4.9c-0.4-1.9-1.2-3.7-2.4-5.4c-1.2-1.7-3-3.1-5.2-4.3c-2.2-1.2-5.2-1.7-8.8-1.7h-5.8v-10.8H365z"/>
	<path style="fill:#00BC20;" d="M429,199.9c0,3.6,0.7,6.2,2.2,8c1.5,1.7,3.6,2.8,6.4,3.1v9.7c-0.3,0.1-0.8,0.1-1.5,0.1
		c-2.7,0-5.3-0.4-7.8-1.1c-2.5-0.7-4.7-1.9-6.6-3.5c-1.9-1.6-3.4-3.7-4.5-6.3c-1.1-2.6-1.6-5.8-1.6-9.7c0-3.7,0.8-6.8,2.3-9.5
		c1.5-2.7,3.5-4.8,6-6.6c2.4-1.7,5.2-3,8.3-3.8c3.1-0.8,6.2-1.3,9.4-1.3h5.2v8.5h-2.6c-1.6,0-3.3,0.2-5,0.5
		c-1.7,0.3-3.4,0.9-4.9,1.8c-1.5,0.9-2.8,2.1-3.8,3.8C429.5,195.3,429,197.4,429,199.9z M466.1,200.3c0,0.6,0,1.6,0.1,2.8
		c0.1,1.2,0.2,2.5,0.5,3.8c0.2,1.3,0.6,2.4,1.1,3.5c0.5,1,1.2,1.7,2.1,2l-3.8,8c-1,0-2.1-0.2-3.3-0.7c-1.2-0.5-2.3-1.2-3.3-2
		c-1.1-0.9-2-1.8-2.7-2.9c-0.8-1.1-1.3-2.2-1.7-3.5c-0.8,2-2.4,3.8-4.7,5.3c-2.3,1.5-4.9,2.7-7.8,3.4v-9.1c1.9-0.4,3.6-1.2,5.2-2.3
		c1.5-1.2,2.9-2.5,4-4.1v-25.2c0-3.9-0.2-7-0.6-9.3c-0.4-2.3-1.1-4-2-5.1c-1-1.1-2.1-1.7-3.5-2c-1.4-0.3-3-0.4-4.9-0.4
		c-1.7,0-3.4,0.2-4.9,0.7c-1.5,0.4-3,1-4.3,1.5c-1.3,0.6-2.5,1.3-3.5,2c-1,0.7-1.7,1.3-2.2,1.7l-5.4-8.2c0.8-0.9,2-1.8,3.6-2.7
		c1.6-0.9,3.4-1.7,5.5-2.4c2.1-0.7,4.3-1.3,6.7-1.7c2.4-0.4,4.9-0.7,7.6-0.7c2.4,0,4.7,0.2,7,0.7s4.3,1.3,6.2,2.4
		c1.9,1.1,3.5,2.6,4.9,4.5c1.4,1.9,2.4,4.2,2.9,7c0.6,2.8,0.9,5.6,1.1,8.4c0.2,2.8,0.3,5.6,0.3,8.4v15.5V200.3z"/>
	<path style="fill:#00BC20;" d="M518.8,213.9l-25-60.9h14.4l17.2,45.2l-1.7,4.1L518.8,213.9z M559.8,153c-4.4,11.7-8.3,22-11.7,31.1
		c-3.4,9-6.4,16.9-8.9,23.7c-2.5,6.8-4.8,12.5-6.7,17.2c-1.9,4.7-3.7,8.6-5.4,11.7c-1.6,3.1-3.2,5.6-4.6,7.4
		c-1.4,1.8-2.9,3.2-4.4,4.1c-1.5,1-3.2,1.5-4.9,1.7c-1.8,0.2-3.8,0.3-6.1,0.3c-0.7,0-1.5-0.1-2.5-0.3c-1-0.2-1.9-0.4-2.8-0.7
		c-0.9-0.3-1.7-0.6-2.4-0.8c-0.7-0.3-1.2-0.5-1.4-0.5c0.3-1.4,0.6-2.8,1-4.1c0.2-1.1,0.5-2.2,0.8-3.2c0.3-1,0.5-1.7,0.7-2.1
		c0.6,0,1.6,0.2,2.9,0.6c1.3,0.4,2.3,0.6,2.9,0.6c1.3,0,2.4-0.1,3.4-0.2c1-0.1,1.9-0.5,2.7-1.1c0.8-0.6,1.5-1.5,2.3-2.6
		c0.7-1.2,1.5-2.8,2.4-4.9l4.5-10.7l24-67.2H559.8z"/>
</g>
<polygon style="fill:#00BC20;" points="571.1,142.3 524.1,263.3 529.2,258.8 574.6,142.3 574.6,132.8 "/>
<polygon style="fill:#155277;" points="600.5,100.4 561.2,201.6 565.4,197.8 603.4,100.4 603.4,92.5 "/>
<g>
	<path style="fill:#155277;" d="M617.5,144.3c2.5,1,4.6,2.7,6.6,5l9.9-8.8c-3.3-3.2-7-5.6-11.1-7.2c-4.1-1.6-8.6-2.4-13.3-2.4h-0.1
		v11.8h0.5C612.5,142.7,615,143.2,617.5,144.3z"/>
	<path style="fill:#155277;" d="M609.4,184.7h14.9v21.7c-0.6,0.9-1.6,1.5-2.9,2c-1.3,0.5-2.7,0.9-4.2,1.1c-1.5,0.3-2.9,0.5-4.3,0.6
		c-1.4,0.1-2.6,0.2-3.5,0.2v10.5h0.1c2.6,0,5.3-0.2,7.9-0.6c2.7-0.4,5.2-1.1,7.7-2s4.9-2.2,7.2-3.6c2.3-1.5,4.3-3.4,6.1-5.7v-34
		h-29.1V184.7z"/>
	<path style="fill:#155277;" d="M573.7,186.4c0.4,2.7,0.9,5.3,1.6,7.6c1.6,5.3,3.8,9.8,6.6,13.5c2.8,3.7,6.1,6.7,10,8.9
		c3.9,2.2,8.1,3.6,12.6,4.1v-10.8c-2.4-0.6-4.6-1.8-6.6-3.5c-2-1.7-3.8-3.9-5.4-6.7c-1.5-2.8-2.8-6.2-3.6-10.1
		c-0.9-3.9-1.4-8.4-1.4-13.6c0.1-5.2,0.6-9.6,1.4-13.4c0.9-3.8,2.1-7,3.6-9.7c1.5-2.7,3.3-4.7,5.4-6.3c2-1.5,4.2-2.6,6.6-3.2v-11.9
		c-3.6,0.4-7.1,1.4-10.3,2.9L573.7,186.4z"/>
</g>
<g>
	<path style="fill:#155277;" d="M675.2,213.9l-25-60.9h14.4l17.2,45.2l-1.7,4.1L675.2,213.9z M716.2,153c-4.4,11.7-8.3,22-11.7,31.1
		c-3.4,9-6.4,16.9-8.9,23.7c-2.5,6.8-4.8,12.5-6.7,17.2c-1.9,4.7-3.7,8.6-5.4,11.7c-1.6,3.1-3.2,5.6-4.6,7.4s-2.9,3.2-4.4,4.1
		c-1.5,1-3.2,1.5-4.9,1.7c-1.8,0.2-3.8,0.3-6.1,0.3c-0.7,0-1.5-0.1-2.5-0.3c-1-0.2-1.9-0.4-2.8-0.7c-0.9-0.3-1.7-0.6-2.4-0.8
		c-0.7-0.3-1.2-0.5-1.4-0.5c0.3-1.4,0.6-2.8,1-4.1c0.2-1.1,0.5-2.2,0.8-3.2c0.3-1,0.5-1.7,0.7-2.1c0.6,0,1.6,0.2,2.9,0.6
		c1.3,0.4,2.3,0.6,2.9,0.6c1.3,0,2.4-0.1,3.4-0.2c1-0.1,1.9-0.5,2.7-1.1c0.8-0.6,1.5-1.5,2.3-2.6c0.7-1.2,1.5-2.8,2.4-4.9l4.5-10.7
		l24-67.2H716.2z"/>
	<path style="fill:#155277;" d="M766.3,137.6c-1.6,0-2.9,0.4-4,1.2c-1.1,0.8-2,1.9-2.7,3.3c-0.7,1.4-1.2,3.1-1.5,4.9
		c-0.3,1.9-0.5,3.8-0.6,5.9h10.4v9.8h-10.6v5.7v51.7h-14.5v-51.7v-5.7h-8.8V153h9.1c0.2-3.4,0.7-6.7,1.4-9.8
		c0.7-3.1,1.8-5.9,3.4-8.2c1.5-2.3,3.7-4.2,6.3-5.7c2.7-1.4,6-2.1,10.1-2.1c1.2,0,2.5,0.1,3.8,0.3c1.3,0.2,2.7,0.4,4,0.7
		c1.3,0.3,2.5,0.6,3.6,1c1.1,0.4,2,0.8,2.6,1.3l-4.6,8.6c-1.1-0.6-2.4-1-4-1.2C768,137.7,767,137.6,766.3,137.6z"/>
	<path style="fill:#155277;" d="M819,199.8c0,2.7,0.4,4.8,1.1,6.3c0.7,1.5,1.7,2.7,3,3.5c1.3,0.8,2.8,1.3,4.4,1.5
		c1.6,0.2,3.4,0.3,5.2,0.3v8.8c-1,0.2-2.1,0.3-3.1,0.4c-0.9,0.1-1.9,0.1-3.2,0.2c-1.2,0-2.4,0.1-3.6,0.1c-1.2,0-2.4,0-3.6-0.1
		c-1.2-0.1-2.3-0.2-3.2-0.4c-2.7-0.5-4.8-1.6-6.3-3.5c-1.5-1.9-2.6-3.9-3.4-6.2c-0.8-2.3-1.2-4.5-1.4-6.6c-0.2-2.1-0.3-3.8-0.3-5
		v-36.2h-8.8V153h8.8v-19.1H819V153h10.7v9.8H819V199.8z"/>
</g>
<g>
</g>
<g>
</g>
<g>
</g>
<g>
</g>
<g>
</g>
<g>
</g>
</svg>
