<?xml version="1.0" encoding="utf-8"?>
<!-- Generator: Adobe Illustrator 16.0.0, SVG Export Plug-In . SVG Version: 6.00 Build 0)  -->
<!DOCTYPE svg PUBLIC "-//W3C//DTD SVG 1.1//EN" "http://www.w3.org/Graphics/SVG/1.1/DTD/svg11.dtd">
<svg version="1.1" xmlns="http://www.w3.org/2000/svg" xmlns:xlink="http://www.w3.org/1999/xlink" x="0px" y="0px"
	 width="46.417px" height="39.584px" viewBox="0 0 46.417 39.584" enable-background="new 0 0 46.417 39.584" xml:space="preserve">
<g id="Layer_1" display="none">
	<g display="inline">
		<path fill="#1E9F49" d="M45.976,0.508L21.162,29.419c0.278-0.265,0.449-0.455,0.449-0.455L45.976,0.508z"/>
		<g>
			<path fill="#1E9F49" d="M21.611,28.964c0,0-0.171,0.19-0.449,0.455l-1.273,1.289c0,0-1.25,1.079-2.662,0.096
				c-0.272-0.189-0.554-0.443-0.842-0.798c-1.895-2.332-10.17-17.507-10.843-18.75H0.796c2.959,5.126,14.662,25.468,14.662,25.468
				s2.005,4.232,4.545,0.787L45.976,0.508L21.611,28.964z"/>
			<path fill="#1E9F49" d="M16.423,28.959c0,0,0.966,1.548,1.918,1.548c0.953,0,2.138-1.25,2.138-1.25L44.902,1.509L20.013,26.794
				c0,0-1.917,2.1-3.306,0c-1.435-2.17-7.775-14.279-8.427-15.538H6.076L16.423,28.959z"/>
		</g>
	</g>
</g>
<g id="Layer_1_copy">
	<g>
		<path fill="#EF3B53" d="M45.976,0.508L21.162,29.419c0.278-0.265,0.449-0.455,0.449-0.455L45.976,0.508z"/>
		<g>
			<path fill="#EF3B53" d="M21.611,28.964c0,0-0.171,0.19-0.449,0.455l-1.273,1.289c0,0-1.25,1.079-2.662,0.096
				c-0.272-0.189-0.554-0.443-0.842-0.798c-1.895-2.332-10.17-17.507-10.843-18.75H0.796c2.959,5.126,14.662,25.468,14.662,25.468
				s2.005,4.232,4.545,0.787L45.976,0.508L21.611,28.964z"/>
			<path fill="#EF3B53" d="M16.423,28.959c0,0,0.966,1.548,1.918,1.548c0.953,0,2.138-1.25,2.138-1.25L44.902,1.509L20.013,26.794
				c0,0-1.917,2.1-3.306,0c-1.435-2.17-7.775-14.279-8.427-15.538H6.076L16.423,28.959z"/>
		</g>
	</g>
</g>
<g id="Layer_1_copy_2" display="none">
	<g display="inline">
		<path fill="#F68525" d="M45.976,0.508L21.162,29.419c0.278-0.265,0.449-0.455,0.449-0.455L45.976,0.508z"/>
		<g>
			<path fill="#F68525" d="M21.611,28.964c0,0-0.171,0.19-0.449,0.455l-1.273,1.289c0,0-1.25,1.079-2.662,0.096
				c-0.272-0.189-0.554-0.443-0.842-0.798c-1.895-2.332-10.17-17.507-10.843-18.75H0.796c2.959,5.126,14.662,25.468,14.662,25.468
				s2.005,4.232,4.545,0.787L45.976,0.508L21.611,28.964z"/>
			<path fill="#F68525" d="M16.423,28.959c0,0,0.966,1.548,1.918,1.548c0.953,0,2.138-1.25,2.138-1.25L44.902,1.509L20.013,26.794
				c0,0-1.917,2.1-3.306,0c-1.435-2.17-7.775-14.279-8.427-15.538H6.076L16.423,28.959z"/>
		</g>
	</g>
</g>
</svg>
