<?xml version="1.0" encoding="utf-8"?>
<!-- Generator: Adobe Illustrator 16.0.0, SVG Export Plug-In . SVG Version: 6.00 Build 0)  -->
<!DOCTYPE svg PUBLIC "-//W3C//DTD SVG 1.1//EN" "http://www.w3.org/Graphics/SVG/1.1/DTD/svg11.dtd">
<svg version="1.1" xmlns="http://www.w3.org/2000/svg" xmlns:xlink="http://www.w3.org/1999/xlink" x="0px" y="0px" width="61.75px"
	 height="52.25px" viewBox="0 0 61.75 52.25" enable-background="new 0 0 61.75 52.25" xml:space="preserve">
<g id="Layer_1" display="none">
	<g display="inline">
		<path fill="#1E9F49" d="M60.809,0.508l-32.96,38.403c0.37-0.352,0.597-0.604,0.597-0.604L60.809,0.508z"/>
		<g>
			<path fill="#1E9F49" d="M28.446,38.307c0,0-0.227,0.253-0.597,0.604l-1.691,1.712c0,0-1.66,1.433-3.536,0.127
				c-0.362-0.252-0.735-0.588-1.119-1.06C18.986,36.593,7.993,16.436,7.1,14.785H0.796c3.93,6.809,19.476,33.83,19.476,33.83
				s2.664,5.622,6.038,1.045l34.5-49.152L28.446,38.307z"/>
			<path fill="#1E9F49" d="M21.554,38.3c0,0,1.283,2.056,2.548,2.056c1.265,0,2.84-1.661,2.84-1.661L59.383,1.837L26.322,35.424
				c0,0-2.546,2.789-4.392,0c-1.907-2.882-10.328-18.967-11.194-20.639H7.81L21.554,38.3z"/>
		</g>
	</g>
</g>
<g id="Layer_1_copy" display="none">
	<g display="inline">
		<path fill="#EF3B53" d="M60.809,0.508l-32.96,38.403c0.37-0.352,0.597-0.604,0.597-0.604L60.809,0.508z"/>
		<g>
			<path fill="#EF3B53" d="M28.446,38.307c0,0-0.227,0.253-0.597,0.604l-1.691,1.712c0,0-1.66,1.433-3.536,0.127
				c-0.362-0.252-0.735-0.588-1.119-1.06C18.986,36.593,7.993,16.436,7.1,14.785H0.796c3.93,6.809,19.476,33.83,19.476,33.83
				s2.664,5.622,6.038,1.045l34.5-49.152L28.446,38.307z"/>
			<path fill="#EF3B53" d="M21.554,38.3c0,0,1.283,2.056,2.548,2.056c1.265,0,2.84-1.661,2.84-1.661L59.383,1.837L26.322,35.424
				c0,0-2.546,2.789-4.392,0c-1.907-2.882-10.328-18.967-11.194-20.639H7.81L21.554,38.3z"/>
		</g>
	</g>
</g>
<g id="Layer_1_copy_2">
	<g>
		<path fill="#F68525" d="M60.809,0.508l-32.96,38.403c0.37-0.352,0.597-0.604,0.597-0.604L60.809,0.508z"/>
		<g>
			<path fill="#F68525" d="M28.446,38.307c0,0-0.227,0.253-0.597,0.604l-1.691,1.712c0,0-1.66,1.433-3.536,0.127
				c-0.362-0.252-0.735-0.588-1.119-1.06C18.986,36.593,7.993,16.436,7.1,14.785H0.796c3.93,6.809,19.476,33.83,19.476,33.83
				s2.664,5.622,6.038,1.045l34.5-49.152L28.446,38.307z"/>
			<path fill="#F68525" d="M21.554,38.3c0,0,1.283,2.056,2.548,2.056c1.265,0,2.84-1.661,2.84-1.661L59.383,1.837L26.322,35.424
				c0,0-2.546,2.789-4.392,0c-1.907-2.882-10.328-18.967-11.194-20.639H7.81L21.554,38.3z"/>
		</g>
	</g>
</g>
</svg>
