<?xml version="1.0" encoding="utf-8"?>
<!-- Generator: Adobe Illustrator 16.0.0, SVG Export Plug-In . SVG Version: 6.00 Build 0)  -->
<!DOCTYPE svg PUBLIC "-//W3C//DTD SVG 1.1//EN" "http://www.w3.org/Graphics/SVG/1.1/DTD/svg11.dtd">
<svg version="1.1" xmlns="http://www.w3.org/2000/svg" xmlns:xlink="http://www.w3.org/1999/xlink" x="0px" y="0px"
	 width="46.417px" height="39.584px" viewBox="0 0 46.417 39.584" enable-background="new 0 0 46.417 39.584" xml:space="preserve">
<g id="Layer_1" display="none">
	<g display="inline">
		<path fill="#1E9F49" d="M45.976,0.508L21.162,29.419c0.278-0.265,0.449-0.455,0.449-0.455L45.976,0.508z"/>
		<g>
			<path fill="#1E9F49" d="M21.611,28.964c0,0-0.171,0.19-0.449,0.455l-1.273,1.289c0,0-1.25,1.079-2.662,0.096
				c-0.272-0.189-0.554-0.443-0.842-0.798c-1.895-2.332-10.17-17.507-10.843-18.75H0.796c2.959,5.126,14.662,25.468,14.662,25.468
				s2.005,4.232,4.545,0.787L45.976,0.508L21.611,28.964z"/>
			<path fill="#1E9F49" d="M16.423,28.959c0,0,0.966,1.548,1.918,1.548c0.953,0,2.138-1.25,2.138-1.25L44.902,1.509L20.013,26.794
				c0,0-1.917,2.1-3.306,0c-1.435-2.17-7.775-14.279-8.427-15.538H6.076L16.423,28.959z"/>
		</g>
	</g>
</g>
<g id="Layer_1_copy" display="none">
	<g display="inline">
		<path fill="#EF3B53" d="M45.976,0.508L21.162,29.419c0.278-0.265,0.449-0.455,0.449-0.455L45.976,0.508z"/>
		<g>
			<path fill="#EF3B53" d="M21.611,28.964c0,0-0.171,0.19-0.449,0.455l-1.273,1.289c0,0-1.25,1.079-2.662,0.096
				c-0.272-0.189-0.554-0.443-0.842-0.798c-1.895-2.332-10.17-17.507-10.843-18.75H0.796c2.959,5.126,14.662,25.468,14.662,25.468
				s2.005,4.232,4.545,0.787L45.976,0.508L21.611,28.964z"/>
			<path fill="#EF3B53" d="M16.423,28.959c0,0,0.966,1.548,1.918,1.548c0.953,0,2.138-1.25,2.138-1.25L44.902,1.509L20.013,26.794
				c0,0-1.917,2.1-3.306,0c-1.435-2.17-7.775-14.279-8.427-15.538H6.076L16.423,28.959z"/>
		</g>
	</g>
</g>
<g id="Layer_1_copy_2" display="none">
	<g display="inline">
		<path fill="#F68525" d="M32.833,11.665L15.238,32.166c0.197-0.188,0.319-0.323,0.319-0.323L32.833,11.665z"/>
		<g>
			<path fill="#F68525" d="M15.557,31.843c0,0-0.122,0.135-0.319,0.323l-0.903,0.914c0,0-0.887,0.765-1.888,0.068
				c-0.193-0.134-0.393-0.314-0.597-0.566c-1.343-1.654-7.212-12.414-7.689-13.295H0.796c2.098,3.635,10.397,18.06,10.397,18.06
				s1.422,3.001,3.223,0.558l18.417-26.24L15.557,31.843z"/>
			<path fill="#F68525" d="M11.877,31.84c0,0,0.685,1.098,1.36,1.098s1.516-0.887,1.516-0.887l17.318-19.676l-17.649,17.93
				c0,0-1.359,1.489-2.344,0c-1.018-1.539-5.514-10.125-5.976-11.018H4.54L11.877,31.84z"/>
		</g>
	</g>
	
		<text transform="matrix(1 0 0 1 28.917 14.9341)" display="inline" fill="#F68525" font-family="'MyriadPro-Bold'" font-size="21.4297">+</text>
</g>
<g id="Layer_4">
	<g>
		<path fill="#23AAE2" d="M33.835,22.049v-4.671h-8.129V9.624h-4.671v7.755h-8.129v4.671h8.129v7.755h4.671v-7.755H33.835z"/>
		<path fill="#F68523" d="M33.835,17.378v4.671h-8.129v7.755h-4.671v-7.755h-8.129v-4.671h8.129V9.624h4.671v7.755H33.835z"/>
		<g>
			<path fill="#6B3314" d="M33.835,16.444h-7.194v-6.82c-0.001-0.515-0.419-0.933-0.935-0.935h-4.671
				c-0.515,0.002-0.933,0.419-0.935,0.935v6.82h-7.194c-0.515,0.001-0.933,0.419-0.934,0.935v4.671
				c0.001,0.515,0.419,0.933,0.934,0.935h7.194v6.82c0.001,0.515,0.419,0.933,0.935,0.935h4.671
				c0.515-0.002,0.933-0.419,0.935-0.935v-6.82h7.194c0.515-0.001,0.933-0.419,0.934-0.935v-4.671
				C34.768,16.863,34.35,16.445,33.835,16.444z M32.901,21.116h-7.195c-0.515,0.001-0.933,0.419-0.934,0.934v6.821h-2.804v-6.821
				c-0.001-0.515-0.419-0.933-0.934-0.934H13.84v-2.804h7.195c0.515-0.001,0.933-0.419,0.934-0.934v-6.821h2.804v6.821
				c0.001,0.515,0.419,0.933,0.934,0.934h7.195V21.116z"/>
			<path fill="#F68523" d="M23.37,0C12.496,0,3.657,8.839,3.657,19.713c0,10.875,8.848,19.714,19.713,19.714
				c10.875,0,19.714-8.848,19.714-19.714C43.084,8.848,34.246,0,23.37,0z M23.37,37.559c-9.838,0-17.845-8.007-17.845-17.846
				c0-9.838,8.007-17.845,17.845-17.845c9.839,0,17.846,8.007,17.846,17.845C41.216,29.552,33.209,37.559,23.37,37.559z"/>
		</g>
	</g>
</g>
</svg>
