<?xml version="1.0" encoding="utf-8"?>
<!-- Generator: Adobe Illustrator 21.1.0, SVG Export Plug-In . SVG Version: 6.00 Build 0)  -->
<svg version="1.1" id="Layer_1" xmlns="http://www.w3.org/2000/svg" xmlns:xlink="http://www.w3.org/1999/xlink" x="0px" y="0px"
	 viewBox="0 0 414 512" style="enable-background:new 0 0 414 512;" xml:space="preserve">
<style type="text/css">
	.st0{fill:#40B04B;}
	.st1{fill:#363637;}
	.st2{fill:#F9BB8D;}
	.st3{fill:#231F20;}
	.st4{fill:#3FB049;}
	.st5{fill:#F9BB8E;}
	.st6{fill:#C0BEBE;}
	.st7{fill:#F8BA8D;}
	.st8{fill:#292424;}
	.st9{fill:#F8FBF7;}
	.st10{fill:#CAE4C4;}
	.st11{fill:#FEFEFE;}
	.st12{fill:#A6233B;}
	.st13{fill:#272222;}
	.st14{fill:#955627;}
	.st15{fill:#FCFDFC;}
	.st16{fill:#3EAF49;}
	.st17{fill:#FFFFFF;}
</style>
<g>
	<path class="st0" d="M406,91c-7.2,0.8-14.4,1.5-21.6,2.3c-9.7,1-19.4,2-29.1,3.1c-2.2,0.2-4.4,0.4-6.7,0.7
		c-0.1-0.9-0.3-1.7-0.4-2.7c19-3.4,37.8-6.8,56.7-10.3c0.4,2.2,0.8,4.3,1.2,6.3C406,90.6,406,90.8,406,91z"/>
	<path class="st1" d="M161.9,467c-1.6-4.8-1.4-9.8-1.6-14.7c0-0.5,0.1-1.1,0-1.6c-0.3-9.3-0.6-18.6-0.8-27.8
		c-0.3-12.8-1.1-25.5-3.5-38.2c-2.2-11.5-6.1-22.1-14-31c-1.2-1.3-2.4-2.7-3.8-3.7c-2.4-1.8-5-2-7.8-0.4
		c-10.8,6-16.7,15.2-18.6,27.2c-1,6.4-1.4,12.8-2.5,19.2c-2.3,13.9-3.3,27.9-4.5,41.9c-0.4,4.6-0.9,9.3-1.3,13.9
		c-0.3,1.6-0.9,3.1-1,4.7c-0.2,7.9-0.2,15.9-0.3,23.8c0,4.2-1.7,6-5.9,6.4c-9.6,1-19.2,2.6-28.3,6.1c-1.9,0.7-3.7,1.5-5.6,2.3
		c-2.5,1.1-5.1,1.4-7.8,0.9c-2.4-0.4-4.9-0.8-7.3-1.1c-5.4-0.8-5.5-5-4.1-9c0.4-1.2,1.4-2.3,2.4-3.1c3.9-3.4,8.5-5.6,13.7-6.4
		c8.8-1.3,16.2-5.5,22.7-11.4c0.3-0.3,0.6-0.7,0.6-1.1c0-2.9-0.1-5.8-0.2-8.6c0-1.7,0-3.4,0-5c0-14.5,0.1-29,0-43.5
		c0-11.7,0.9-23.3,1.9-35c0.8-9.3,1.6-18.6,2.4-27.9c0.3-3.8,0.7-7.7,1.1-11.5c0.4-2.3,1.1-2.9,3.3-2.9c21.4-0.1,42.8-0.2,64.2-0.3
		c7.1,0,14.2,0,21.4,0c0.5,0,1-0.2,1.5-0.4c0.4,3.3,0.8,6.6,1.1,9.9c1.9,16.4,2.2,32.9,2.7,49.4c0.3,11.8,0.8,23.6,0.7,35.3
		c-0.1,11-0.8,21.9-1.3,32.9c-0.3,2.7-0.6,5.3-0.9,8c0,0.5,0.1,0.9,0.1,1.4c-0.2,0.1-0.4,0.4-0.6,0.4c-2.9,0.6-5.9,1.3-8.8,1.7
		c-2.1,0.3-4.3,1-6.5,0.1C164.1,467.6,163,467.3,161.9,467z"/>
	<path class="st2" d="M167,215c-6.8,6.2-14.9,9.8-24,11.1c-13,1.8-25.8,1.2-37.6-5.1c-2.6-1.4-4.9-3.4-7.4-5.1
		c-3.4-2.3-5.4-5.8-7.8-8.8c-0.1-0.2-0.2-0.3-0.3-0.5l0,0c-0.1-0.2-0.2-0.4-0.3-0.6c0,0,0,0,0,0c-0.1-0.1-0.2-0.2-0.3-0.3
		c0,0,0,0,0,0c-0.1-0.2-0.2-0.4-0.3-0.6c0,0,0,0,0,0c-0.1-0.3-0.1-0.7-0.3-0.9c-3.1-5.7-5.2-11.8-6.6-18.2c-0.3-1.6-0.6-3.3-0.9-4.9
		c-0.4-2.5-0.8-5-1.2-7.5c0-0.5,0-1,0-1.4c-0.2-4.9-0.6-9.8-0.5-14.7c0.1-8,1.3-15.8,4.6-23.2c2.4-5.4,5.7-10.2,10.1-14.2
		c1.4,0.9,2.8,1.7,4.1,2.5c1.4,0.8,2.9,1.5,4.4,2.2c15,6.7,30.6,8.8,46.8,6.2c8.3-1.3,16.3-3.6,23.4-8.4c3.4,3.7,6.7,9.8,8.5,16.6
		c3.3,12.1,2.7,24.3,1.6,36.5c-0.3,3.6-1,7.1-1.6,10.7c-1.5,4.5-2.7,9.1-4.4,13.5c-2.1,5.5-5.5,10.3-9.7,14.5
		C167.2,214.7,167.1,214.8,167,215z M113.8,192.7c0.4,6.8,1.3,13.3,4.1,19.4c3.1,6.7,8.1,11.2,17.1,10.4c6.9-0.6,12-3.7,14.9-10.1
		c2.2-4.8,2.9-9.9,3.5-15.1c0.1-1.3,0.2-2.6,0.4-4.1C140.4,193.1,127.2,192.9,113.8,192.7z M100.4,168.7c2.1-2.1,4.2-4.3,7.4-4.5
		c3.5-0.3,5.3,2.2,7.1,4.7c0.9-0.7,1.6-1.3,2.4-1.9c0.7-0.6,1-1.1,0.1-1.9c-0.7-0.6-1.3-1.3-1.9-2c-5.6-5.5-12.5-4.1-17.9,2.3
		C98.4,166.5,99.4,167.5,100.4,168.7z M153.1,168.7c1.7-2.6,3.5-4.9,7-4.6c3.1,0.3,5.2,2.4,7.4,4.5c1-1.2,2-2.3,3.1-3.5
		c-1.3-1.1-2.4-2.1-3.6-3c-5.2-3.7-9.9-3.4-14.6,0.9C149.3,165.9,149.4,166.4,153.1,168.7z M146,177c-4.5-1.5-8.7-2.9-12.9-4.3
		c-0.6-0.2-1.1-0.5-1.4,0.4c-0.2,0.8,0.1,1.1,0.8,1.4c2.7,0.9,5.4,1.8,8.1,2.7c0.5,0.2,0.9,0.3,1.6,0.6c-3,2.2-5.7,4.2-8.5,6.2
		c0.3,0.6,0.5,1.2,0.8,1.9C138.4,182.9,142.1,180.1,146,177z M155.7,143.5c1.6-1.5,3.2-2.9,5.3-2.2c1.8,0.6,3.5,1.8,5.4,2.9
		c0.5-0.3,1.3-0.9,2.1-1.5c-4-5.2-9.6-5.6-14.7-1C154.4,142.2,155,142.8,155.7,143.5z M114.3,141.8c-4.4-4.9-10.4-5.4-14.7-0.3
		c0.8,0.6,1.5,1.3,2.3,1.9c1.5-1.4,3.1-2.7,5.2-2.8c2.3-0.1,3.7,1.3,5.1,2.8C113,142.9,113.7,142.4,114.3,141.8z"/>
	<path class="st3" d="M181.5,186.5c0.5-3.6,1.3-7.1,1.6-10.7c1.1-12.2,1.8-24.5-1.6-36.5c-1.9-6.7-5.1-12.9-8.5-16.6
		c-7.1,4.8-15.2,7-23.4,8.4c-16.2,2.6-31.8,0.4-46.8-6.2c-1.5-0.7-3-1.4-4.4-2.2c-1.4-0.8-2.7-1.6-4.1-2.5c-4.4,4-7.7,8.7-10.1,14.2
		c-3.3,7.4-4.5,15.2-4.6,23.2c0,4.9,0.3,9.8,0.5,14.7c0,0.5,0,1,0,1.4c-0.1,0-0.1,0-0.2,0c-5-8-7-16.9-8.1-26.1
		c-0.4,0.2-0.6,0.3-0.8,0.4c0.5-9.3,0.7-18.5,1.5-27.8c0.5-6.7,2.4-13.1,5.5-19.1c4.5-8.7,11.5-14.7,20.6-18.3c3-1.2,5.3-3,7.3-5.3
		c4.3-5,9-9.5,15-12.4c8.9-4.3,18.3-6.6,28.2-5.1c11.9,1.8,20.2,8.8,25.5,19.3c1.8,3.7,2.9,7.7,4.4,11.5c0.2,0.5,0.4,1.1,0.7,1.5
		c6.1,6.5,9.2,14.3,10.8,22.9c1.5,7.9,1.8,15.9,1.8,23.8c0,2.5,0.2,5,0.3,7.5c0,0.6,0.3,1.2-0.6,1.7c-0.5,0.3-0.4,1.7-0.5,2.6
		c-1,8.1-3.1,15.8-7.3,22.9c-0.1,0.1-0.1,0.3-0.2,0.7c1.4,0.2,2.8,0.4,4.3,0.6C186.6,179,184.5,183,181.5,186.5z"/>
	<path class="st4" d="M248.9,122.3c6.1-7.3,12.2-14.6,18.3-22c11.2-13.4,22.3-26.9,33.5-40.3c0.6-0.8,0.9-1.4,0.2-2.2
		c-0.6-0.7-1-1.5-1.4-2.3c-1.2-2.2-0.6-4.6,1.4-5.8c2-1.2,4.4-0.6,5.8,1.5c4.6,7.3,9.1,14.7,13.7,22.1c10.5,17,21.1,34,31.6,51.1
		c0.6,1,1.1,2.4,1.1,3.6c-0.1,1.8-1.2,3-3,3.5c-1.7,0.5-3.4-0.2-4.4-1.7c-0.6-0.8-1.1-1.7-1.6-2.6c-0.4-0.8-0.9-1-1.8-0.8
		c-12,2.8-24,5.7-35.9,8.5c-2.7,0.6-5.3,1.3-8,1.9c0.6,3.3,1.3,6.4,1.9,9.5c1.1,5.8-2,10.6-7.7,11.9c-4.5,1-8.9,1.9-13.4,2.7
		c-5.4,1-10.4-2.4-11.6-7.7c-0.6-2.9-1.2-5.7-1.8-8.8c-2.1,0.5-4.1,1.1-6.1,1.6c-1.9,0.4-3.8,0.8-5.6,1.2c-2.8,0.6-5.6,1.3-8.5,2
		c0.7,1.2,1.3,2.2,2,3.2c0.7,1.2,0.8,2.6,0.3,3.9c-0.6,1.4-1.8,2.3-3.3,2.4c-1.8,0.2-3.2-0.6-4.1-2.1c-3.8-6.2-7.7-12.4-11.5-18.6
		c-1.4-2.3-0.9-4.8,1.1-6.1c2.1-1.3,4.4-0.6,5.9,1.7c0.6,0.9,1.2,1.8,1.8,2.9C241.3,131.6,245.1,126.9,248.9,122.3z M260.8,121.5
		c0.4-0.2,0.7-0.5,1.1-0.7c16.8-12.9,33.5-25.7,50.3-38.6c0.6-0.4,1.1-0.9,1.7-1.4c-2.2-3.6-4.4-7.1-6.6-10.7
		c-0.3,0.3-0.5,0.5-0.6,0.7c-13.2,14.4-26.3,28.8-39.5,43.1c-2.2,2.4-4.4,4.9-6.5,7.3c-0.1,0.1-0.2,0.2-0.2,0.3
		C260.5,121.5,260.6,121.5,260.8,121.5z M269.5,143.4c0.6,2.8,1.1,5.5,1.6,8.1c0.1,0.4,0.2,0.8,0.3,1.3c0.9,2.9,3.6,4.5,6.6,3.9
		c4.5-0.9,9-1.7,13.4-2.7c3-0.6,4.9-3.4,4.4-6.4c-0.5-2.8-1.2-5.6-1.7-8.5c-0.2-1.2-0.8-1.4-1.9-1.1c-3.1,0.8-6.3,1.5-9.4,2.2
		C278.5,141.2,274.1,142.3,269.5,143.4z"/>
	<path class="st5" d="M78.5,194.3c-5.9,5.3-11.8,10.7-17.8,16c-2.7-3.2-5.4-6.4-8.1-9.6c-5.6-6.6-11.3-13.1-16.9-19.7
		c-4.3-5-8.6-10-12.9-15c-1.6-1.8-3.1-3.7-4.7-5.5c-0.4-0.4-0.9-0.8-1.5-1.1c-6.6-3.4-10.3-8.8-11.2-16.1c-0.9-6.6,1-12.5,5.6-17.2
		c7-7.4,18.1-7.5,25.2-0.9c0.4,0.3,0.7,0.6,1,1c1.4,1.8,3,3.1,5.6,3.5c3.7,0.6,5.7,4.9,5.1,9.2c-0.7,4.8-3,8.5-6.7,11.7
		c1.9,2.2,3.7,4.4,5.5,6.5c5.2,6.1,10.4,12.3,15.6,18.4c4.6,5.5,9.3,10.9,13.9,16.4C76.9,192.8,77.7,193.5,78.5,194.3z"/>
	<path class="st5" d="M248.9,122.3c-3.8,4.6-7.6,9.3-11.6,14.1c-0.7-1.1-1.3-2-1.8-2.9c-1.5-2.3-3.8-3-5.9-1.7
		c-2.1,1.3-2.6,3.8-1.1,6.1c3.8,6.2,7.7,12.4,11.5,18.6c0.9,1.5,2.3,2.3,4.1,2.1c1.6-0.2,2.7-1,3.3-2.4c0.6-1.3,0.5-2.6-0.3-3.9
		c-0.6-1-1.2-2-2-3.2c2.9-0.7,5.7-1.4,8.5-2c1.9-0.4,3.7-0.8,5.6-1.2c-1.1,5.4-4.1,9.8-8.8,12.4c-3,1.6-5,4-7,6.4
		c-6.6,8.1-13.3,16.1-19.9,24.2c-4.6,5.6-9.2,11.2-13.8,16.8c-0.3,0.3-0.6,0.6-0.9,0.9c-3.5-2.9-6.9-5.8-10.4-8.7
		c-2.9-2.4-5.7-4.9-8.5-7.3c2.3-2.7,4.5-5.5,6.8-8.2c5.7-6.8,11.4-13.5,17.1-20.2c3-3.6,6-7.1,9.1-10.6c0.7-0.8,0.8-1.3-0.1-2.1
		c-3.5-3.3-5.6-7.4-5.6-12.4c0-3.8,2.1-6.6,5.3-7.5c2.4-0.7,3.4-1.2,5.2-3.2c3.8-4,8.4-6.2,13.8-5.9
		C244.1,120.7,246.5,121.7,248.9,122.3z"/>
	<path class="st6" d="M194.1,85.1c7.8-8.1,15.5-16.1,23.3-24.2c3,4.3,5.9,8.4,9,12.7c-0.6,0.4-1.1,0.8-1.6,1.2
		c-8.1,5.5-16.2,10.9-24.2,16.4c-1.1,0.8-1.7,0.8-2.5-0.5C196.9,88.9,195.5,87.1,194.1,85.1z"/>
	<path class="st6" d="M126.8,7c5,0,9.6,0,14.6,0c-1.1,11.6-2.2,23.2-3.3,34.9c-2.6,0-5,0-7.4-0.1c-0.3,0-0.8-0.8-0.9-1.2
		c-0.4-3.4-0.6-6.8-0.9-10.2c-0.4-4.8-0.9-9.5-1.4-14.3C127.2,13.1,127,10.1,126.8,7z"/>
	<path class="st6" d="M39.7,70.9c2.4-4.2,4.7-8.3,7.1-12.4c2.7,2.2,5.2,4.3,7.7,6.4c5.5,4.6,11.1,9.2,16.6,13.8
		c1,0.8,1.3,1.5,0.5,2.6c-1.1,1.7-2.1,3.6-3.2,5.4C58.9,81.4,49.4,76.2,39.7,70.9z"/>
	<path class="st0" d="M333.7,68.8c-0.7-0.6-1.4-1.1-2.1-1.7c11.7-15.3,23.3-30.6,35-46c1.8,1.5,3.6,2.9,5.5,4.5
		C359.2,40,346.5,54.4,333.7,68.8z"/>
	<path class="st0" d="M391.9,55.3c-16.8,9.5-33.5,18.9-50.2,28.4c-0.5-0.8-1-1.5-1.5-2.3c16-10.7,32-21.3,48-32
		C389.5,51.3,390.7,53.3,391.9,55.3z"/>
	<path class="st6" d="M176.6,54.3c-2-1.2-3.9-2.4-5.7-3.6c-0.3-0.2-0.6-0.9-0.4-1.2c3-7.8,6-15.6,9.1-23.5c3.9,2.5,7.6,4.9,11.6,7.4
		C186.3,40.4,181.5,47.3,176.6,54.3z"/>
	<path class="st6" d="M88.5,56.5c-5-6.9-9.9-13.7-14.9-20.7c3.3-2.3,6.5-4.5,9.9-6.8c1.2,2.6,2.3,5,3.4,7.5C89,41.3,91,46.2,93.3,51
		c0.6,1.4,0.5,2.1-0.8,2.8C91.1,54.5,89.9,55.5,88.5,56.5z"/>
	<path class="st7" d="M70.8,147.9c0.2-0.1,0.4-0.2,0.8-0.4c1.1,9.2,3.1,18.1,8.1,26.1c-0.3,0.3-0.6,0.8-0.9,0.8
		c-1.2,0.2-2.3,0.2-3.5,0.3c-3.7-1.1-5.9-3.8-7.1-7.2c-2.3-6-2-11.9,1.3-17.6C69.9,149.3,70.4,148.6,70.8,147.9z"/>
	<path class="st8" d="M75.4,174.7c1.2-0.1,2.3-0.1,3.5-0.3c0.3,0,0.6-0.5,0.9-0.8c0.1,0,0.1,0,0.2,0c0.4,2.5,0.8,5,1.2,7.5
		c0.3,1.7,0.6,3.3,0.9,4.9C79.1,182.7,77,178.8,75.4,174.7z"/>
	<path class="st9" d="M123.8,253.3c0,0.7,0,1.3,0,2.1c-1.8,0-3.7,0-5.6,0c0,5,0,9.8,0,14.7c-0.8,0-1.5,0-2.4,0c0-4.8,0-9.6,0-14.6
		c-2,0-3.8,0-5.7,0c0-0.8,0-1.4,0-2.2C114.7,253.3,119.2,253.3,123.8,253.3z"/>
	<path class="st10" d="M173.9,255.4c0,0.6,0,1.2,0,1.8C173.2,256.6,173.3,256,173.9,255.4z"/>
	<path class="st11" d="M88.9,205.2c0.1,0.2,0.2,0.4,0.3,0.6C89.2,205.6,89.1,205.4,88.9,205.2z"/>
	<path class="st11" d="M89.5,206c0.1,0.2,0.2,0.4,0.3,0.6C89.7,206.4,89.6,206.2,89.5,206z"/>
	<path class="st10" d="M176.8,254.9c-0.2-0.1-0.4-0.2-0.6-0.3C176.4,254.7,176.6,254.8,176.8,254.9z"/>
	<path class="st10" d="M174.2,254.9c-0.1,0.2-0.2,0.4-0.3,0.6C174,255.3,174.1,255.1,174.2,254.9z"/>
	<path class="st11" d="M89.8,206.6c0.1,0.2,0.2,0.3,0.3,0.5C90,206.9,89.9,206.8,89.8,206.6z"/>
	<path class="st11" d="M89.2,205.8c0.1,0.1,0.2,0.2,0.3,0.3C89.5,206,89.4,205.9,89.2,205.8z"/>
	<path class="st1" d="M161.9,467c1.1,0.3,2.2,0.6,3.3,1c2.2,0.8,4.3,0.2,6.5-0.1c3-0.5,5.9-1.1,8.8-1.7c0.2,0,0.4-0.3,0.6-0.4
		c0.7,0.6,1.6,1,2.2,1.7c6.7,8.7,15.3,14.5,25.7,17.8c0.6,0.2,1.2,0.4,1.8,0.6c4.3,1.3,6.7,4.2,7.3,8.5c0.3,2,0.6,4,0.4,6
		c-0.1,1.2-0.8,2.6-1.6,3.5c-1.6,1.6-3.6,2.6-6.1,2.5c-4.1-0.2-8.3-0.2-12.4-0.4c-2.8-0.2-5.1-1.6-7.3-3.2
		c-5.2-3.9-10.4-7.7-15.6-11.7c-2.3-1.7-4.9-2.4-7.6-3c-4.4-0.8-5.8-2.6-5.8-7c0-4,0-8,0-12C162.1,468.4,161.9,467.7,161.9,467z"/>
	<path class="st12" d="M113.8,192.7c13.4,0.2,26.6,0.3,40,0.5c-0.1,1.5-0.2,2.8-0.4,4.1c-0.6,5.2-1.3,10.3-3.5,15.1
		c-2.9,6.4-8,9.5-14.9,10.1c-9,0.8-14.1-3.7-17.1-10.4C115.1,206,114.2,199.5,113.8,192.7z"/>
	<path class="st13" d="M100.4,168.7c-1-1.1-2-2.2-2.9-3.2c5.4-6.4,12.4-7.8,17.9-2.3c0.7,0.6,1.2,1.4,1.9,2c0.9,0.7,0.6,1.3-0.1,1.9
		c-0.7,0.6-1.5,1.2-2.4,1.9c-1.8-2.5-3.6-5-7.1-4.7C104.6,164.4,102.5,166.5,100.4,168.7z"/>
	<path class="st13" d="M153.1,168.7c-3.7-2.3-3.8-2.8-0.7-5.6c4.7-4.3,9.4-4.6,14.6-0.9c1.2,0.9,2.3,1.9,3.6,3
		c-1.1,1.2-2.1,2.3-3.1,3.5c-2.1-2.1-4.2-4.3-7.4-4.5C156.6,163.8,154.8,166.2,153.1,168.7z"/>
	<path class="st14" d="M146,177c-3.9,3-7.7,5.9-11.5,8.8c-0.3-0.7-0.5-1.3-0.8-1.9c2.8-2,5.5-4.1,8.5-6.2c-0.7-0.2-1.1-0.4-1.6-0.6
		c-2.7-0.9-5.4-1.8-8.1-2.7c-0.7-0.2-1-0.6-0.8-1.4c0.3-0.9,0.8-0.6,1.4-0.4C137.4,174.1,141.6,175.5,146,177z"/>
	<path class="st8" d="M155.7,143.5c-0.7-0.6-1.3-1.2-2-1.8c5.2-4.5,10.7-4.1,14.7,1c-0.8,0.6-1.6,1.1-2.1,1.5
		c-1.9-1.1-3.5-2.3-5.4-2.9C159,140.6,157.3,142,155.7,143.5z"/>
	<path class="st8" d="M114.3,141.8c-0.7,0.5-1.3,1-2.1,1.6c-1.5-1.5-2.9-2.9-5.1-2.8c-2.1,0.1-3.6,1.3-5.2,2.8
		c-0.8-0.6-1.5-1.3-2.3-1.9C103.9,136.4,110,137,114.3,141.8z"/>
	<path class="st15" d="M260.6,121.3c2.2-2.4,4.3-4.9,6.5-7.3c13.1-14.4,26.3-28.8,39.5-43.1c0.2-0.2,0.3-0.4,0.6-0.7
		c2.2,3.6,4.4,7.1,6.6,10.7c-0.6,0.5-1.1,0.9-1.7,1.4c-16.8,12.9-33.5,25.7-50.3,38.6c-0.3,0.3-0.7,0.5-1.1,0.7
		C260.7,121.4,260.6,121.4,260.6,121.3z"/>
	<path class="st15" d="M260.8,121.5c-0.1,0-0.3,0.1-0.4,0.1c0.1-0.1,0.2-0.2,0.2-0.3C260.6,121.4,260.7,121.4,260.8,121.5z"/>
	<g>
		<polygon class="st16" points="89.5,206 89.5,206 89.6,206.1 		"/>
		<path class="st16" d="M208.8,206.7c-3.5-2.9-6.9-5.8-10.4-8.7c-2.9-2.4-5.7-4.9-8.5-7.3c-0.2,0.1-0.3,0.2-0.5,0.3
			c-6.6,7.8-13.3,15.6-19.8,23.4c-0.9,1-1.6,1.4-2.7,0.6c-6.8,6.2-14.9,9.8-24,11.1c-13,1.8-25.8,1.2-37.6-5.1
			c-2.6-1.4-4.9-3.4-7.4-5.1c-3.4-2.3-5.4-5.8-7.8-8.8c-0.1-0.1-0.2-0.3-0.3-0.4c-0.1-0.2-0.2-0.4-0.3-0.6c-0.1-0.1-0.2-0.2-0.3-0.3
			c-0.1-0.2-0.2-0.4-0.3-0.6c0,0,0,0,0,0c-0.3-0.3-0.7-0.5-1-0.8c-2.7-3.3-5.4-6.6-8-9.9c-0.5-0.7-0.9-0.7-1.5-0.2
			c-5.9,5.3-11.8,10.7-17.8,16c0.2,0.4,0.4,0.9,0.7,1.3c8.2,9.7,16.3,19.3,24.5,29c0.4,0.5,0.7,1.3,0.7,1.9
			c0.1,11.7,0.1,23.4,0.2,35.1c0,15.7,0,31.4,0,47.1c0,2.5-0.3,5.2,1.3,7.5c0.4-2.3,1.1-2.9,3.3-2.9c21.4-0.1,42.8-0.2,64.2-0.3
			c7.1,0,14.2,0,21.4,0c0.5,0,1-0.2,1.5-0.4c0-0.7,0-1.3,0-2c0-17.5,0-35,0-52.6c0-7.6,0.1-15.1-0.1-22.7c0-0.1,0-0.1,0-0.2v-1
			c0.1-2.7,0.8-5.1,2.9-7c0.4-0.4,0.7-0.9,1.1-1.4c8.8-11.2,17.6-22.5,26.5-33.7C209.2,207.7,209.5,207.3,208.8,206.7z M91.9,261
			v4.4C91.8,263.9,91.8,262.4,91.9,261z"/>
	</g>
</g>
<g>
	<path class="st17" d="M127.7,245.3c-1.3,1.9-2.6,3.8-3.9,5.6c-5,7.2-10.1,14.4-15.1,21.7c-1.7,2.4-2.7,2.3-4.2-0.2
		c-3.6-6.3-7.2-12.6-10.8-18.8c-0.1-0.2-0.3-0.5-0.5-0.9c1.2,0,2.3,0,3.4,0c0.2,0,0.5,0.4,0.7,0.7c2.5,4.3,4.9,8.7,7.4,13
		c0.1,0.1,0.2,0.3,0.3,0.4c1.3,1.9,2.4,2,3.9,0.3c3.9-4.6,7.9-9.2,11.8-13.7c0.1-0.1,0.2-0.3,0.1-0.6c-1.4,1.6-2.8,3.2-4.2,4.7
		c-2.6,3-5.2,5.9-7.8,8.9c-0.2,0.2-0.3,0.4-0.5,0.6c-1.2,1.1-2,1-2.9-0.4c-2.7-4.5-5.3-9.1-7.9-13.6c0-0.1,0-0.2-0.1-0.3
		c1-0.3,1.6-0.1,2.1,0.9c1.8,3.5,3.6,6.9,5.5,10.3c0.1,0.3,0.3,0.5,0.4,0.8c0.7,1.1,1.5,1.2,2.5,0.3c1.2-1.1,2.3-2.3,3.4-3.4
		c4.5-4.6,9.1-9.3,13.6-13.9c0.8-0.8,1.7-1.6,2.6-2.4C127.6,245.3,127.6,245.3,127.7,245.3z"/>
	<path class="st17" d="M156.1,251.5c0.9,0,1.7,0,2.6,0c0.7,0,0.6,0.5,0.6,0.9c0,2.4,0,4.8,0,7.2c0,0.3,0,0.7,0,1.2
		c1.4,0,2.7-0.1,4,0c1.4,0.1,2.7,0.2,4,0.5c2,0.5,3.4,1.9,3.8,4c0.2,1.2,0.3,2.4,0.2,3.6c-0.3,2.8-1.8,4.4-4.6,5.1
		c-1.9,0.5-3.9,0.5-5.8,0.1c-3.1-0.7-4.8-2.6-4.9-6c-0.1-5.4,0-10.8,0-16.2C156,251.8,156.1,251.7,156.1,251.5z M162.2,263.4
		C162.2,263.4,162.2,263.4,162.2,263.4c-0.8,0.1-1.6,0-2.3,0.1c-0.2,0-0.6,0.3-0.6,0.5c0,1.5-0.1,3.1,0,4.6c0.1,1.8,1.1,2.7,2.8,3
		c0.4,0.1,0.9,0.1,1.4,0.1c3.6,0.1,5-1.5,4.6-5.1c-0.2-1.8-1.1-2.8-2.9-3C164.2,263.4,163.2,263.4,162.2,263.4z"/>
	<path class="st17" d="M147.2,256.6c2.8-0.6,5,0.9,6.9,2.9c1.2,1.2,1.1,2.7-0.3,3.7c-0.9,0.7-2,1.4-3.1,1.6c-2.5,0.6-5,1-7.5,1.3
		c-0.9,0.1-1.8-0.1-2.7-0.3c-2.5-0.6-3.2-2.2-2-4.5c0.7-1.3,1.5-2.5,3-3.3c-0.2,0.3-0.3,0.5-0.5,0.6c-0.5,0.6-0.3,1.1,0.2,1.4
		c0.5,0.3,1.1,0.5,1.7,0.6c2.3,0.2,4.4-0.3,6.4-1.4c0.3-0.2,0.5-0.4,0.8-0.6c0.7-0.7,0.6-1.3-0.4-1.5
		C148.9,256.8,148,256.7,147.2,256.6z M139.2,261.4c0.1,1.3,0.8,1.7,1.7,1.9c2.3,0.7,4.7,0.5,6.9-0.2c1.5-0.5,3-1.2,4.5-1.9
		c1-0.5,1.1-1.2,0.7-2.1c-0.3,1.2-1.2,1.9-2.2,2.3c-2.4,1.1-5,1.7-7.7,1.6C141.6,262.9,140.2,262.8,139.2,261.4z"/>
	<path class="st17" d="M129.5,274.3c0-2.9,0-5.7,0-8.5c0-1.2,0-2.3,0-3.5c0.1-2.6,1.5-4.4,4-5.2c1.3-0.4,2.7-0.5,4.1-0.8
		c0,1.3,0,2.4,0,3.5c-0.9,0.1-1.8,0.2-2.6,0.4c-1.7,0.4-2.3,1.2-2.3,2.9c0,3.4,0,6.7,0,10.1c0,0.3,0,0.7,0,1.1
		C131.6,274.3,130.6,274.3,129.5,274.3z"/>
	<path class="st17" d="M150.7,265.3c0.8,0.3,1.7,0.6,2.8,0.9c-0.7,0.9-1.3,1.7-1.8,2.4c-0.6,0.1-1,0-1.4,0.2c-2.5,0.7-5.1,1.3-7.7,1
		c-0.9-0.1-1.8-0.3-2.8-0.4c0.4,0.2,0.7,0.5,1.2,0.6c2.3,0.7,4.5,1,6.8-0.2c0.3-0.1,0.7,0.1,1.1,0.2c0.3,0.1,0.7,0.2,1,0.4
		c0.1,0,0.1,0.1,0.3,0.2c-0.5,0.7-1.1,1.3-1.6,2c-0.5,0-1,0-1.4,0c-1.2,0-2.4,0.2-3.6,0.1c-3.6-0.5-6.3-4.4-5.5-7.8
		c1.6,2.3,4.1,2.2,6.4,2.1c1.8-0.1,3.5-0.6,5.3-1C150.1,265.9,150.3,265.6,150.7,265.3z"/>
	<path class="st17" d="M124.4,256.6c1.1,0,2.2,0,3.3,0c0,0.4,0.1,0.7,0.1,1c0,5.2,0,10.5,0,15.7c0,0.9-0.3,1.2-1.1,1.1
		c-0.7-0.1-1.5,0-2.3,0C124.4,268.4,124.4,262.5,124.4,256.6z"/>
	<path class="st17" d="M127.8,252.7c0,1-0.8,1.7-1.8,1.7c-1,0-1.7-0.8-1.7-1.8c0-1,0.8-1.7,1.8-1.7
		C127,250.9,127.8,251.7,127.8,252.7z"/>
	<path class="st17" d="M153.3,271.3c-2.2,3-7,4-10.3,2C146.8,274.1,150.2,273.3,153.3,271.3z"/>
</g>
<g>
</g>
<g>
</g>
<g>
</g>
<g>
</g>
<g>
</g>
<g>
</g>
</svg>
