<?xml version="1.0" encoding="utf-8"?>
<!-- Generator: Adobe Illustrator 21.1.0, SVG Export Plug-In . SVG Version: 6.00 Build 0)  -->
<svg version="1.1" id="Layer_1" xmlns="http://www.w3.org/2000/svg" xmlns:xlink="http://www.w3.org/1999/xlink" x="0px" y="0px"
	 viewBox="0 0 424 330" style="enable-background:new 0 0 424 330;" xml:space="preserve">
<style type="text/css">
	.st0{fill:#39546C;}
	.st1{fill:#F5F2DB;}
	.st2{fill:#F8D022;}
	.st3{fill:#FAC999;}
	.st4{fill:#BBEDF3;}
	.st5{fill:#F79864;}
	.st6{fill:#F8B93D;}
	.st7{fill:#FA8A5D;}
	.st8{fill:#3CCCFB;}
	.st9{fill:#867976;}
	.st10{fill:#D79072;}
	.st11{fill:#CBE7D5;}
	.st12{fill:#3A6361;}
	.st13{fill:#4E5251;}
	.st14{fill:#CDF9EA;}
	.st15{fill:#246550;}
	.st16{fill:#A8A79B;}
	.st17{fill:#067954;}
	.st18{fill:#00A169;}
	.st19{fill:#06DF9E;}
	.st20{fill:#8AC6FC;}
	.st21{fill:#E6C89D;}
	.st22{fill:#FED292;}
	.st23{fill:#FDB538;}
	.st24{fill:#FD985B;}
	.st25{fill:#B7DBFD;}
	.st26{fill:#3C7867;}
	.st27{fill:#FBC796;}
	.st28{fill:#F24A71;}
	.st29{fill:#619BCF;}
	.st30{fill:#F8AB3E;}
	.st31{fill:#FEFCFC;}
	.st32{fill:#FCFDFD;}
	.st33{fill:#FCFCFD;}
	.st34{fill:#FEFDFB;}
	.st35{fill:#F24B72;}
	.st36{fill:#609CCF;}
	.st37{fill:#619CD0;}
	.st38{fill:#F8AB3F;}
</style>
<g>
	<path class="st0" d="M63.8,307c-0.9-2.8-2.4-5.5-2.5-8.3c-0.4-8.6-0.3-17.3-0.4-25.9c0-0.6,0-1.1,0-1.7c0.1-16.6,0.2-33.2,0.2-49.8
		c0-3.8,0.8-7.1,4.5-8.7c1.6-0.7,3.6-0.5,5.4-0.7c1.1,0,2.1,0,3.2,0c10,0.1,20,0.1,30,0.2c-1.7,2-3.5,3.9-5.2,5.9
		c-9,0-18-0.1-27-0.1c-4.9,0-4.9,0-4.9,4.9c0,24.8,0,49.6,0,74.4c0,5,0,5.1,4.8,5.1c39.6,0,79.2,0,118.9,0c4.8,0,4.9-0.1,4.9-4.7
		c0-25.1,0-50.3,0.1-75.4c0-3.1-0.8-4.5-4.2-4.4c-8.8,0.2-17.6,0.1-26.5,0.2c-1.4-1.6-2.8-3.3-4.2-4.9c1.7-0.4,3.5-0.7,5.2-1.1
		c8.8,0,17.6-0.2,26.4-0.1c6.8,0.1,9.2,2.6,9.2,9.5c0,24.9,0,49.8,0,74.8c0,1.7,0.1,3.3,0.1,5l-0.1,0.2c-0.9,1.8-1.8,3.7-2.6,5.5
		c-16,0.1-32,0.2-48,0.2C122.1,307.1,92.9,307,63.8,307z"/>
	<path class="st1" d="M56,312.7c-0.5-0.3-0.9-0.5-1.4-0.8c-1.1-4.7-1.1-4.7,3.3-4.8c1.9,0,3.9-0.1,5.8-0.2c29.1,0,58.3,0.1,87.4,0.1
		c16,0,32-0.1,48-0.2c2.3,0.1,4.5,0.2,6.8,0.2c4.5,0.1,4.5,0.1,3.3,4.8c-0.4,0.2-0.9,0.4-1.3,0.6c-1.8-0.2-3.6-0.5-5.4-0.5
		c-47.1,0-94.1,0-141.2,0C59.6,312.1,57.8,312.5,56,312.7z"/>
	<path class="st2" d="M98.9,218.1c1.7-2,3.5-3.9,5.2-5.9c7.7-6.5,16.6-10,26.6-11c0.9,0,1.7,0,2.6,0c7.3,1.1,14.6,2.5,20.8,6.9
		c1.9,1.3,3.8,2.6,5.6,4c0.4,0.4,0.7,0.7,1.1,1.1c1.4,1.6,2.8,3.3,4.2,4.9c0.6,1.2,1.2,2.3,1.9,3.5c5.6,9.7,6.8,20.1,4,30.8
		c-5,19.3-23.7,31.8-44,29.6c-19-2.1-34.3-18.6-35.3-38C91.2,234.5,94.1,226,98.9,218.1z M132.4,204c-20.2-0.3-38.3,15.4-38.2,37.8
		c0.1,21.6,15.4,37.4,37.2,37.8c22.1,0.4,38-15.3,38.4-37.5C170.2,220.8,153.1,204.1,132.4,204z"/>
	<path class="st3" d="M226,204.3c0-1.6,0.1-2.7-2.1-3.5c-4.7-1.8-6.7-7.7-4.9-12.9c0.1,0.2,0.1,0.3,0.2,0.5c0.1,0.1,0.3,0.3,0.3,0.3
		c5.4-3.3,11.1-5.3,17.4-2.5c0.2,0.9,0.4,1.7,0.7,2.6c0.1-0.9,0.2-1.8,0.3-2.7c0.1-0.2,0.1-0.5,0.2-0.7c2.3,6.3,0.5,11.9-4.9,15.8
		c-0.8,0.6-0.9,2.1-1.3,3.2c-0.9,1.1-1.8,2.1-2.7,3.2C228.2,206.4,227.1,205.4,226,204.3z"/>
	<path class="st3" d="M33.7,174.3c-0.6-1.1-1-2.7-2-3.2c-3.9-2.1-7.4-7.9-6.6-12c0.1-0.7,1.3-1.2,2-1.8c5.9-1.1,11.6-4.8,17.7-0.9
		c2.9,3.7,1.2,11.8-3.4,14c-2.4,1.2-2.6,2.5-2.2,4.5c-1.2,0.8-2.4,1.6-3.6,2.4C34.9,176.3,34.3,175.3,33.7,174.3z"/>
	<path class="st3" d="M127.9,149.9c1.3-1.8,2.3-3.2-1.1-4.1c-3.1-0.7-4.8-3.1-4.9-6.5c-0.1-3.1-2.2-6.2,0-9.3
		c0.4,1.1,0.7,2.1,1.1,3.2c3-1.1,6-2.4,9.1-3.3c3.3-1,6.1-0.1,8,3c0.1,0.1,0.7,0,1,0c1.8,5.2-0.1,10.6-5.1,13
		c-2.9,1.4-1.8,2.5-0.7,4C132.8,152.8,130.4,152.1,127.9,149.9z"/>
	<path class="st4" d="M226,204.3c1.1,1,2.1,2.1,3.2,3.1c0.9-1.1,1.8-2.1,2.7-3.2c1.5,0.2,3.1,0.1,4.4,0.6c1.8,0.7,3.5,1.7,4.9,3
		c0.7,0.6,0.8,2.1,0.7,3.2c0,0.4-1.7,0.7-2.6,0.7c-7,0.1-13.9,0.1-20.9,0c-3,0-3.7-1.3-2-3.5c1.1-1.4,3-2.5,4.7-3.3
		C222.6,204.4,224.4,204.5,226,204.3z"/>
	<path class="st5" d="M127.9,149.9c2.5,2.3,4.9,2.9,7.3,0c3.3-0.2,6.7-0.4,8.9,2.9c1.7,2.5,1,4.1-1.9,4.1c-7.2,0.1-14.3,0.1-21.5,0
		c-3.2,0-3.3-0.6-1.9-3.5C120.9,149.4,124.4,149.8,127.9,149.9z"/>
	<path class="st6" d="M228.9,214.1c4.8-0.1,9.9,4.9,10,9.8c0.1,4.8-5,10.1-9.8,10c-4.9,0-10-5-10-9.8
		C219,219.3,224,214.2,228.9,214.1z M228.9,230.9c3.3,0.1,6.8-3.3,7-6.6c0.2-3.5-3.5-7.2-7-7.1c-3.3,0.1-6.7,3.6-6.7,6.9
		C222.2,227.3,225.6,230.8,228.9,230.9z"/>
	<path class="st6" d="M36.2,204.1c-5,0.4-9.7-2.8-10-9.3c-0.3-4.5,3.3-9.7,9.6-9.9c5.4-0.1,10.3,4.7,10.2,9.9
		C45.8,200.1,41.5,204.1,36.2,204.1z M35.7,201c4.2,0.1,7-2.2,7.2-5.9c0.1-3.5-3.4-7.1-6.8-7.1c-3.4,0-6.9,3.3-6.9,6.5
		C29,198.3,31.7,200.9,35.7,201z"/>
	<path class="st6" d="M131.9,159.1c4.9-0.1,9.9,4.9,10,9.8c0.1,4.8-4.9,9.9-9.8,10c-4.8,0.1-10-4.9-10-9.8
		C122,164.3,127,159.1,131.9,159.1z M138.8,168.9c0-3.3-3.5-6.7-6.8-6.8c-3.3,0-6.8,3.3-6.9,6.7c-0.1,3.5,3.6,7.2,7,7
		C135.5,175.7,138.9,172.2,138.8,168.9z"/>
	<path class="st6" d="M141,132.9c-0.3,0-0.9,0.1-1,0c-1.8-3.2-4.7-4-8-3c-3.1,0.9-6.1,2.2-9.1,3.3c-0.4-1.1-0.7-2.1-1.1-3.2
		c-0.3-3.4,1.6-4.9,4.5-6.1c4-1.6,7.8-1,11.5,0.3c1.3,0.5,2.3,2.6,2.9,4.2C141.3,129.8,141,131.4,141,132.9z"/>
	<path class="st7" d="M236.9,186.1c-6.3-2.7-12-0.8-17.4,2.5c0,0-0.2-0.2-0.3-0.3c-0.1-0.1-0.1-0.3-0.2-0.5c-0.2-3.6,0-7,4-8.7
		c4.6-1.9,9.2-1.7,13.2,0.9c1.2,0.8,1.3,3.5,1.9,5.3c-0.1,0.2-0.1,0.5-0.2,0.7C237.5,186,237.2,186,236.9,186.1z"/>
	<path class="st8" d="M33.7,174.3c0.6,1,1.2,2,1.8,3c1.2-0.8,2.4-1.6,3.6-2.4c2.7,0.9,5.5,1.8,8.1,2.9c0.6,0.3,0.6,1.7,0.9,2.6
		c-0.8,0.2-1.5,0.6-2.3,0.6c-6.4,0-12.9,0-19.3,0c-0.7,0-1.4-0.5-2.1-0.8c0.3-0.7,0.4-1.8,0.9-2.1C28.1,176.7,30.9,175.6,33.7,174.3
		z"/>
	<path class="st9" d="M44.8,156.4c-6.1-3.9-11.8-0.2-17.7,0.9c-0.1-5.2,2.7-8.2,8.1-8.3C41.9,148.8,45.7,151.1,44.8,156.4z"/>
	<path class="st10" d="M144.3,180.8c0.6,0.6,1.1,1.2,1.7,1.8c-0.5,0.4-1,1.1-1.6,1.3c-1.1,0.2-2.2,0.2-3.3,0.2c-6,0-12.1,0-18.1,0
		c-1.7-0.4-4.9,0.7-3.3-3.2c1.7,0,3.4,0,5.1,0.1c4.8,0,9.7,0,14.5,0C140.9,180.9,142.6,180.8,144.3,180.8z"/>
	<path class="st11" d="M221,236.1c5.4,0,10.8,0,16.2,0c1.4-0.1,2.8-0.1,4.2-0.2c2.1,4.3-1.7,2.6-3.3,3.2c-5.7,0-11.4-0.1-17.1-0.1
		c-1.3,0-2.6,0.2-3.8,0c-0.7-0.1-1.3-0.7-1.9-1c0.5-0.7,1-1.3,1.6-2C218.2,236,219.6,236,221,236.1z"/>
	<path class="st12" d="M44,209.1c1.4,2.3,1,3.7-1.9,3.8c-2.1,0.1-4.2,0.2-6.3,0.2c-0.2-0.1-0.5-0.1-0.7,0c-1.8-0.1-3.6-0.2-5.4-0.2
		c-2.5,0-3-1.4-2.7-3.5C32.7,209.3,38.3,209.2,44,209.1z"/>
	<path class="st11" d="M228.2,296.9c0.3-1.3,0.6-2.6,1-3.9c0.4-1.9,1-3.8,1.1-5.7c0.1-14.4,0.1-28.8,0.1-43.2
		c0,15.5,0.1,31-0.1,46.5c0,2.4-0.8,4.8-1.3,7.2C228.8,297.5,228.5,297.2,228.2,296.9z"/>
	<path class="st13" d="M122.9,184.1c6,0,12.1,0,18.1,0c0.1,2-0.8,3-2.9,3c-1.9,0-3.9,0.2-5.8,0.3c-0.2,0-0.4,0-0.7,0
		c-1.9-0.1-3.9-0.2-5.8-0.3C123.8,187.1,122.9,186,122.9,184.1z"/>
	<path class="st13" d="M221,238.9c5.7,0,11.4,0.1,17.1,0.1c0.1,1.6-0.1,3-2.2,3c-4.4,0-8.9,0.1-13.3-0.1
		C220.4,242,220.1,240.6,221,238.9z"/>
	<path class="st14" d="M230.4,244.2c0,14.4,0,28.8-0.1,43.2c0,1.9-0.7,3.8-1.1,5.7c-0.1-15.6-0.1-31.1-0.2-46.7
		c0-0.8,0.2-1.6,0.4-2.4c0-0.1,0.2-0.2,0.3-0.4C229.9,243.8,230.1,244,230.4,244.2z"/>
	<path class="st14" d="M201.8,301.5l0.1-0.2c3.1-0.2,6.2-0.5,9.4-0.7c4.8-0.3,9.6-0.6,14.4-0.9c0.2,0.2,0.4,0.5,0.7,0.7
		c-1,0.5-2,1.4-3,1.4C216.1,301.8,209,301.6,201.8,301.5z"/>
	<g>
		<path class="st14" d="M35.2,213.1c0.2-0.1,0.5-0.1,0.7,0c0.1,14.2,0,28.4,0.2,42.6c0.1,4.4,0.6,8.9,1,13.3l0,0
			c-0.7-1.6-1.9-3.2-1.9-4.8C35,247.2,35.1,230.1,35.2,213.1z"/>
		<path class="st14" d="M60.9,271.2c0,0.6,0,1.1,0,1.7c-5.1,0-10.3,0.4-15.3,0c-2.6-0.2-5-1.8-7.5-2.8l0,0
			C45.6,270.4,53.3,270.8,60.9,271.2z"/>
	</g>
	<path class="st15" d="M241.3,235.9c-1.4,0.1-2.8,0.1-4.2,0.2c0.9-1.1,1.7-2.5,2.9-3.2c3.1-1.7,3.3-4.1,2-6.9l0,0
		c4.9,2.8,5,3.7,1.5,7.3C242.7,234.1,242,235,241.3,235.9z"/>
	<path class="st15" d="M221,236.1c-1.4-0.1-2.8-0.2-4.2-0.3c-0.7-0.9-1.4-1.8-2.1-2.6c-3-3.3-3-3.3,0.3-6.8c0.1,0.5,0.2,1.1,0.3,1.6
		c0.6,1.3,1.1,2.8,1.9,4C218.3,233.6,219.7,234.8,221,236.1z"/>
	<path class="st16" d="M131.6,187.4c0.2,0,0.4,0,0.7,0c0.3,4.6,0.7,9.2,1,13.8c-0.9,0-1.7,0-2.6,0C131,196.6,131.3,192,131.6,187.4z
		"/>
	<path class="st8" d="M44,209.1c-5.7,0.1-11.3,0.2-17,0.2c-1-0.8-2-1.6-3-2.4c1.3,0,2.5,0.1,3.8,0.1c3.6,0.3,7.2,0.6,10.8,0.9
		c1.8,0.1,3.6,0.1,5.5,0.1L44,208C44,208.3,44,208.7,44,209.1z"/>
	<path class="st15" d="M144.3,180.8c-1.7,0-3.3,0.1-5,0.1c2.3-2.3,4.7-4.5,7-6.8c0.6-0.1,1.3-0.2,1.9-0.3l0,0c0,0.8,0,1.5,0,2.3
		l-0.1-0.1c-0.3,0.4-0.7,0.8-1,1.2C146.1,178.5,145.2,179.6,144.3,180.8z"/>
	<path class="st17" d="M49.2,196.8c4.4,3,4.6,4,1.1,7.4c-0.7,0.7-1.5,1.2-2.3,1.8c0.1-1.1,0.1-2.2,0.2-3.3c2-1.7,1.5-3.7,0.8-5.8
		L49.2,196.8z"/>
	<path class="st17" d="M116.8,177.3c-0.7-1-2.1-2.4-1.9-2.8c1-1.6,2.5-2.9,3.8-4.4c0.3,0.4,0.8,0.8,0.8,1.1
		c-0.3,1.6-0.8,3.1-1.3,4.6C117.8,176.3,117.3,176.8,116.8,177.3z"/>
	<path class="st15" d="M116.8,177.3c0.5-0.5,0.9-1,1.4-1.5c2.2,1.7,4.3,3.4,6.5,5.1c-1.7,0-3.4,0-5.1-0.1
		C118.7,179.7,117.8,178.5,116.8,177.3z"/>
	<path class="st17" d="M20.8,203.1c-2.5-3.3-2.5-3.3,2.2-7.1l0,0c-0.2,2.2-0.3,4.3-0.5,6.5C21.9,202.7,21.4,202.9,20.8,203.1z"/>
	<path class="st15" d="M20.8,203.1c0.6-0.2,1.1-0.4,1.7-0.6c0.2,0,0.4,0.1,0.5,0.2c0.7,0.4,1.5,0.8,2.2,1.2c0.9,1,1.7,2.1,2.6,3.1
		c-1.3,0-2.5-0.1-3.8-0.1C22.9,205.6,21.9,204.4,20.8,203.1z"/>
	<path class="st15" d="M48.1,202.8c-0.1,1.1-0.1,2.2-0.2,3.3c-0.3,0.3-0.6,0.7-0.9,1c-0.9,0-1.9,0-2.8-0.1
		C45.5,205.6,46.8,204.2,48.1,202.8z"/>
	<path class="st17" d="M148.2,173.8c-0.6,0.1-1.3,0.2-1.9,0.3c-0.4-1-0.9-2.1-1.3-3.1l0.1-0.1C146.1,171.9,147.1,172.8,148.2,173.8z
		"/>
	<path class="st17" d="M160.8,213.1c-0.4-0.4-0.7-0.7-1.1-1.1c2.1,0,4.2,0,6.3,0C164.3,212.4,162.6,212.8,160.8,213.1z"/>
	<path class="st18" d="M215.3,228.1c-0.1-0.5-0.2-1.1-0.3-1.6c0.5-0.3,0.9-0.5,1.4-0.8C216,226.5,215.6,227.3,215.3,228.1z"/>
	<path class="st14" d="M228.2,296.9c0.3,0.3,0.5,0.6,0.8,0.9c-0.9,0.9-1.8,1.7-2.7,2.6c-0.2-0.2-0.4-0.5-0.7-0.7
		C226.5,298.7,227.4,297.8,228.2,296.9z"/>
	<path class="st17" d="M148.1,176.1c0-0.8,0-1.5,0-2.3C149.9,174.6,149.7,175.4,148.1,176.1z"/>
	<path class="st8" d="M44.2,207c0.9,0,1.9,0,2.8,0.1c-1,0.3-2,0.6-3.1,0.9L44,208C44.1,207.7,44.2,207.4,44.2,207z"/>
	<path class="st17" d="M74.1,212c-1.1,0-2.1,0-3.2,0C72,212,73,212,74.1,212z"/>
	<path class="st17" d="M48.9,197.1c-0.1-0.3-0.3-0.7-0.4-1c0.2,0.3,0.5,0.5,0.7,0.8L48.9,197.1z"/>
	<path class="st17" d="M25.2,203.9c-0.7-0.4-1.5-0.8-2.2-1.2C23.7,203.1,24.5,203.5,25.2,203.9z"/>
	<path class="st15" d="M242,226c-0.2-0.2-0.3-0.4-0.5-0.6C241.7,225.6,241.8,225.8,242,226C242,226,242,226,242,226z"/>
	<path class="st17" d="M145,171c-0.2-0.2-0.4-0.4-0.6-0.6c0.1-0.1,0.3-0.2,0.4-0.3C144.9,170.4,145,170.7,145,171L145,171z"/>
	<path class="st17" d="M23,196c0.1-0.1,0.1-0.2,0.2-0.3C23.1,195.8,23,195.9,23,196C23,196,23,196,23,196z"/>
	<path class="st19" d="M38,270c-0.3-0.3-0.7-0.7-1-1l0,0C37.3,269.3,37.7,269.7,38,270C38,270,38,270,38,270z"/>
	<path class="st17" d="M147.1,177.3c0.3-0.4,0.7-0.8,1-1.2C147.8,176.5,147.4,176.9,147.1,177.3z"/>
	<path class="st20" d="M98.9,218.1c-4.9,8-7.7,16.4-7.2,25.9c1,19.4,16.3,35.9,35.3,38c20.3,2.2,39-10.3,44-29.6
		c2.8-10.7,1.5-21.1-4-30.8c-0.7-1.1-1.3-2.3-1.9-3.5c8.8,0,17.6,0.1,26.5-0.2c3.4-0.1,4.2,1.2,4.2,4.4c-0.1,25.1,0,50.3-0.1,75.4
		c0,4.6-0.1,4.7-4.9,4.7c-39.6,0-79.2,0-118.9,0c-4.8,0-4.8-0.1-4.8-5.1c0-24.8,0-49.6,0-74.4c0-4.9,0-4.9,4.9-4.9
		C81,218,90,218,98.9,218.1z M131.5,288c-8.1,0-16.3-0.1-24.4,0.1c-2,0-5.6-1.3-5.6,2.1c0,3,3.4,1.8,5.3,1.8
		c16.4,0.1,32.9,0.1,49.3,0.1c0.8,0,1.7,0.2,2.5-0.1c1.1-0.4,2-1.2,3.1-1.8c-1.1-0.7-2.1-1.6-3.3-2c-0.9-0.3-2-0.1-3-0.1
		C147.4,288,139.5,288,131.5,288z"/>
	<path class="st21" d="M56,312.7c1.8-0.2,3.6-0.7,5.4-0.7c47.1,0,94.1,0,141.2,0c1.8,0,3.6,0.3,5.4,0.5c-0.7,0.4-1.4,0.8-2.1,1.3
		c-1.8-0.3-3.6-0.8-5.3-0.8c-45.7,0-91.5,0-137.2,0c-1.8,0-3.5,0.5-5.3,0.8C57.4,313.5,56.7,313.1,56,312.7z"/>
	<path class="st22" d="M58,313.8c1.8-0.3,3.5-0.8,5.3-0.8c45.7,0,91.5,0,137.2,0c1.8,0,3.6,0.5,5.3,0.8c-1.2,0.1-2.3,0.2-3.5,0.2
		c-47,0-93.9,0-140.9,0C60.4,314,59.2,313.9,58,313.8z"/>
	<path class="st23" d="M132.4,204c20.7,0.1,37.8,16.8,37.4,38.1c-0.4,22.2-16.3,37.9-38.4,37.5c-21.8-0.4-37-16.2-37.2-37.8
		C94,219.4,112.2,203.7,132.4,204z M146.1,266c10-5.7,14.3-14.4,13.9-25.7c-0.4-10.8-6.1-18.3-15.2-23.5c-9.5-5.4-24.6-3.8-34,6.6
		c-10.8,12-8.6,34.8,7.6,42.6C127.6,271.6,136.8,271.3,146.1,266z"/>
	<path class="st5" d="M236.9,186.1c0.3,0,0.7-0.1,1-0.1c-0.1,0.9-0.2,1.8-0.3,2.7C237.3,187.8,237.1,186.9,236.9,186.1z"/>
	<path class="st24" d="M228.9,230.9c-3.3-0.1-6.7-3.6-6.7-6.8c0-3.3,3.4-6.8,6.7-6.9c3.5-0.1,7.1,3.6,7,7.1
		C235.7,227.6,232.2,230.9,228.9,230.9z M229.5,223.6c-0.2-0.8-0.4-1.6-0.7-2.4c-0.2,0.9-0.3,1.8-0.5,2.7c0,0.1,0.2,0.2,0.3,0.3
		c0.1,0.9,0.2,1.7,0.3,2.6c0.4-0.2,1.2-0.5,1.2-0.6C230.1,225.4,229.8,224.5,229.5,223.6z"/>
	<path class="st24" d="M35.7,201c-3.9-0.1-6.7-2.8-6.6-6.5c0-3.2,3.5-6.5,6.9-6.5c3.5,0,7,3.7,6.8,7.1
		C42.7,198.8,39.8,201.1,35.7,201z M35.6,197.8c0.4,0,0.7,0,1.1,0c0.3-0.9,1.1-2,0.9-2.8c-0.4-1.3-1.4-2.4-2.1-3.6
		c-0.3,0.8-0.9,1.7-0.8,2.4C34.7,195.3,35.2,196.5,35.6,197.8z"/>
	<path class="st24" d="M138.8,168.9c0,3.3-3.4,6.8-6.7,6.9c-3.5,0.1-7.2-3.6-7-7c0.1-3.3,3.6-6.7,6.9-6.7
		C135.4,162.2,138.8,165.6,138.8,168.9z M131.6,164.4c-0.6,1.9-1.3,2.8-1.1,3.5c0.4,1.4,1.3,2.6,2,3.9c0.4-0.8,1.2-1.6,1.1-2.3
		C133.3,168,132.6,166.7,131.6,164.4z"/>
	<path class="st25" d="M131.5,288c8,0,15.9,0,23.9,0c1,0,2.1-0.2,3,0.1c1.2,0.4,2.2,1.3,3.3,2c-1,0.6-2,1.4-3.1,1.8
		c-0.7,0.3-1.6,0.1-2.5,0.1c-16.4,0-32.9,0-49.3-0.1c-1.9,0-5.3,1.2-5.3-1.8c0-3.4,3.5-2,5.6-2.1C115.2,287.9,123.4,288,131.5,288z"
		/>
	<path class="st24" d="M118.4,266c-16.3-7.8-18.5-30.6-7.6-42.6c9.4-10.4,24.5-12,34-6.6c9.1,5.1,14.8,12.7,15.2,23.5
		c0.4,11.2-3.9,20-13.9,25.7c-0.1-1.8,0.1-3.6-0.2-5.3c-0.8-4.4-3.8-6-10.7-5.8c-0.3-2.1,0.9-3.1,2.6-4.1c4-2.3,5.7-7.8,4.2-12.6
		c-0.1-0.7-0.2-1.4-0.2-2.1c-0.6-2-0.6-4.9-2-5.8c-4-2.8-8.7-2.7-13.3-0.9c-4,1.6-4.6,4.9-4.4,8.6c-1.6,4.9,0.2,10,4.1,12.8
		c1.3,0.9,2,2.6,2.9,4c-0.8,0-1.6,0-2.5,0.1c-5.4,0.3-7.6,2.4-8.1,7.8C118.5,263.8,118.4,264.9,118.4,266z"/>
	<path class="st26" d="M135.1,254.9c6.9-0.2,9.9,1.4,10.7,5.8c0.3,1.7,0.2,3.6,0.2,5.3c-9.2,5.3-18.5,5.6-27.7,0
		c0.1-1.1,0.1-2.3,0.2-3.4c0.5-5.4,2.6-7.5,8.1-7.8c0.8-0.1,1.6,0,2.5-0.1C131.9,258.8,132.7,258.8,135.1,254.9z"/>
	<path class="st3" d="M229.5,223.6c0.3,0.9,0.6,1.8,0.7,2.7c0,0.1-0.8,0.4-1.2,0.6c-0.1-0.9-0.2-1.7-0.3-2.6
		C229,224,229.3,223.8,229.5,223.6z"/>
	<path class="st3" d="M228.7,224.2c-0.1-0.1-0.3-0.2-0.3-0.3c0.1-0.9,0.3-1.8,0.5-2.7c0.2,0.8,0.4,1.6,0.7,2.4
		C229.3,223.8,229,224,228.7,224.2z"/>
	<path class="st3" d="M35.6,197.8c-0.4-1.3-0.9-2.6-1-3.9c-0.1-0.8,0.5-1.6,0.8-2.4c0.7,1.2,1.7,2.3,2.1,3.6
		c0.2,0.8-0.5,1.8-0.9,2.8C36.3,197.9,35.9,197.8,35.6,197.8z"/>
	<path class="st3" d="M131.6,164.4c0.9,2.3,1.7,3.6,1.9,5c0.1,0.7-0.7,1.5-1.1,2.3c-0.7-1.3-1.6-2.5-2-3.9
		C130.3,167.2,131,166.3,131.6,164.4z"/>
	<path class="st27" d="M135.1,254.9c-2.4,4-3.2,3.9-6.1-0.2c-1-1.3-1.7-3.1-2.9-4c-3.9-2.8-5.7-7.9-4.1-12.8
		c5.9-1.1,11.5-5.2,17.9-1.8c0.3,3,0.3,3,2,2c1.5,4.8-0.2,10.3-4.2,12.6C136,251.8,134.8,252.7,135.1,254.9z"/>
	<path class="st9" d="M139.9,236.2c-6.4-3.4-12,0.7-17.9,1.8c-0.2-3.7,0.3-7,4.4-8.6c4.6-1.8,9.3-1.9,13.3,0.9
		c1.4,0.9,1.4,3.8,2,5.8C141.1,236.1,140.5,236.1,139.9,236.2z"/>
	<path class="st16" d="M139.9,236.2c0.6,0,1.2,0,1.8-0.1c0.1,0.7,0.2,1.4,0.2,2.1C140.2,239.2,140.2,239.2,139.9,236.2z"/>
</g>
<g id="naz5dt.tif">
	<g>
		<path class="st28" d="M252.7,181.4c-3.4-0.2-6.6-0.2-9.8-0.6c-9.7-1.1-16.3-6.6-20.6-15.2c-9.6-18.9-3.3-45.6,13.7-57.8
			c5.8-4.1,12.4-6.2,19.3-6.9c9.1-0.9,18.2-1.5,27.4-2.1c14-0.9,28-1.7,42.1-2.5c10.1-0.6,20.2-1,30.4-1.4c7.5-0.3,15-0.4,22.5-0.6
			c8.2-0.1,14.5,3.2,19.2,10.1c3.9,5.9,5.9,12.1,6,19.2c0,10.9-0.5,21.8-2.3,32.5c-1.1,6.6-4.6,12.1-9.6,16.4
			c-3.1,2.7-6.9,3.7-10.9,3.7c-7.7,0.1-15.4-0.1-23,0.1c-17,0.4-34,0.7-51,1.3c-11.6,0.4-23.2,1.2-34.7,1.9c-0.5,0-1.3,0.4-1.4,0.7
			c-1.3,4.5-4.3,7.6-7.5,10.7c-3.9,3.7-8.4,6.3-13.5,8.1c-1.2,0.4-2.3,0.5-3-0.7c-0.7-1.1-0.6-2.3,0.2-3.3c1.1-1.3,2.3-2.6,3.3-4.1
			C251.3,188.2,252.3,184.8,252.7,181.4z M338.4,135.2c0.7,1.5,1.4,3.1,2.1,4.7c3,7.1,6,14.2,9.1,21.3c0.6,1.3,1.5,2.6,2.7,3.3
			c2.7,1.5,6.1-0.8,6-4.8c-0.6-15.5-1.1-31-1.6-46.5c-0.1-2.8-1.9-4.7-4.4-4.6c-2.5,0.1-4.1,2-4.1,4.7c0.1,3.2,0.2,6.4,0.3,9.6
			c0.2,5,0.3,10,0.5,15.5c-0.3-0.6-0.4-0.9-0.6-1.1c-3.7-8-7.3-16-11.1-24c-0.4-0.8-1.1-1.7-1.8-2.2c-3-1.8-6.4,0.4-6.3,4.1
			c0.2,12,0.4,24,0.8,36c0.1,4.1,0.5,8.1,0.9,12.2c0.2,2.2,1.8,3.4,3.7,3.4c1.9-0.1,3.3-1.5,3.5-3.6c0.2-3.1,0.3-6.2,0.4-9.3
			C338.4,147.5,338.4,141.3,338.4,135.2z M272.7,150.5c0.1,0.1,0.3,0.2,0.5,0.5c3.2,3.6,6.4,7.1,9.6,10.7c1.1,1.3,2.1,2.8,3.2,4.1
			c1.6,1.9,4.2,2.1,6,0.6c1.8-1.5,2-3.7,0.5-5.8c-0.6-0.8-1.2-1.7-1.9-2.5c-3.7-4.4-7.5-8.8-11.3-13.2c0.6-0.3,1.2-0.6,1.9-1
			c5.4-3,8.5-7.5,8.8-13.6c0.4-9.7-7.1-17.5-17.1-17.6c-7.3-0.1-10.1,2.5-9.7,9.5c0.4,7.2,0.5,14.5,0.7,21.7
			c0.2,6.7,0.4,13.4,0.7,20.1c0.1,2.3,1.7,3.8,3.8,3.9c2.2,0.1,4-1.3,4.3-3.6c0.1-1,0.1-2,0.1-2.9
			C272.7,157.8,272.7,154.2,272.7,150.5z M389.4,138.8c-0.1-7.4-2.2-14.5-5.6-21.2c-2.3-4.5-6-7.1-10.9-8c-2.4-0.4-5-0.5-7.5-0.4
			c-3.5,0.1-4.8,1.5-4.8,5c0,2.6,0.1,5.1,0.2,7.7c0.5,9.9,0.9,19.9,1.4,29.8c0.1,2.9,0.3,5.9,0.6,8.8c0.3,2.3,2.2,3.7,4.2,3.5
			c2-0.2,4-0.4,6-0.6c4.5-0.4,8.2-2.4,10.8-6.2C387.8,151.7,389.4,145.6,389.4,138.8z M314.5,119.2c2.6-0.1,4.9-0.2,7.2-0.4
			c2.3-0.2,3.9-2,3.9-4.1c-0.1-2.1-1.7-4.1-3.7-4c-3.8,0-7.6,0.1-11.4,0.3c-2.4,0.1-3.7,1.7-3.8,4.1c0,2-0.1,4,0,6
			c0.3,7.1,0.7,14.3,1,21.4c0.3,6.5,0.7,12.9,1.1,19.4c0.2,2.6,1.7,4.1,4.3,4.1c3.7,0,7.4-0.1,11.1-0.3c1-0.1,2.1-0.7,2.8-1.4
			c1.2-1.2,1.3-2.8,0.6-4.3c-0.7-1.7-2.2-2.4-4-2.4c-2.2-0.1-4.3,0-6.7,0c-0.3-5.2-0.6-10.5-0.9-16c1.5,0,2.8,0,4,0
			c2.8,0.1,4.9-1.6,4.9-4.1c0-2.4-1.9-4.1-4.7-4.2c-1.6,0-3.1,0-4.8,0C315.2,128.5,314.9,123.9,314.5,119.2z M242.8,122.1
			c5.3-0.2,10.4-0.4,15.4-0.6c2-0.1,3.5-1.6,3.9-3.6c0.3-1.6-0.8-3.5-2.5-4.2c-0.8-0.3-1.7-0.4-2.5-0.4c-5,0.2-9.9,0.5-14.8,0.6
			c-6.2,0.2-7.4,1.4-7.2,7.5c0.3,10.3,0.8,20.6,1.2,30.8c0.2,4.2,0.4,8.4,0.5,12.6c0.1,1.7,0.6,3.2,2.2,4.1c2.8,1.5,6-0.5,5.9-3.9
			c0-3.8-0.3-7.5-0.5-11.3c-0.1-2.8-0.3-5.6-0.4-8.4c0.7,0,1.3-0.1,1.8-0.1c2.3-0.3,4.7-0.4,6.9-1c2.1-0.5,3.1-2.6,2.6-4.7
			c-0.4-1.9-2.2-3.2-4.2-3.1c-0.8,0-1.5,0.2-2.3,0.3c-1.7,0.2-3.4,0.4-5.3,0.6C243.3,132.2,243,127.2,242.8,122.1z M293.6,116.3
			c0.7,14.1,1.4,27.8,2.1,41.5c0.1,2,0.2,3.9,0.5,5.8c0.4,2.2,2.5,3.3,4.6,2.9c2.1-0.4,3.5-2.2,3.4-4.3c-0.2-2.6-0.3-5.1-0.4-7.7
			c-0.6-11.7-1.2-23.5-1.8-35.2c-0.1-1.5-0.1-2.9-0.4-4.4c-0.3-1.9-1.8-3.2-3.6-3.3c-1.8-0.1-3.6,0.9-4.1,2.6
			C293.7,115,293.7,115.9,293.6,116.3z"/>
		<path class="st29" d="M255.3,70.8c0,16.6-8.1,27.1-21.7,33.9c-7.2,3.5-14.8,5.4-22.7,6.2c-8.4,0.8-16.8,1.3-25.2,1.5
			c-4.1,0.1-8.1-0.5-12.2-0.7c-0.6,0-1.4,0.4-2,0.8c-6.1,5.3-13.2,7.9-21.2,8.2c-0.5,0-1,0.1-1.5-0.1c-0.7-0.3-1.5-0.6-1.7-1.2
			c-0.2-0.5,0.1-1.5,0.5-2c2.5-2.8,4.3-6,5.5-9.6c0.4-1.2,0.3-1.9-0.9-2.6c-14.4-8.3-22.6-21-25.9-37.1c-2-9.7-1.3-19.3,3.1-28.4
			c4-8.3,10.4-14,19-17.4c12.1-4.8,24.7-7,37.5-8c6-0.5,12-0.9,17.9-0.9c11.1,0,21.3,2.7,30.1,9.9c7.7,6.4,12.9,14.5,16.4,23.8
			C253.2,55.2,255.2,63.3,255.3,70.8z M230.8,65.5c0.5-0.3,0.9-0.6,1.4-0.8c5-3.2,7-8.9,5.2-14.5c-1.9-5.6-6.9-9-12.8-8.5
			c-4.1,0.3-5.4,1.6-5.4,5.7c0,3.9,0.1,7.7,0.2,11.6c0.2,7.7,0.4,15.3,0.7,23c0.1,2.2,1.4,3.6,3.4,3.5c1.9,0,3.2-1.4,3.2-3.6
			c0-2.2-0.1-4.4-0.2-6.5c0-1.2,0-2.4,0-3.9c0.4,0.5,0.6,0.8,0.8,1.1c2.4,4,4.8,7.9,7.2,11.9c1,1.7,2.8,2.2,4.5,1.4
			c1.6-0.8,2.2-2.6,1.5-4.3c-0.2-0.6-0.5-1.1-0.8-1.6C236.7,75.2,233.8,70.4,230.8,65.5z M147.2,73.3c0.8,0.8,1.4,1.4,1.9,2
			c2.2,2.8,4.3,5.6,6.4,8.4c1.1,1.5,3,1.9,4.5,1.1c1.6-0.9,2.1-2.9,1.2-4.6c-0.6-1.1-1.3-2.2-2-3.2c-2.4-3-4.8-6-7.3-9
			c3.7-2.3,5.8-5.8,6.9-10c1.6-6.3-0.4-11.7-5.7-14.3c-2.9-1.5-6-2-9.2-2c-2.5,0-3.4,0.9-3.7,3.4c-0.1,1.4-0.3,2.8-0.2,4.2
			c0.1,6.9,0.2,13.7,0.4,20.6c0.1,4.2,0.3,8.5,0.6,12.7c0.1,0.9,0.7,2,1.4,2.5c2.1,1.5,4.8,0,4.8-2.7
			C147.2,79.6,147.2,76.6,147.2,73.3z M206.5,48.2c2.7,0,5.2,0.1,7.8,0c1.9-0.1,3.2-1.5,3.2-3.3c0-1.7-1.3-3.1-3.1-3.2
			c-3.3,0-6.6,0-10,0.2c-2.9,0.2-4.1,1.7-4.3,4.6c-0.1,1.7-0.1,3.4-0.1,5.1c0.1,10.3,0.3,20.6,0.5,30.8c0,1.9,1.3,3.2,3.1,3.2
			c3.6,0.1,7.2,0.1,10.8,0c2.2-0.1,3.6-2,3.1-4.1c-0.4-1.5-1.7-2.4-3.4-2.5c-2.3,0-4.5,0-7.1,0c0-4.2,0-8.1,0-12.2
			c1.4,0.1,2.9,0.2,4.3,0.2c2.2,0.1,4.1-1.3,4.1-3.3c0-1.9-1.5-3.4-3.8-3.4c-1.6,0-3.2,0-5,0C206.5,56.2,206.5,52.3,206.5,48.2z
			 M170,66.3c0.8,0,1.7,0,2.7,0c2.4,0,4.1-1.3,4.1-3.3c0-1.9-1.6-3.3-4.1-3.3c-1.1,0-2.2,0-3.5,0c-0.2-3.9-0.4-7.6-0.6-11.1
			c0.3-0.2,0.3-0.2,0.4-0.2c1.5,0,3.1,0,4.6-0.1c0.7,0,1.5-0.2,2.2-0.5c1.4-0.6,1.9-1.9,1.7-3.4c-0.3-1.5-1.4-2.7-2.9-2.7
			c-2.9,0-5.9,0-8.8,0.1c-1.8,0.1-3.1,1.1-3.3,2.5c-0.2,1.2-0.3,2.5-0.2,3.7c0.4,11.2,0.8,22.4,1.2,33.6c0.1,3,1.3,4.2,4.4,4.2
			c2.4,0,4.8,0,7.2-0.1c2.4,0,3.8-1.3,3.8-3.3c0-2-1.4-3.3-3.8-3.3c-1.3,0-2.6,0.1-3.9,0c-0.4,0-1.1-0.6-1.1-1
			C170,74.2,170,70.4,170,66.3z M186.9,47.9c2.7,0,5.5,0,8.2,0c2,0,3.6-1.5,3.5-3.3c0-1.8-1.6-3.3-3.6-3.3c-3.3,0-6.5,0-9.8,0.1
			c-3.7,0.1-5.2,1.6-5.2,5.4c0,5,0.2,10,0.3,15c0.1,6.5,0.3,13,0.4,19.4c0,0.5,0.1,1.1,0.2,1.6c0.5,1.7,2,2.7,3.6,2.4
			c1.8-0.3,3-1.6,3-3.3c0-2.3-0.2-4.7-0.2-7c0-3,0-6,0-9.1c0.7,0.1,1.4,0.2,2.1,0.2c0.8,0,1.7,0.1,2.4-0.1c1.5-0.5,2.3-1.7,2.2-3.3
			c-0.1-1.6-1-2.7-2.6-3c-1.5-0.3-3-0.3-4.7-0.5C186.9,55.5,186.9,51.8,186.9,47.9z"/>
		<path class="st30" d="M275.8,77.6c-2.1-2-4.4-3.9-6.2-6c-10.1-11.9-9.7-32.1,4.7-43.6c5-3.9,10.4-6.8,16.7-7.6
			c8.6-1,16.2,1.5,22.7,7.1c7.5,6.4,11.6,14.5,11.6,24.4c-0.1,15.3-12.2,29-27.3,30.9c-3.1,0.4-6.3-0.2-9.4-0.3
			c-0.7,0-1.6,0.1-2.2,0.5c-3.9,2.7-8.2,4-13,3.2c-0.4-0.1-0.8-0.1-1.1-0.3c-0.6-0.4-1.3-0.9-1.4-1.5c-0.1-0.5,0.4-1.3,0.9-1.7
			C274,80.9,275.1,79.7,275.8,77.6z M298.7,62.4c0.1,1.1,0.1,1.8,0.1,2.5c0.1,2.1,0.2,4.1,0.4,6.2c0.2,2,1.7,3.4,3.5,3.3
			c1.8-0.1,3.2-1.6,3.2-3.6c0-0.5,0-1.1-0.1-1.6c-0.5-8-1-16.1-1.7-24.1c-0.2-2.4-0.6-4.8-1.2-7c-1-3.4-3.1-6-6.5-7.2
			c-4.3-1.5-9.1,0.6-11.1,5.4c-1.2,3-1.9,6.4-2.2,9.6c-0.7,6.5-0.9,13-1.3,19.5c-0.1,2.3-0.1,4.7,0.2,7c0.3,2.2,2.9,3.2,4.5,1.8
			c0.7-0.6,1.3-1.8,1.4-2.8c0.3-2.5,0.3-5.1,0.5-7.7c0-0.5,0.6-1.3,1-1.3C292.4,62.3,295.5,62.4,298.7,62.4z"/>
		<path class="st31" d="M338.4,135.2c0,6.2,0,12.3,0,18.5c0,3.1-0.2,6.2-0.4,9.3c-0.1,2.2-1.5,3.6-3.5,3.6c-1.9,0.1-3.5-1.2-3.7-3.4
			c-0.4-4.1-0.8-8.1-0.9-12.2c-0.3-12-0.5-24-0.8-36c-0.1-3.6,3.3-5.8,6.3-4.1c0.8,0.5,1.4,1.3,1.8,2.2c3.7,8,7.4,16,11.1,24
			c0.1,0.2,0.2,0.5,0.6,1.1c-0.2-5.4-0.3-10.4-0.5-15.5c-0.1-3.2-0.2-6.4-0.3-9.6c-0.1-2.8,1.6-4.7,4.1-4.7c2.5-0.1,4.3,1.8,4.4,4.6
			c0.5,15.5,0.9,31,1.6,46.5c0.2,4.1-3.3,6.4-6,4.8c-1.2-0.7-2.1-2-2.7-3.3c-3.1-7.1-6.1-14.2-9.1-21.3
			C339.8,138.3,339.1,136.7,338.4,135.2z"/>
		<path class="st31" d="M272.7,150.5c0,3.7,0,7.3,0,10.9c0,1,0.1,2-0.1,2.9c-0.4,2.3-2.1,3.7-4.3,3.6c-2.2-0.1-3.7-1.6-3.8-3.9
			c-0.3-6.7-0.5-13.4-0.7-20.1c-0.2-7.2-0.3-14.5-0.7-21.7c-0.4-7,2.4-9.6,9.7-9.5c10,0.1,17.5,7.9,17.1,17.6
			c-0.3,6.2-3.4,10.7-8.8,13.6c-0.7,0.4-1.3,0.7-1.9,1c3.8,4.4,7.6,8.8,11.3,13.2c0.7,0.8,1.3,1.6,1.9,2.5c1.6,2.1,1.4,4.3-0.5,5.8
			c-1.8,1.5-4.4,1.2-6-0.6c-1.1-1.3-2.1-2.8-3.2-4.1c-3.2-3.6-6.4-7.2-9.6-10.7C273,150.7,272.8,150.6,272.7,150.5z M271.2,120.6
			c0.2,6,0.4,11.9,0.7,17.7c5.5,0.2,9.7-3.9,9.7-8.9C281.4,124.1,277,120.2,271.2,120.6z"/>
		<path class="st31" d="M389.4,138.8c-0.1,6.8-1.6,12.9-5.5,18.4c-2.7,3.7-6.3,5.7-10.8,6.2c-2,0.2-4,0.4-6,0.6
			c-2,0.2-3.9-1.2-4.2-3.5c-0.4-2.9-0.5-5.8-0.6-8.8c-0.5-9.9-1-19.9-1.4-29.8c-0.1-2.6-0.2-5.1-0.2-7.7c0-3.5,1.3-4.9,4.8-5
			c2.5-0.1,5,0,7.5,0.4c4.9,0.9,8.6,3.6,10.9,8C387.3,124.3,389.4,131.4,389.4,138.8z M368.8,116.7c0.7,12.9,1.4,25.7,2.1,38.5
			c2.6,0.2,4.6-0.6,6.1-2.6c1.9-2.6,3-5.5,3.6-8.7c1.4-7.9-0.6-15.3-3.9-22.5C375.1,118.1,372.4,116.9,368.8,116.7z"/>
		<path class="st31" d="M314.5,119.2c0.3,4.7,0.7,9.3,1,14.1c1.7,0,3.2,0,4.8,0c2.8,0,4.7,1.8,4.7,4.2c0,2.5-2.1,4.2-4.9,4.1
			c-1.2,0-2.5,0-4,0c0.3,5.4,0.6,10.7,0.9,16c2.4,0,4.6,0,6.7,0c1.7,0.1,3.2,0.8,4,2.4c0.7,1.5,0.6,3.1-0.6,4.3
			c-0.7,0.7-1.8,1.4-2.8,1.4c-3.7,0.3-7.4,0.3-11.1,0.3c-2.6,0-4.2-1.4-4.3-4.1c-0.4-6.5-0.8-12.9-1.1-19.4
			c-0.4-7.1-0.7-14.2-1-21.4c-0.1-2-0.1-4,0-6c0-2.4,1.4-3.9,3.8-4.1c3.8-0.2,7.6-0.3,11.4-0.3c2,0,3.7,1.9,3.7,4
			c0.1,2.1-1.5,3.9-3.9,4.1C319.4,119,317.1,119.1,314.5,119.2z"/>
		<path class="st31" d="M242.8,122.1c0.3,5.1,0.5,10,0.8,15.2c1.8-0.2,3.6-0.4,5.3-0.6c0.8-0.1,1.5-0.2,2.3-0.3
			c2-0.1,3.8,1.2,4.2,3.1c0.5,2-0.5,4.1-2.6,4.7c-2.2,0.6-4.6,0.7-6.9,1c-0.5,0.1-1.1,0.1-1.8,0.1c0.1,2.8,0.2,5.6,0.4,8.4
			c0.2,3.8,0.5,7.5,0.5,11.3c0,3.4-3.1,5.4-5.9,3.9c-1.6-0.9-2.1-2.4-2.2-4.1c-0.2-4.2-0.4-8.4-0.5-12.6
			c-0.4-10.3-0.8-20.6-1.2-30.8c-0.2-6.1,1-7.3,7.2-7.5c5-0.2,9.9-0.4,14.8-0.6c0.8,0,1.8,0.1,2.5,0.4c1.7,0.7,2.8,2.5,2.5,4.2
			c-0.3,2-1.9,3.5-3.9,3.6C253.2,121.8,248.1,121.9,242.8,122.1z"/>
		<path class="st31" d="M293.6,116.3c0.1-0.4,0.1-1.3,0.3-2c0.5-1.7,2.3-2.8,4.1-2.6c1.8,0.1,3.3,1.4,3.6,3.3
			c0.2,1.4,0.3,2.9,0.4,4.4c0.6,11.7,1.2,23.5,1.8,35.2c0.1,2.6,0.3,5.1,0.4,7.7c0.1,2.2-1.2,3.9-3.4,4.3c-2.1,0.4-4.2-0.7-4.6-2.9
			c-0.4-1.9-0.4-3.9-0.5-5.8C295,144.1,294.3,130.4,293.6,116.3z"/>
		<path class="st32" d="M230.8,65.5c3,4.9,5.9,9.7,8.8,14.5c0.3,0.5,0.6,1,0.8,1.6c0.7,1.8,0,3.5-1.5,4.3c-1.7,0.8-3.5,0.2-4.5-1.4
			c-2.4-4-4.8-7.9-7.2-11.9c-0.2-0.3-0.4-0.6-0.8-1.1c0,1.5,0,2.7,0,3.9c0.1,2.2,0.2,4.4,0.2,6.5c0,2.2-1.3,3.6-3.2,3.6
			c-2,0-3.3-1.3-3.4-3.5c-0.2-7.7-0.4-15.3-0.7-23c-0.1-3.9-0.2-7.7-0.2-11.6c0-4.1,1.3-5.4,5.4-5.7c5.9-0.4,11,2.9,12.8,8.5
			c1.9,5.6-0.2,11.3-5.2,14.5C231.7,65,231.2,65.2,230.8,65.5z M225.8,59.8c3.6-0.4,5.6-3,5.3-6.5c-0.2-3-2.8-5.2-5.8-5
			C225.5,52.2,225.7,56,225.8,59.8z"/>
		<path class="st32" d="M147.2,73.3c0,3.3,0,6.2,0,9.1c-0.1,2.7-2.7,4.1-4.8,2.7c-0.7-0.5-1.3-1.6-1.4-2.5
			c-0.3-4.2-0.5-8.5-0.6-12.7c-0.2-6.9-0.3-13.7-0.4-20.6c0-1.4,0.1-2.8,0.2-4.2c0.2-2.5,1.1-3.4,3.7-3.4c3.2,0,6.3,0.5,9.2,2
			c5.2,2.7,7.3,8,5.7,14.3c-1.1,4.2-3.2,7.7-6.9,10c2.5,3.1,4.9,6,7.3,9c0.8,1,1.4,2.1,2,3.2c0.9,1.7,0.4,3.6-1.2,4.6
			c-1.5,0.9-3.3,0.5-4.5-1.1c-2.1-2.8-4.3-5.6-6.4-8.4C148.5,74.7,147.9,74.2,147.2,73.3z M146.1,47.8c0.2,5.4,0.4,10.2,0.6,15.2
			c0.5-0.2,0.8-0.2,1.1-0.3c3-1.4,5.6-7,4.6-10.2c-0.2-0.7-0.7-1.6-1.3-2C149.7,49.5,148,48.8,146.1,47.8z"/>
		<path class="st32" d="M206.5,48.2c0,4.1,0,8,0,12.2c1.8,0,3.4,0,5,0c2.3,0.1,3.8,1.5,3.8,3.4c0,1.9-1.9,3.4-4.1,3.3
			c-1.5-0.1-2.9-0.2-4.3-0.2c0,4.1,0,8,0,12.2c2.5,0,4.8,0,7.1,0c1.8,0,3.1,1,3.4,2.5c0.5,2.1-0.8,4-3.1,4.1
			c-3.6,0.1-7.2,0.1-10.8,0c-1.7,0-3-1.3-3.1-3.2c-0.2-10.3-0.3-20.6-0.5-30.8c0-1.7,0-3.4,0.1-5.1c0.2-2.9,1.4-4.4,4.3-4.6
			c3.3-0.2,6.6-0.2,10-0.2c1.8,0,3.1,1.5,3.1,3.2c0,1.8-1.2,3.2-3.2,3.3C211.7,48.3,209.1,48.2,206.5,48.2z"/>
		<path class="st33" d="M170,66.3c0,4.1,0,7.9,0,11.8c0,0.3,0.7,0.9,1.1,1c1.3,0.1,2.6,0,3.9,0c2.4,0,3.8,1.3,3.8,3.3
			c0,2-1.5,3.3-3.8,3.3c-2.4,0-4.8,0.1-7.2,0.1c-3,0-4.3-1.2-4.4-4.2c-0.4-11.2-0.8-22.4-1.2-33.6c0-1.2,0.1-2.5,0.2-3.7
			c0.2-1.4,1.5-2.4,3.3-2.5c2.9-0.1,5.9-0.1,8.8-0.1c1.5,0,2.6,1.2,2.9,2.7c0.3,1.5-0.3,2.7-1.7,3.4c-0.7,0.3-1.5,0.4-2.2,0.5
			c-1.5,0.1-3,0.1-4.6,0.1c0,0-0.1,0.1-0.4,0.2c0.2,3.5,0.4,7.2,0.6,11.1c1.2,0,2.4,0,3.5,0c2.4,0,4.1,1.4,4.1,3.3
			c0,1.9-1.6,3.3-4.1,3.3C171.8,66.3,170.8,66.3,170,66.3z"/>
		<path class="st33" d="M186.9,47.9c0,3.9,0,7.5,0,11.2c1.7,0.2,3.2,0.2,4.7,0.5c1.5,0.3,2.5,1.3,2.6,3c0.1,1.6-0.8,2.7-2.2,3.3
			c-0.7,0.3-1.6,0.2-2.4,0.1c-0.7,0-1.4-0.1-2.1-0.2c0,3.1,0,6.1,0,9.1c0,2.3,0.2,4.7,0.2,7c0,1.8-1.2,3-3,3.3
			c-1.6,0.3-3.1-0.7-3.6-2.4c-0.1-0.5-0.2-1.1-0.2-1.6c-0.2-6.5-0.3-13-0.4-19.4c-0.1-5-0.2-10-0.3-15c0-3.8,1.4-5.3,5.2-5.4
			c3.3-0.1,6.5-0.1,9.8-0.1c2,0,3.6,1.5,3.6,3.3c0,1.8-1.5,3.3-3.5,3.3C192.4,48,189.6,47.9,186.9,47.9z"/>
		<path class="st34" d="M298.7,62.4c-3.2,0-6.3,0-9.3,0.1c-0.3,0-0.9,0.8-1,1.3c-0.2,2.5-0.2,5.1-0.5,7.7c-0.1,1-0.7,2.1-1.4,2.8
			c-1.6,1.4-4.2,0.4-4.5-1.8c-0.3-2.3-0.3-4.7-0.2-7c0.3-6.5,0.6-13.1,1.3-19.5c0.3-3.3,1-6.6,2.2-9.6c1.9-4.8,6.8-6.9,11.1-5.4
			C300,32,302,34.6,303,38c0.7,2.3,1.1,4.7,1.2,7c0.6,8,1.1,16.1,1.7,24.1c0,0.5,0.1,1.1,0.1,1.6c0,2-1.4,3.6-3.2,3.6
			c-1.8,0.1-3.4-1.3-3.5-3.3c-0.2-2.1-0.3-4.1-0.4-6.2C298.8,64.2,298.8,63.5,298.7,62.4z M298.3,55.5c-0.4-4.9-0.7-9.4-1.2-13.9
			c-0.1-1.1-0.6-2.2-1.3-3.1c-1.2-1.8-2.9-1.8-4.1,0c-0.5,0.8-1,1.7-1.1,2.7c-0.6,4.5-1.1,9-1.7,13.6c0,0.3,0.1,0.6,0.1,0.8
			C292.2,55.5,295.1,55.5,298.3,55.5z"/>
		<path class="st35" d="M271.2,120.6c5.8-0.4,10.3,3.5,10.3,8.8c0.1,5-4.2,9-9.7,8.9C271.6,132.4,271.4,126.6,271.2,120.6z"/>
		<path class="st28" d="M368.8,116.7c3.6,0.2,6.3,1.5,7.9,4.8c3.3,7.1,5.3,14.5,3.9,22.5c-0.5,3.1-1.7,6.1-3.6,8.7
			c-1.5,2.1-3.5,2.8-6.1,2.6C370.2,142.3,369.5,129.5,368.8,116.7z"/>
		<path class="st36" d="M225.8,59.8c-0.2-3.8-0.3-7.7-0.5-11.5c3-0.2,5.6,2.1,5.8,5C231.5,56.9,229.4,59.4,225.8,59.8z"/>
		<path class="st37" d="M146.1,47.8c1.9,1,3.6,1.7,5,2.6c0.6,0.4,1.1,1.2,1.3,2c1,3.2-1.6,8.8-4.6,10.2c-0.3,0.1-0.6,0.2-1.1,0.3
			C146.5,58,146.3,53.2,146.1,47.8z"/>
		<path class="st38" d="M298.3,55.5c-3.2,0-6.1,0-9.2,0c0-0.2-0.1-0.5-0.1-0.8c0.5-4.5,1-9.1,1.7-13.6c0.1-0.9,0.6-1.9,1.1-2.7
			c1.2-1.8,2.9-1.8,4.1,0c0.6,0.9,1.2,2,1.3,3.1C297.6,46.1,297.9,50.7,298.3,55.5z"/>
	</g>
</g>
</svg>
