<?xml version="1.0" encoding="utf-8"?>
<!-- Generator: Adobe Illustrator 22.0.1, SVG Export Plug-In . SVG Version: 6.00 Build 0)  -->
<svg xmlns="http://www.w3.org/2000/svg" xmlns:xlink="http://www.w3.org/1999/xlink" version="1.1" x="0px" y="0px" viewBox="0 0 256 256" style="enable-background:new 0 0 256 256;" xml:space="preserve" width="512" height="512">
<style type="text/css">
	.st0{display:none;}
	.st1{display:inline;}
	.st2{fill:none;stroke:#6B1D1D;stroke-width:0.5;stroke-miterlimit:10;}
	.st3{fill:#3A312A;}
	.st4{fill:#F16C7A;}
	.st5{fill:#D7E057;}
	.st6{fill:#87796F;}
	.st7{fill:#CE4E61;}
	.st8{fill-rule:evenodd;clip-rule:evenodd;fill:#D7E057;}
	.st9{fill-rule:evenodd;clip-rule:evenodd;fill:#FCE8CB;}
	.st10{fill:#B9BC39;}
	.st11{fill:#8AC6DD;}
	.st12{fill:#FCE8CB;}
	.st13{fill:#CCAE8B;}
	.st14{fill:#6B5B51;}
	.st15{fill:#68A8BC;}
	.st16{fill:#F5978A;}
	.st17{fill-rule:evenodd;clip-rule:evenodd;fill:#F16C7A;}
	.st18{fill-rule:evenodd;clip-rule:evenodd;fill:#8AC6DD;}
</style>
<g id="Layer_1" class="st0">
	<g class="st1">
		<g>
			<line class="st2" x1="0" y1="4.829" x2="256" y2="4.829"/>
			<line class="st2" x1="0" y1="16.56" x2="256" y2="16.56"/>
			<line class="st2" x1="0" y1="28.29" x2="256" y2="28.29"/>
			<line class="st2" x1="0" y1="40.021" x2="256" y2="40.021"/>
			<line class="st2" x1="0" y1="51.751" x2="256" y2="51.751"/>
			<line class="st2" x1="0" y1="63.482" x2="256" y2="63.482"/>
			<line class="st2" x1="0" y1="75.213" x2="256" y2="75.213"/>
			<line class="st2" x1="0" y1="86.943" x2="256" y2="86.943"/>
			<line class="st2" x1="0" y1="98.674" x2="256" y2="98.674"/>
			<line class="st2" x1="0" y1="110.404" x2="256" y2="110.404"/>
			<line class="st2" x1="0" y1="122.135" x2="256" y2="122.135"/>
			<line class="st2" x1="0" y1="133.865" x2="256" y2="133.865"/>
			<line class="st2" x1="0" y1="145.596" x2="256" y2="145.596"/>
			<line class="st2" x1="0" y1="157.326" x2="256" y2="157.326"/>
			<line class="st2" x1="0" y1="169.057" x2="256" y2="169.057"/>
			<line class="st2" x1="0" y1="180.788" x2="256" y2="180.788"/>
			<line class="st2" x1="0" y1="192.518" x2="256" y2="192.518"/>
			<line class="st2" x1="0" y1="204.249" x2="256" y2="204.249"/>
			<line class="st2" x1="0" y1="215.979" x2="256" y2="215.979"/>
			<line class="st2" x1="0" y1="227.71" x2="256" y2="227.71"/>
			<line class="st2" x1="0" y1="239.44" x2="256" y2="239.44"/>
			<line class="st2" x1="0" y1="251.171" x2="256" y2="251.171"/>
		</g>
		<g>
			<line class="st2" x1="251.171" y1="0" x2="251.171" y2="256"/>
			<line class="st2" x1="239.44" y1="0" x2="239.44" y2="256"/>
			<line class="st2" x1="227.71" y1="0" x2="227.71" y2="256"/>
			<line class="st2" x1="215.979" y1="0" x2="215.979" y2="256"/>
			<line class="st2" x1="204.249" y1="0" x2="204.249" y2="256"/>
			<line class="st2" x1="192.518" y1="0" x2="192.518" y2="256"/>
			<line class="st2" x1="180.788" y1="0" x2="180.788" y2="256"/>
			<line class="st2" x1="169.057" y1="0" x2="169.057" y2="256"/>
			<line class="st2" x1="157.326" y1="0" x2="157.326" y2="256"/>
			<line class="st2" x1="145.596" y1="0" x2="145.596" y2="256"/>
			<line class="st2" x1="133.865" y1="0" x2="133.865" y2="256"/>
			<line class="st2" x1="122.135" y1="0" x2="122.135" y2="256"/>
			<line class="st2" x1="110.404" y1="0" x2="110.404" y2="256"/>
			<line class="st2" x1="98.674" y1="0" x2="98.674" y2="256"/>
			<line class="st2" x1="86.943" y1="0" x2="86.943" y2="256"/>
			<line class="st2" x1="75.213" y1="0" x2="75.213" y2="256"/>
			<line class="st2" x1="63.482" y1="0" x2="63.482" y2="256"/>
			<line class="st2" x1="51.751" y1="0" x2="51.751" y2="256"/>
			<line class="st2" x1="40.021" y1="0" x2="40.021" y2="256"/>
			<line class="st2" x1="28.29" y1="0" x2="28.29" y2="256"/>
			<line class="st2" x1="16.56" y1="0" x2="16.56" y2="256"/>
			<line class="st2" x1="4.829" y1="0" x2="4.829" y2="256"/>
		</g>
	</g>
</g>
<g id="Layer_2">
	<g>
		<g>
			<g>
				<path class="st4" d="M193.276,87.158H22.998c-3.169,0-5.738,2.569-5.738,5.738v14.656c0,3.169,2.569,5.738,5.738,5.738h170.278      c3.169,0,5.738-2.569,5.738-5.738V92.896C199.014,89.727,196.445,87.158,193.276,87.158z"/>
			</g>
		</g>
		<g>
			<g>
				<path class="st3" d="M193.276,85.658H67.498c-0.828,0-1.5,0.672-1.5,1.5s0.672,1.5,1.5,1.5h125.778      c2.337,0,4.237,1.901,4.237,4.238v14.656c0,2.337-1.9,4.237-4.237,4.237H22.998c-2.337,0-4.237-1.9-4.237-4.237V92.896      c0-2.337,1.9-4.238,4.237-4.238H52.8c0.828,0,1.5-0.672,1.5-1.5s-0.672-1.5-1.5-1.5H22.998c-3.99,0-7.237,3.247-7.237,7.238      v14.656c0,3.99,3.247,7.237,7.237,7.237h170.278c3.99,0,7.237-3.247,7.237-7.237V92.896      C200.514,88.905,197.267,85.658,193.276,85.658z"/>
			</g>
		</g>
		<g>
			<g>
				<path class="st4" d="M27.408,113.29v24.006v14.588v81.299c0,3.528,2.86,6.387,6.388,6.387h145.977      c3.528,0,6.388-2.86,6.388-6.387V113.29H27.408z"/>
			</g>
		</g>
		<g>
			<g>
				<path class="st3" d="M186.16,111.79H27.408c-0.828,0-1.5,0.672-1.5,1.5v24.006c0,0.828,0.672,1.5,1.5,1.5s1.5-0.672,1.5-1.5      V114.79H184.66v118.393c0,2.695-2.192,4.888-4.887,4.888H33.796c-2.695,0-4.888-2.192-4.888-4.888v-81.299      c0-0.828-0.672-1.5-1.5-1.5s-1.5,0.672-1.5,1.5v81.299c0,4.35,3.538,7.888,7.888,7.888h145.978c4.349,0,7.887-3.538,7.887-7.888      V113.29C187.66,112.462,186.988,111.79,186.16,111.79z"/>
			</g>
		</g>
		<g>
			<g>
				<rect x="78.558" y="87.158" class="st5" width="60.788" height="26.132"/>
			</g>
		</g>
		<g>
			<g>
				<path class="st3" d="M139.347,85.658H78.559c-0.828,0-1.5,0.672-1.5,1.5v26.132c0,0.828,0.672,1.5,1.5,1.5h60.788      c0.828,0,1.5-0.672,1.5-1.5V87.158C140.847,86.33,140.175,85.658,139.347,85.658z M137.847,111.79H80.059V88.658h57.788V111.79z      "/>
			</g>
		</g>
		<g>
			<g>
				<polygon class="st5" points="78.558,113.307 78.558,153.584 96.998,140.543 103.247,153.584 110.718,146.792 119.412,153.584       128.921,146.045 139.346,153.584 139.346,113.307     "/>
			</g>
		</g>
		<g>
			<g>
				<path class="st3" d="M139.347,111.808H78.559c-0.828,0-1.5,0.672-1.5,1.5v40.276c0,0.561,0.313,1.074,0.811,1.332      s1.1,0.217,1.556-0.107l16.988-12.015l5.481,11.438c0.205,0.428,0.6,0.732,1.064,0.823c0.096,0.02,0.192,0.028,0.288,0.028      c0.37,0,0.73-0.137,1.009-0.39l6.535-5.941l7.697,6.013c0.546,0.428,1.313,0.424,1.855-0.006l8.619-6.834l9.505,6.874      c0.457,0.331,1.059,0.375,1.562,0.12c0.502-0.257,0.817-0.772,0.817-1.336v-40.276      C140.847,112.479,140.175,111.808,139.347,111.808z M137.847,150.648l-8.047-5.819c-0.545-0.393-1.284-0.377-1.811,0.04      l-8.584,6.806l-7.764-6.064c-0.272-0.213-0.599-0.318-0.924-0.318c-0.362,0-0.724,0.131-1.009,0.39l-5.979,5.437l-5.379-11.224      c-0.19-0.398-0.548-0.692-0.976-0.804c-0.429-0.111-0.883-0.027-1.243,0.228l-16.073,11.367v-35.878h57.788V150.648z"/>
			</g>
		</g>
		<g>
			<g>
				<path class="st6" d="M93.67,214.168H46.262c-1.951,0-3.532,1.581-3.532,3.532v3.803c0,1.951,1.581,3.532,3.532,3.532H93.67      c1.951,0,3.532-1.581,3.532-3.532V217.7C97.202,215.75,95.621,214.168,93.67,214.168z"/>
			</g>
		</g>
		<g>
			<g>
				<path class="st3" d="M93.67,212.668H46.262c-2.774,0-5.031,2.258-5.031,5.032v3.804c0,2.774,2.257,5.032,5.031,5.032H93.67      c2.774,0,5.032-2.258,5.032-5.032V217.7C98.702,214.926,96.444,212.668,93.67,212.668z M95.702,221.504      c0,1.12-0.912,2.032-2.032,2.032H46.262c-1.12,0-2.031-0.912-2.031-2.032V217.7c0-1.12,0.911-2.032,2.031-2.032H93.67      c1.12,0,2.032,0.912,2.032,2.032V221.504z"/>
			</g>
		</g>
		<g>
			<g>
				<path class="st5" d="M47.695,26.106c-0.974,11.564-13.025,13.39-13.025,13.39c10.347,0.487,12.925,14.059,12.925,14.059      c0.221-9.677,13.321-14.202,13.321-14.202C51.104,38.766,47.695,26.106,47.695,26.106z"/>
			</g>
		</g>
		<g>
			<g>
				<path class="st3" d="M61.007,37.855c-8.604-0.515-11.832-12.024-11.863-12.141c-0.19-0.701-0.847-1.158-1.584-1.102      c-0.725,0.066-1.298,0.642-1.359,1.367c-0.859,10.215-11.313,11.964-11.754,12.032c-0.763,0.116-1.313,0.791-1.273,1.561      c0.04,0.771,0.657,1.385,1.428,1.421c9.027,0.425,11.498,12.718,11.521,12.842c0.138,0.712,0.76,1.218,1.473,1.218      c0.042,0,0.084-0.002,0.126-0.005c0.765-0.064,1.357-0.693,1.375-1.46c0.193-8.509,12.191-12.777,12.313-12.819      c0.676-0.234,1.092-0.914,0.994-1.622C62.304,38.438,61.721,37.897,61.007,37.855z M47.44,48.2      c-1.356-3.13-3.708-6.906-7.586-8.876c2.931-1.404,6.408-3.912,8.201-8.272c1.551,3.071,4.199,6.88,8.334,8.723      C53.382,41.414,49.467,44.179,47.44,48.2z"/>
			</g>
		</g>
		<g>
			<g>
				<path class="st5" d="M25.996,43.087c-0.689,8.179-9.212,9.471-9.212,9.471c7.318,0.344,9.142,9.944,9.142,9.944      c0.156-6.845,9.422-10.046,9.422-10.046C28.407,52.041,25.996,43.087,25.996,43.087z"/>
			</g>
		</g>
		<g>
			<g>
				<path class="st3" d="M35.438,50.959c-5.767-0.345-7.973-8.186-7.995-8.265c-0.189-0.702-0.862-1.16-1.581-1.102      c-0.726,0.065-1.3,0.643-1.361,1.368c-0.578,6.87-7.646,8.066-7.941,8.113c-0.763,0.116-1.313,0.791-1.273,1.561      c0.04,0.771,0.657,1.385,1.428,1.421c6.035,0.284,7.723,8.645,7.738,8.727c0.136,0.712,0.759,1.22,1.473,1.22      c0.041,0,0.083-0.002,0.124-0.005c0.766-0.063,1.359-0.693,1.377-1.461c0.13-5.709,8.332-8.634,8.413-8.662      c0.676-0.233,1.093-0.913,0.996-1.622C36.737,51.543,36.152,51.001,35.438,50.959z M25.854,57.754      c-0.925-1.886-2.34-3.947-4.447-5.279c1.855-1.042,3.697-2.63,4.87-4.917c1.058,1.874,2.655,3.954,4.941,5.224      C29.368,53.882,27.229,55.521,25.854,57.754z"/>
			</g>
		</g>
		<g>
			<g>
				<path class="st5" d="M25.996,16.429c-0.689,8.179-9.212,9.47-9.212,9.47c7.318,0.344,9.142,9.944,9.142,9.944      c0.156-6.844,9.422-10.045,9.422-10.045C28.407,25.383,25.996,16.429,25.996,16.429z"/>
			</g>
		</g>
		<g>
			<g>
				<path class="st3" d="M35.438,24.302c-5.767-0.345-7.973-8.186-7.995-8.265c-0.189-0.701-0.862-1.16-1.581-1.102      c-0.726,0.065-1.3,0.643-1.361,1.368c-0.578,6.87-7.646,8.065-7.941,8.112c-0.763,0.116-1.313,0.791-1.273,1.561      c0.04,0.771,0.657,1.385,1.428,1.421c6.035,0.284,7.723,8.645,7.738,8.727c0.136,0.712,0.759,1.22,1.473,1.22      c0.041,0,0.083-0.002,0.124-0.005c0.766-0.063,1.359-0.693,1.377-1.461c0.13-5.709,8.332-8.633,8.412-8.661      c0.677-0.233,1.094-0.913,0.997-1.622C36.737,24.886,36.152,24.344,35.438,24.302z M25.854,31.096      c-0.924-1.886-2.34-3.947-4.447-5.279c1.855-1.041,3.697-2.63,4.87-4.916c1.058,1.874,2.654,3.954,4.941,5.224      C29.368,27.225,27.229,28.864,25.854,31.096z"/>
			</g>
		</g>
		<g>
			<g>
				
					<ellipse transform="matrix(0.7071 -0.7071 0.7071 0.7071 -14.9239 143.8296)" class="st12" cx="166.156" cy="89.93" rx="73.06" ry="73.06"/>
			</g>
		</g>
		<g>
			<g>
				<path class="st3" d="M166.156,15.369c-41.113,0-74.561,33.447-74.561,74.561s33.447,74.561,74.561,74.561      c41.112,0,74.56-33.447,74.56-74.561S207.269,15.369,166.156,15.369z M166.156,161.49c-39.459,0-71.561-32.102-71.561-71.561      s32.102-71.561,71.561-71.561c39.458,0,71.56,32.102,71.56,71.561S205.614,161.49,166.156,161.49z"/>
			</g>
		</g>
		<g>
			<g>
				<path class="st7" d="M171.989,164.255v68.93c0,2.69-2.19,4.89-4.88,4.89h12.66c2.7,0,4.89-2.2,4.89-4.89v-71.02      C180.559,163.215,176.329,163.925,171.989,164.255z"/>
			</g>
		</g>
		<g>
			<g>
				<path class="st13" d="M166.159,18.365c-2.13,0-4.24,0.09-6.33,0.28c36.5,3.22,65.22,33.97,65.22,71.28      c0,37.32-28.72,68.06-65.22,71.28c2.09,0.19,4.2,0.28,6.33,0.28c39.46,0,71.56-32.1,71.56-71.56      C237.719,50.475,205.619,18.365,166.159,18.365z"/>
			</g>
		</g>
		<g>
			<g>
				<path class="st11" d="M175.734,73.901c-2.121-0.157-3.761-1.925-3.761-4.053v-9.814c0-3.133-3.391-5.091-6.104-3.524      l-15.511,8.956l-8.068,4.658l-22.771,13.147c-2.713,1.566-2.713,5.482,0,7.049l46.351,26.76      c2.713,1.567,6.104-0.392,6.104-3.524v-9.458c0-2.363,2.009-4.26,4.363-4.059c16.977,1.448,31.221,10.709,37.582,23.449      c0.356,0.713,1.396,0.67,1.662-0.082c1.238-3.498,1.903-7.209,1.903-11.047C217.482,92.188,199.131,75.635,175.734,73.901z"/>
			</g>
		</g>
		<g>
			<g>
				<path class="st3" d="M175.845,72.405c-1.33-0.099-2.372-1.222-2.372-2.557v-9.814c0-2.014-1.041-3.816-2.785-4.823      c-1.745-1.009-3.826-1.007-5.569,0l-46.351,26.761c-1.744,1.007-2.785,2.81-2.785,4.823s1.041,3.816,2.785,4.823l46.351,26.761      c1.743,1.008,3.824,1.008,5.569,0c1.744-1.007,2.785-2.81,2.785-4.823v-9.457c0-0.725,0.307-1.421,0.84-1.911      c0.524-0.481,1.2-0.709,1.896-0.654c16.152,1.378,30.088,10.048,36.368,22.626c0.413,0.825,1.25,1.339,2.163,1.339      c0.051,0,0.101-0.002,0.151-0.005c0.959-0.06,1.784-0.683,2.104-1.587c1.319-3.729,1.988-7.614,1.988-11.547      C218.982,91.405,200.438,74.229,175.845,72.405z M214.606,121.568c-7.019-12.829-21.491-21.604-38.143-23.023      c-0.153-0.014-0.308-0.02-0.46-0.02c-1.366,0-2.701,0.517-3.72,1.452c-1.151,1.057-1.812,2.559-1.812,4.121v9.457      c0,0.929-0.48,1.761-1.285,2.226c-0.805,0.466-1.765,0.466-2.569,0l-46.351-26.761c-0.805-0.465-1.285-1.297-1.285-2.226      s0.48-1.761,1.285-2.226l22.771-13.146l23.58-13.614c0.804-0.465,1.764-0.466,2.569,0c0.805,0.465,1.285,1.297,1.285,2.226      v9.814c0,2.897,2.262,5.335,5.149,5.549c22.632,1.678,40.36,17.913,40.36,36.962      C215.982,115.482,215.521,118.573,214.606,121.568z"/>
			</g>
		</g>
	</g>
</g>
</svg>
