<svg height="498pt" viewBox="0 -24 498.01 498" width="498pt" xmlns="http://www.w3.org/2000/svg"><path d="m247.160156 82.125c26.789063-59.507812 94.160156-89.214844 156.164063-68.863281 62.007812 20.347656 98.667969 84.199219 84.988281 148.007812-13.683594 63.8125-73.296875 107.019531-138.195312 100.160157-64.898438-6.859376-114.167969-61.574219-114.207032-126.835938-.011718-18.089844 3.820313-35.972656 11.25-52.46875zm176.328125 111.082031v-57.75c.003907-11.050781-8.953125-20.003906-20-20h-.566406v-20.683593c.003906-10.277344-4.054687-20.144532-11.292969-27.449219-7.148437-7.289063-16.925781-11.402344-27.140625-11.417969-21.347656.113281-38.5625 17.519531-38.4375 38.867188v20.683593h-.570312c-11.046875-.003906-20.003907 8.949219-20 20v57.75c-.003907 11.046875 8.953125 20 20 20h78.007812c11.046875 0 20.003907-8.953125 20-20zm0 0" fill="#00acea"/><path d="m463.960938 309.675781v36.679688c0 16.210937-13.140626 29.351562-29.351563 29.351562h-360.667969c-16.210937 0-29.351562-13.140625-29.351562-29.351562v-36.679688zm0 0" fill="#00acea"/><path d="m463.960938 213.125v96.550781h-419.371094v-29.28125h157.789062c10.578125.003907 19.152344-8.570312 19.152344-19.148437v-111.382813c-.003906-10.574219-8.574219-19.148437-19.152344-19.148437h-157.789062v-19.238282c0-16.210937 13.140625-29.351562 29.351562-29.351562h173.21875c-26.535156 58.847656-4.933594 128.242188 50.316406 161.625s126.730469 20.234375 166.484376-30.625zm0 0" fill="#00efd1"/><path d="m363 174.164062c.425781.0625.851562.089844 1.28125.089844 5.035156.007813 9.171875-3.976562 9.351562-9.007812.179688-5.03125-3.660156-9.304688-8.683593-9.65625-5.023438-.351563-9.421875 3.339844-9.949219 8.347656-.523438 5.007812 3.011719 9.53125 8 10.226562zm60.488281-38.707031v57.75c.003907 11.046875-8.953125 20-20 20h-78.007812c-11.046875 0-20.003907-8.953125-20-20v-57.75c-.003907-11.050781 8.953125-20.003906 20-20h78.007812c11.046875-.003906 20.003907 8.949219 20 20zm0 0" fill="#fedb41"/><path d="m402.921875 114.386719v1.070312h-76.871094v-20.683593c-.125-21.347657 17.089844-38.753907 38.4375-38.867188 10.214844.015625 19.992188 4.128906 27.140625 11.417969 7.238282 7.304687 11.296875 17.171875 11.292969 27.449219zm0 0" fill="#00acea"/><path d="m363 174.164062c-4.96875-.695312-8.492188-5.203124-7.964844-10.191406.523438-4.988281 4.90625-8.664062 9.910156-8.3125 5.003907.351563 8.828126 4.605469 8.648438 9.617188-.179688 5.015625-4.296875 8.984375-9.3125 8.976562-.429688 0-.855469-.027344-1.28125-.089844zm0 0" fill="#00efd1"/><path d="m187.199219 375.707031h134.152343v67.289063h-134.152343zm0 0" fill="#00efd1"/><path d="m221.53125 199.546875v61.699219c0 10.578125-8.574219 19.152344-19.152344 19.148437h-176.207031c-10.582031.003907-19.160156-8.570312-19.160156-19.148437v-61.699219zm-124.019531 42.136719c-.003907-7.800782-6.332031-14.121094-14.132813-14.117188-7.800781 0-14.121094 6.328125-14.117187 14.128906 0 7.800782 6.328125 14.121094 14.128906 14.121094 7.800781-.003906 14.121094-6.332031 14.121094-14.132812zm-33.511719 0c0-7.800782-6.328125-14.128906-14.128906-14.128906-7.804688 0-14.132813 6.328124-14.132813 14.128906 0 7.804687 6.328125 14.132812 14.132813 14.132812 7.800781-.003906 14.125-6.328125 14.128906-14.132812zm0 0" fill="#fedb41"/><path d="m7.011719 164.234375h214.519531v35.3125h-214.519531zm0 0" fill="#00acea"/><path d="m221.53125 149.863281v14.371094h-214.519531v-14.371094c.003906-10.574219 8.582031-19.148437 19.160156-19.148437h176.207031c10.578125 0 19.148438 8.574218 19.152344 19.148437zm0 0" fill="#fedb41"/><path d="m83.390625 227.554688c7.804687 0 14.128906 6.328124 14.128906 14.128906 0 7.804687-6.324219 14.132812-14.128906 14.132812s-14.128906-6.328125-14.128906-14.132812c-.003907-7.804688 6.324219-14.128906 14.128906-14.128906zm0 0" fill="#00efd1"/><path d="m64 241.683594c0 7.804687-6.328125 14.132812-14.128906 14.132812-7.804688 0-14.132813-6.328125-14.132813-14.132812 0-7.800782 6.328125-14.128906 14.132813-14.128906 7.800781 0 14.128906 6.328124 14.128906 14.128906zm0 0" fill="#00efd1"/><g fill="#083863"><path d="m83.390625 220.554688c-6.578125.007812-12.777344 3.082031-16.761719 8.3125-5.496094-7.203126-14.976562-10.101563-23.5625-7.199219-8.585937 2.902343-14.367187 10.953125-14.367187 20.015625s5.78125 17.117187 14.367187 20.019531c8.585938 2.902344 18.066406.003906 23.5625-7.199219 6.019532 7.863282 16.699219 10.488282 25.675782 6.308594 8.980468-4.179688 13.847656-14.039062 11.707031-23.710938-2.140625-9.667968-10.71875-16.550781-20.621094-16.546874zm-33.519531 28.261718c-3.9375 0-7.132813-3.195312-7.132813-7.132812s3.195313-7.128906 7.132813-7.128906 7.128906 3.191406 7.128906 7.128906c-.003906 3.9375-3.195312 7.128906-7.128906 7.132812zm33.519531 0c-3.941406.003906-7.136719-3.1875-7.140625-7.125s3.1875-7.132812 7.125-7.136718c3.941406 0 7.136719 3.191406 7.136719 7.128906-.003907 3.933594-3.1875 7.121094-7.121094 7.132812zm0 0"/><path d="m363.449219.00390625c-51.25-.05859375-98.074219 29.03906275-120.714844 75.01953175h-168.792969c-20.042968 0-35.941406 16.40625-35.941406 36.453124v12.546876h-11.828125c-6.90625-.0625-13.546875 2.628906-18.460937 7.480468-4.910157 4.847656-7.6875005 11.457032-7.710938 18.359375v111.382813c.0273438 6.894531 2.804688 13.496094 7.71875 18.335937 4.914062 4.84375 11.554688 7.519531 18.453125 7.441407h11.828125v59.332031c0 20.042969 15.898438 36.667969 35.941406 36.667969h106.058594v53h-32.820312c-3.867188 0-7 3.136718-7 7 0 3.867187 3.132812 7 7 7h214.191406c3.863281 0 7-3.132813 7-7 0-3.863282-3.136719-7-7-7h-33.371094v-53h106.609375c20.042969 0 36.390625-16.625 36.390625-36.667969v-130.859375c18-23.449219 27.011719-51.390625 27.011719-80.925782 0-74.183593-60.375-134.56640575-134.5625-134.56640575zm0 14.05078175c66.542969.074218 120.464843 54 120.539062 120.539062.101563 26.914062-8.902343 53.066406-25.542969 74.21875-34.710937 44.457031-95.609374 58.90625-146.597656 34.777344-50.984375-24.128906-78.425781-80.382813-66.054687-135.414063 12.371093-55.035156 61.246093-94.132812 117.652343-94.121093zm-337.277344 123.96875h176.207031c6.699219 0 12.621094 5.144531 12.621094 11.839843v7.160157h-201v-7.160157c.019531-3.191406 1.320312-6.238281 3.605469-8.464843 2.289062-2.226563 5.375-3.441407 8.566406-3.375zm-12.171875 33h201v22h-201zm0 90.222656v-54.222656h201v54.222656c0 6.699218-5.921875 11.777344-12.621094 11.777344h-176.207031c-3.1875.082031-6.269531-1.117188-8.558594-3.335938-2.289062-2.214844-3.589843-5.257812-3.613281-8.441406zm300 174.777344h-120v-53h120zm143-89.667969c-.007812 12.40625-9.984375 22.507812-22.390625 22.667969h-360.667969c-12.324218 0-21.941406-10.34375-21.941406-22.667969v-29.332031h405zm-405-43.332031v-16h150.378906c14.421875 0 26.621094-11.359376 26.621094-25.777344v-111.382813c0-14.417969-12.199219-25.839843-26.621094-25.839843h-150.378906v-12.546876c-.089844-5.894531 2.175781-11.578124 6.296875-15.792968 4.117187-4.214844 9.75-6.613282 15.644531-6.660156h162.835938c-5.199219 14.617187-7.859375 30.011718-7.867188 45.523437 0 74.183594 60.375 134.5625 134.558594 134.5625 34.910156.101563 68.476562-13.449219 93.53125-37.757813v71.671876zm0 0"/><path d="m325.480469 220.023438h78.007812c7.089844.015624 13.886719-2.816407 18.871094-7.859376 4.984375-5.039062 7.734375-11.871093 7.640625-18.957031v-57.75c0-12.675781-8-23.328125-20-26.222656v-14.460937c.011719-12.132813-4.789062-23.773438-13.351562-32.371094-8.46875-8.640625-20.0625-13.507813-32.164063-13.5-25.054687.003906-45.484375 20.578125-45.484375 45.871094v14.460937c-12.207031 2.859375-20.878906 13.6875-21 26.222656v57.75c0 14.886719 12.59375 26.816407 27.480469 26.816407zm38.984375-157.117188c8.359375 0 16.367187 3.367188 22.214844 9.339844 5.964843 5.980468 9.316406 14.082031 9.320312 22.527344v13.25h-63v-13.25c-.085938-17.476563 13.984375-31.730469 31.464844-31.867188zm51.535156 130.117188c0 7.179687-5.820312 13-13 13h-78c-7.179688 0-13-5.820313-13-13v-58c0-7.179688 5.820312-13 13-13h78c7.179688 0 13 5.820312 13 13zm0 0"/><path d="m356 178.984375v10.039063c0 3.867187 3.132812 7 7 7s7-3.132813 7-7v-8.824219c7.144531-2.671875 11.484375-9.9375 10.449219-17.496094-1.03125-7.558594-7.160157-13.394531-14.761719-14.054687-7.597656-.660157-14.644531 4.03125-16.964844 11.296874-2.320312 7.269532.703125 15.171876 7.277344 19.039063zm8.28125-16.378906c1.210938.003906 2.21875.941406 2.308594 2.148437.085937 1.210938-.769532 2.285156-1.96875 2.46875-.429688-.101562-.863282-.160156-1.300782-.179687-1-.449219-1.550781-1.535157-1.320312-2.609375.230469-1.070313 1.179688-1.832032 2.277344-1.828125zm0 0"/></g></svg>